<svg width="499" height="1078" viewBox="0 0 499 1078" fill="none" xmlns="http://www.w3.org/2000/svg">
<path d="M384.998 1.47895L383.651 -9.53674e-07L380.693 2.69274L382.04 4.17169L383.519 2.82532L384.998 1.47895ZM496.214 216.904L498.212 216.824L496.214 216.904ZM23.4776 433.483L21.7006 432.565L23.4776 433.483ZM192.779 696.825L192.073 694.954L192.779 696.825ZM445.477 900.654L447.122 901.791C447.199 901.679 447.265 901.559 447.318 901.434L445.477 900.654ZM323.134 1074.19C322.506 1075.1 322.733 1076.34 323.642 1076.97C324.551 1077.6 325.797 1077.37 326.424 1076.46L324.779 1075.33L323.134 1074.19ZM333.968 1065.55C334.596 1064.64 334.368 1063.39 333.46 1062.76C332.551 1062.14 331.305 1062.36 330.677 1063.27L332.323 1064.41L333.968 1065.55ZM345.764 1041.44C345.137 1042.35 345.364 1043.59 346.273 1044.22C347.182 1044.85 348.427 1044.62 349.055 1043.71L347.41 1042.57L345.764 1041.44ZM364.142 1021.88C364.77 1020.97 364.543 1019.72 363.634 1019.1C362.725 1018.47 361.48 1018.69 360.852 1019.6L362.497 1020.74L364.142 1021.88ZM375.939 997.77C375.311 998.678 375.539 999.924 376.447 1000.55C377.356 1001.18 378.602 1000.95 379.23 1000.04L377.584 998.907L375.939 997.77ZM394.317 978.21C394.945 977.301 394.717 976.055 393.808 975.427C392.9 974.799 391.654 975.027 391.026 975.936L392.671 977.073L394.317 978.21ZM406.113 954.102C405.485 955.011 405.713 956.256 406.622 956.884C407.53 957.512 408.776 957.284 409.404 956.376L407.759 955.239L406.113 954.102ZM424.491 934.542C425.119 933.633 424.892 932.387 423.983 931.759C423.074 931.132 421.828 931.359 421.2 932.268L422.846 933.405L424.491 934.542ZM436.288 910.434C435.66 911.343 435.887 912.588 436.796 913.216C437.705 913.844 438.95 913.617 439.578 912.708L437.933 911.571L436.288 910.434ZM451.613 890.117C451.967 889.07 451.404 887.935 450.358 887.582C449.311 887.229 448.176 887.791 447.823 888.838L449.718 889.477L451.613 890.117ZM453.743 865.98C453.542 867.066 454.259 868.11 455.346 868.311C456.432 868.512 457.475 867.794 457.676 866.708L455.71 866.344L453.743 865.98ZM460.454 842.698C460.507 841.595 459.656 840.658 458.553 840.605C457.449 840.551 456.512 841.403 456.459 842.506L458.457 842.602L460.454 842.698ZM456.027 818.873C456.12 819.974 457.088 820.79 458.189 820.697C459.289 820.604 460.106 819.636 460.013 818.535L458.02 818.704L456.027 818.873ZM456.362 794.642C456.122 793.564 455.053 792.885 453.975 793.125C452.897 793.365 452.218 794.434 452.458 795.512L454.41 795.077L456.362 794.642ZM445.727 772.874C446.116 773.908 447.27 774.43 448.303 774.041C449.337 773.652 449.86 772.499 449.471 771.465L447.599 772.169L445.727 772.874ZM439.297 749.515C438.759 748.55 437.54 748.206 436.576 748.744C435.612 749.283 435.267 750.502 435.806 751.466L437.552 750.49L439.297 749.515ZM422.719 731.864C423.405 732.73 424.663 732.877 425.529 732.191C426.395 731.506 426.542 730.248 425.857 729.382L424.288 730.623L422.719 731.864ZM409.302 711.707C408.481 710.967 407.217 711.032 406.477 711.853C405.737 712.673 405.803 713.938 406.623 714.677L407.962 713.192L409.302 711.707ZM387.863 700.462C388.797 701.052 390.032 700.773 390.622 699.839C391.212 698.905 390.932 697.67 389.999 697.08L388.931 698.771L387.863 700.462ZM368.52 685.905C367.501 685.477 366.329 685.955 365.901 686.974C365.473 687.992 365.952 689.164 366.97 689.592L367.745 687.748L368.52 685.905ZM344.559 682.17C345.631 682.437 346.716 681.785 346.984 680.713C347.251 679.642 346.599 678.556 345.527 678.289L345.043 680.229L344.559 682.17ZM321.754 674.087C320.656 673.967 319.669 674.76 319.55 675.859C319.43 676.957 320.223 677.944 321.321 678.063L321.538 676.075L321.754 674.087ZM297.711 676.93C298.815 676.92 299.702 676.016 299.692 674.911C299.681 673.807 298.777 672.92 297.673 672.93L297.692 674.93L297.711 676.93ZM273.606 674.407C272.508 674.529 271.717 675.518 271.838 676.615C271.96 677.713 272.949 678.505 274.047 678.383L273.826 676.395L273.606 674.407ZM250.541 682.047C251.624 681.831 252.328 680.778 252.112 679.695C251.896 678.611 250.843 677.908 249.76 678.123L250.15 680.085L250.541 682.047ZM226.443 683.681C225.379 683.975 224.754 685.076 225.048 686.141C225.342 687.206 226.444 687.83 227.508 687.536L226.976 685.608L226.443 683.681ZM204.828 694.596C205.872 694.236 206.426 693.097 206.066 692.053C205.705 691.009 204.567 690.455 203.522 690.815L204.175 692.706L204.828 694.596ZM180.555 698.64C179.487 698.922 178.85 700.016 179.131 701.084C179.412 702.152 180.506 702.79 181.574 702.508L181.065 700.574L180.555 698.64ZM156.86 706.218C157.964 706.175 158.824 705.246 158.781 704.142C158.738 703.038 157.809 702.178 156.705 702.221L156.783 704.22L156.86 706.218ZM132.665 700.507C131.578 700.309 130.537 701.031 130.34 702.117C130.142 703.204 130.863 704.245 131.95 704.442L132.308 702.475L132.665 700.507ZM107.991 697.488C109.016 697.9 110.18 697.403 110.592 696.378C111.004 695.353 110.506 694.188 109.481 693.776L108.736 695.632L107.991 697.488ZM87.9391 682.737C87.004 682.149 85.7694 682.43 85.1814 683.365C84.5934 684.301 84.8748 685.535 85.8098 686.123L86.8745 684.43L87.9391 682.737ZM65.8766 671.223C66.7076 671.951 67.9711 671.867 68.6989 671.036C69.4266 670.205 69.343 668.942 68.512 668.214L67.1943 669.718L65.8766 671.223ZM51.4379 650.945C50.7176 650.107 49.4549 650.012 48.6174 650.733C47.78 651.453 47.685 652.716 48.4052 653.553L49.9215 652.249L51.4379 650.945ZM33.4825 633.703C34.0882 634.627 35.328 634.884 36.2517 634.279C37.1753 633.673 37.4331 632.433 36.8273 631.51L35.1549 632.606L33.4825 633.703ZM24.7687 610.376C24.281 609.385 23.0822 608.977 22.0911 609.465C21.1001 609.952 20.6921 611.151 21.1799 612.142L22.9743 611.259L24.7687 610.376ZM11.5788 589.255C11.9443 590.297 13.0856 590.846 14.1279 590.48C15.1702 590.115 15.7189 588.974 15.3534 587.931L13.4661 588.593L11.5788 589.255ZM8.68846 564.521C8.45033 563.442 7.38292 562.761 6.30432 562.999C5.22573 563.237 4.54439 564.305 4.78251 565.383L6.73548 564.952L8.68846 564.521ZM0.912288 540.869C1.01757 541.969 1.99428 542.775 3.09382 542.67C4.19336 542.564 4.99936 541.588 4.89407 540.488L2.90318 540.679L0.912288 540.869ZM4.08249 516.181C4.11476 515.077 3.24588 514.156 2.14178 514.123C1.03768 514.091 0.11647 514.96 0.0841938 516.064L2.08334 516.123L4.08249 516.181ZM2.38326 491.349C2.21091 492.44 2.95566 493.464 4.0467 493.637C5.13774 493.809 6.16192 493.064 6.33427 491.973L4.35877 491.661L2.38326 491.349ZM11.6654 468.255C11.9766 467.195 11.3697 466.084 10.3099 465.773C9.25009 465.462 8.13866 466.069 7.82747 467.128L9.74645 467.692L11.6654 468.255ZM16.3418 443.793C15.8977 444.805 16.3575 445.984 17.3689 446.428C18.3803 446.873 19.5602 446.413 20.0042 445.401L18.173 444.597L16.3418 443.793ZM31.0812 424.177C31.6679 423.241 31.3848 422.007 30.4489 421.42C29.5131 420.834 28.2788 421.117 27.6921 422.053L29.3866 423.115L31.0812 424.177ZM42.0772 402.945C41.3395 403.767 41.4081 405.032 42.2302 405.77C43.0524 406.507 44.3169 406.439 45.0545 405.616L43.5658 404.281L42.0772 402.945ZM62.0277 389.644C62.8916 388.956 63.0339 387.698 62.3456 386.834C61.6573 385.97 60.399 385.827 59.5351 386.516L60.7814 388.08L62.0277 389.644ZM79.3272 373.064C78.3715 373.618 78.0455 374.841 78.5991 375.797C79.1528 376.753 80.3764 377.079 81.3322 376.525L80.3297 374.795L79.3272 373.064ZM102.319 366.087C103.335 365.654 103.808 364.48 103.376 363.463C102.943 362.447 101.768 361.974 100.752 362.406L101.535 364.247L102.319 366.087ZM123.122 354.193C122.068 354.525 121.483 355.648 121.815 356.701C122.147 357.755 123.27 358.34 124.324 358.008L123.723 356.1L123.122 354.193ZM147.001 351.838C148.077 351.586 148.745 350.511 148.494 349.435C148.243 348.36 147.167 347.691 146.092 347.942L146.547 349.89L147.001 351.838ZM169.42 343.239C168.331 343.427 167.602 344.462 167.79 345.55C167.978 346.639 169.013 347.369 170.101 347.18L169.761 345.21L169.42 343.239ZM193.447 343.698C194.543 343.558 195.317 342.556 195.177 341.46C195.037 340.365 194.035 339.59 192.94 339.73L193.193 341.714L193.447 343.698ZM216.544 337.117C215.445 337.222 214.638 338.199 214.743 339.298C214.848 340.398 215.825 341.204 216.924 341.099L216.734 339.108L216.544 337.117ZM240.468 339.133C241.57 339.052 242.398 338.093 242.317 336.992C242.236 335.89 241.278 335.062 240.176 335.143L240.322 337.138L240.468 339.133ZM263.832 333.578C262.73 333.645 261.89 334.593 261.957 335.695C262.023 336.798 262.971 337.637 264.074 337.571L263.953 335.574L263.832 333.578ZM287.713 336.203C288.816 336.14 289.659 335.196 289.597 334.093C289.534 332.99 288.589 332.147 287.487 332.209L287.6 334.206L287.713 336.203ZM311.115 330.823C310.012 330.892 309.174 331.841 309.243 332.943C309.312 334.046 310.261 334.884 311.363 334.815L311.239 332.819L311.115 330.823ZM334.996 333.176C336.097 333.09 336.92 332.127 336.833 331.026C336.747 329.925 335.784 329.102 334.683 329.188L334.84 331.182L334.996 333.176ZM358.2 327.03C357.102 327.148 356.307 328.134 356.426 329.233C356.544 330.331 357.53 331.125 358.628 331.007L358.414 329.019L358.2 327.03ZM382.251 327.948C383.342 327.779 384.09 326.757 383.921 325.666C383.752 324.574 382.73 323.826 381.639 323.995L381.945 325.972L382.251 327.948ZM404.738 319.635C403.661 319.88 402.987 320.953 403.233 322.03C403.479 323.106 404.551 323.78 405.628 323.534L405.183 321.584L404.738 319.635ZM428.612 317.056C429.657 316.696 430.211 315.557 429.85 314.513C429.49 313.469 428.351 312.915 427.307 313.275L427.96 315.166L428.612 317.056ZM448.69 304.01C447.719 304.536 447.359 305.75 447.885 306.721C448.412 307.692 449.626 308.053 450.597 307.526L449.643 305.768L448.69 304.01ZM470.336 293.72C471.155 292.977 471.216 291.713 470.474 290.894C469.732 290.076 468.467 290.015 467.649 290.757L468.993 292.238L470.336 293.72ZM482.2 273.033C481.636 273.983 481.948 275.21 482.898 275.774C483.848 276.339 485.075 276.026 485.639 275.077L483.92 274.055L482.2 273.033ZM494.838 252.707C495.115 251.638 494.472 250.546 493.403 250.27C492.334 249.993 491.242 250.635 490.965 251.704L492.902 252.206L494.838 252.707ZM494.216 228.887C494.169 229.99 495.026 230.923 496.13 230.969C497.233 231.016 498.166 230.159 498.212 229.055L496.214 228.971L494.216 228.887ZM497.158 204.426C497.018 203.331 496.016 202.556 494.92 202.697C493.824 202.837 493.05 203.839 493.19 204.935L495.174 204.681L497.158 204.426ZM488.361 181.109C488.65 182.175 489.748 182.805 490.814 182.516C491.88 182.226 492.51 181.128 492.221 180.062L490.291 180.585L488.361 181.109ZM484.491 156.54C484.096 155.508 482.94 154.992 481.909 155.386C480.877 155.781 480.36 156.937 480.755 157.969L482.623 157.254L484.491 156.54ZM471.126 135.51C471.598 136.509 472.791 136.935 473.789 136.463C474.788 135.991 475.215 134.799 474.743 133.801L472.935 134.655L471.126 135.51ZM463.494 111.805C462.963 110.837 461.747 110.482 460.779 111.013C459.81 111.545 459.456 112.761 459.987 113.729L461.741 112.767L463.494 111.805ZM447.671 92.5736C448.249 93.5146 449.481 93.8085 450.422 93.23C451.363 92.6516 451.657 91.4198 451.078 90.4788L449.375 91.5262L447.671 92.5736ZM437.7 69.7298C437.082 68.814 435.839 68.5721 434.923 69.1896C434.007 69.8072 433.766 71.0502 434.383 71.966L436.041 70.8479L437.7 69.7298ZM420.3 51.9087C420.952 52.8009 422.203 52.9963 423.095 52.3452C423.987 51.694 424.183 50.4428 423.532 49.5506L421.916 50.7296L420.3 51.9087ZM408.637 29.8754C407.955 29.0065 406.697 28.8549 405.828 29.5368C404.959 30.2187 404.808 31.476 405.49 32.3449L407.063 31.1101L408.637 29.8754ZM390.008 13.3352C390.722 14.1781 391.984 14.2826 392.827 13.5687C393.67 12.8547 393.775 11.5927 393.061 10.7499L391.535 12.0426L390.008 13.3352ZM324.779 1075.33L326.424 1076.46L333.968 1065.55L332.323 1064.41L330.677 1063.27L323.134 1074.19L324.779 1075.33ZM347.41 1042.57L349.055 1043.71L364.142 1021.88L362.497 1020.74L360.852 1019.6L345.764 1041.44L347.41 1042.57ZM377.584 998.907L379.23 1000.04L394.317 978.21L392.671 977.073L391.026 975.936L375.939 997.77L377.584 998.907ZM407.759 955.239L409.404 956.376L424.491 934.542L422.846 933.405L421.2 932.268L406.113 954.102L407.759 955.239ZM437.933 911.571L439.578 912.708L447.122 901.791L445.477 900.654L443.831 899.517L436.288 910.434L437.933 911.571ZM445.477 900.654L447.318 901.434C448.887 897.729 450.319 893.953 451.613 890.117L449.718 889.477L447.823 888.838C446.561 892.581 445.164 896.263 443.635 899.874L445.477 900.654ZM455.71 866.344L457.676 866.708C459.138 858.817 460.065 850.784 460.454 842.698L458.457 842.602L456.459 842.506C456.079 850.414 455.171 858.268 453.743 865.98L455.71 866.344ZM458.02 818.704L460.013 818.535C459.332 810.509 458.117 802.516 456.362 794.642L454.41 795.077L452.458 795.512C454.173 803.208 455.361 811.023 456.027 818.873L458.02 818.704ZM447.599 772.169L449.471 771.465C446.629 763.915 443.24 756.569 439.297 749.515L437.552 750.49L435.806 751.466C439.648 758.34 442.953 765.504 445.727 772.874L447.599 772.169ZM424.288 730.623L425.857 729.382C420.882 723.094 415.366 717.175 409.302 711.707L407.962 713.192L406.623 714.677C412.517 719.991 417.88 725.747 422.719 731.864L424.288 730.623ZM388.931 698.771L389.999 697.08C383.321 692.864 376.163 689.116 368.52 685.905L367.745 687.748L366.97 689.592C374.41 692.718 381.372 696.364 387.863 700.462L388.931 698.771ZM345.043 680.229L345.527 678.289C337.98 676.406 330.056 674.99 321.754 674.087L321.538 676.075L321.321 678.063C329.448 678.948 337.193 680.332 344.559 682.17L345.043 680.229ZM297.692 674.93L297.673 672.93C289.931 673.004 281.909 673.487 273.606 674.407L273.826 676.395L274.047 678.383C282.222 677.477 290.109 677.002 297.711 676.93L297.692 674.93ZM250.15 680.085L249.76 678.123C242.196 679.629 234.424 681.476 226.443 683.681L226.976 685.608L227.508 687.536C235.4 685.356 243.077 683.532 250.541 682.047L250.15 680.085ZM204.175 692.706L203.522 690.815C199.749 692.118 195.932 693.497 192.073 694.954L192.779 696.825L193.486 698.696C197.31 697.253 201.091 695.886 204.828 694.596L204.175 692.706ZM192.779 696.825L192.073 694.954C188.231 696.405 184.389 697.631 180.555 698.64L181.065 700.574L181.574 702.508C185.543 701.463 189.516 700.195 193.486 698.696L192.779 696.825ZM156.783 704.22L156.705 702.221C148.584 702.537 140.549 701.938 132.665 700.507L132.308 702.475L131.95 704.442C140.113 705.924 148.439 706.545 156.86 706.218L156.783 704.22ZM108.736 695.632L109.481 693.776C102.074 690.802 94.872 687.096 87.9391 682.737L86.8745 684.43L85.8098 686.123C92.9346 690.603 100.349 694.42 107.991 697.488L108.736 695.632ZM67.1943 669.718L68.512 668.214C62.5046 662.952 56.7952 657.174 51.4379 650.945L49.9215 652.249L48.4052 653.553C53.8809 659.92 59.7225 665.833 65.8766 671.223L67.1943 669.718ZM35.1549 632.606L36.8273 631.51C32.4232 624.794 28.3882 617.73 24.7687 610.376L22.9743 611.259L21.1799 612.142C24.8712 619.642 28.9875 626.849 33.4825 633.703L35.1549 632.606ZM13.4661 588.593L15.3534 587.931C12.6866 580.326 10.4511 572.505 8.68846 564.521L6.73548 564.952L4.78251 565.383C6.5801 573.526 8.85965 581.501 11.5788 589.255L13.4661 588.593ZM2.90318 540.679L4.89407 540.488C4.12665 532.474 3.84353 524.355 4.08249 516.181L2.08334 516.123L0.0841938 516.064C-0.159717 524.408 0.129333 532.693 0.912288 540.869L2.90318 540.679ZM4.35877 491.661L6.33427 491.973C7.58412 484.061 9.34995 476.141 11.6654 468.255L9.74645 467.692L7.82747 467.128C5.46282 475.182 3.65955 483.27 2.38326 491.349L4.35877 491.661ZM18.173 444.597L20.0042 445.401C21.6223 441.716 23.3713 438.048 25.2547 434.401L23.4776 433.483L21.7006 432.565C19.7787 436.287 17.9936 440.031 16.3418 443.793L18.173 444.597ZM23.4776 433.483L25.2547 434.401C27.0842 430.858 29.0282 427.452 31.0812 424.177L29.3866 423.115L27.6921 422.053C25.5796 425.422 23.5807 428.925 21.7006 432.565L23.4776 433.483ZM43.5658 404.281L45.0545 405.616C50.2869 399.785 55.9607 394.478 62.0277 389.644L60.7814 388.08L59.5351 386.516C53.3021 391.482 47.4648 396.94 42.0772 402.945L43.5658 404.281ZM80.3297 374.795L81.3322 376.525C88.0093 372.657 95.02 369.194 102.319 366.087L101.535 364.247L100.752 362.406C93.3173 365.572 86.1588 369.107 79.3272 373.064L80.3297 374.795ZM123.723 356.1L124.324 358.008C131.683 355.69 139.255 353.646 147.001 351.838L146.547 349.89L146.092 347.942C138.259 349.771 130.588 351.841 123.122 354.193L123.723 356.1ZM169.761 345.21L170.101 347.18C177.774 345.854 185.567 344.705 193.447 343.698L193.193 341.714L192.94 339.73C185.01 340.744 177.158 341.901 169.42 343.239L169.761 345.21ZM216.734 339.108L216.924 341.099C224.735 340.354 232.593 339.71 240.468 339.133L240.322 337.138L240.176 335.143C232.278 335.722 224.39 336.369 216.544 337.117L216.734 339.108ZM263.953 335.574L264.074 337.571C271.982 337.092 279.871 336.648 287.713 336.203L287.6 334.206L287.487 332.209C279.647 332.654 271.749 333.099 263.832 333.578L263.953 335.574ZM311.239 332.819L311.363 334.815C319.34 334.319 327.231 333.785 334.996 333.176L334.84 331.182L334.683 329.188C326.946 329.795 319.079 330.327 311.115 330.823L311.239 332.819ZM358.414 329.019L358.628 331.007C366.705 330.137 374.595 329.134 382.251 327.948L381.945 325.972L381.639 323.995C374.055 325.17 366.227 326.166 358.2 327.03L358.414 329.019ZM405.183 321.584L405.628 323.534C413.667 321.699 421.352 319.563 428.612 317.056L427.96 315.166L427.307 313.275C420.205 315.728 412.661 317.825 404.738 319.635L405.183 321.584ZM449.643 305.768L450.597 307.526C457.882 303.576 464.502 299.013 470.336 293.72L468.993 292.238L467.649 290.757C462.083 295.807 455.734 300.191 448.69 304.01L449.643 305.768ZM483.92 274.055L485.639 275.077C489.599 268.412 492.695 260.985 494.838 252.707L492.902 252.206L490.965 251.704C488.912 259.635 485.958 266.709 482.2 273.033L483.92 274.055ZM496.214 228.971L498.212 229.055C498.378 225.128 498.38 221.053 498.212 216.824L496.214 216.904L494.215 216.983C494.379 221.109 494.377 225.074 494.216 228.887L496.214 228.971ZM496.214 216.904L498.212 216.824C498.049 212.73 497.692 208.593 497.158 204.426L495.174 204.681L493.19 204.935C493.711 208.994 494.058 213.014 494.215 216.983L496.214 216.904ZM490.291 180.585L492.221 180.062C490.097 172.233 487.485 164.368 484.491 156.54L482.623 157.254L480.755 157.969C483.707 165.689 486.276 173.425 488.361 181.109L490.291 180.585ZM472.935 134.655L474.743 133.801C471.223 126.353 467.441 119 463.494 111.805L461.741 112.767L459.987 113.729C463.9 120.861 467.645 128.143 471.126 135.51L472.935 134.655ZM449.375 91.5262L451.078 90.4788C446.66 83.2911 442.163 76.3495 437.7 69.7298L436.041 70.8479L434.383 71.966C438.818 78.5439 443.284 85.4382 447.671 92.5736L449.375 91.5262ZM421.916 50.7296L423.532 49.5506C418.262 42.3308 413.227 35.7248 408.637 29.8754L407.063 31.1101L405.49 32.3449C410.055 38.1616 415.062 44.7303 420.3 51.9087L421.916 50.7296ZM391.535 12.0426L393.061 10.7499C390.543 7.77735 388.531 5.46339 387.146 3.89075C386.454 3.10442 385.918 2.50338 385.555 2.09798C385.374 1.89527 385.235 1.74148 385.142 1.63787C385.095 1.58607 385.059 1.54682 385.035 1.52028C385.023 1.50701 385.014 1.49691 385.008 1.49002C385.005 1.48657 385.002 1.48392 385.001 1.48208C385 1.48115 384.999 1.48043 384.999 1.47991C384.998 1.47965 384.998 1.47944 384.998 1.47928C384.998 1.4792 384.998 1.47911 384.998 1.47907C384.998 1.479 384.998 1.47895 383.519 2.82532C382.04 4.17169 382.04 4.17166 382.04 4.17164C382.04 4.17165 382.04 4.17164 382.04 4.17166C382.04 4.1717 382.04 4.17179 382.04 4.17193C382.04 4.17221 382.041 4.17269 382.041 4.17338C382.043 4.17474 382.045 4.17691 382.047 4.17987C382.053 4.1858 382.061 4.19492 382.072 4.20721C382.094 4.2318 382.128 4.26908 382.173 4.31889C382.263 4.41851 382.398 4.56826 382.576 4.76683C382.932 5.16399 383.459 5.75645 384.144 6.53389C385.513 8.0888 387.508 10.3835 390.008 13.3352L391.535 12.0426Z" fill="url(#paint0_linear_11_56)"/>
<defs>
<linearGradient id="paint0_linear_11_56" x1="215.784" y1="2.82532" x2="215.784" y2="1387.42" gradientUnits="userSpaceOnUse">
<stop stop-color="#F5E9C6"/>
<stop offset="1" stop-color="white"/>
</linearGradient>
</defs>
</svg>
