<svg width="765" height="384" viewBox="0 0 765 384" fill="none" xmlns="http://www.w3.org/2000/svg">
<rect width="763" height="384" fill="url(#paint0_linear_10_28)"/>
<path d="M436 185C436 208.748 414.957 228 389 228C363.043 228 342 208.748 342 185C342 161.252 363.043 142 389 142C414.957 142 436 161.252 436 185Z" fill="#D9D9D9"/>
<path d="M436 210C436 219.389 428.165 227 418.5 227C408.835 227 401 219.389 401 210C401 200.611 408.835 193 418.5 193C428.165 193 436 200.611 436 210Z" fill="white"/>
<path d="M362.567 239.64L361.439 244.84H363.695L362.567 239.64ZM360.853 237.384H364.281L367.137 249H364.603L364.178 247.081L360.956 247.096L360.531 249H357.997L360.853 237.384Z" fill="white"/>
<path d="M375.604 239.786L373.363 249H369.92L367.665 239.786H370.082L371.634 246.451L373.187 239.786H375.604Z" fill="white"/>
<path d="M385.55 249H383.25V248.004C382.547 248.766 381.654 249.146 380.57 249.146C379.212 249.146 378.128 248.6 377.318 247.506C376.654 246.607 376.322 245.567 376.322 244.386C376.322 243.097 376.703 241.993 377.464 241.075C378.275 240.128 379.31 239.649 380.57 239.64C381.673 239.649 382.567 240.025 383.25 240.768V239.786H385.55V249ZM383.25 244.4C383.25 243.512 382.972 242.818 382.416 242.32C382.015 241.969 381.537 241.793 380.98 241.793C380.091 241.793 379.442 242.193 379.032 242.994C378.817 243.424 378.709 243.893 378.709 244.4C378.709 245.27 378.983 245.953 379.53 246.451C379.93 246.812 380.414 246.993 380.98 246.993C381.869 246.993 382.518 246.593 382.928 245.792C383.143 245.372 383.25 244.908 383.25 244.4Z" fill="white"/>
<path d="M390.985 247.008L391 249.234C389.974 249.234 389.139 248.902 388.495 248.238C387.918 247.643 387.63 246.896 387.63 245.997V242.042H386.883V239.801H387.63V237.75H390.018V239.801H390.985V242.042H390.018V246.07C390.018 246.52 390.223 246.812 390.633 246.949C390.75 246.988 390.868 247.008 390.985 247.008Z" fill="white"/>
<path d="M401.268 249H398.968V248.004C398.265 248.766 397.372 249.146 396.288 249.146C394.93 249.146 393.846 248.6 393.036 247.506C392.372 246.607 392.04 245.567 392.04 244.386C392.04 243.097 392.42 241.993 393.182 241.075C393.993 240.128 395.028 239.649 396.288 239.64C397.391 239.649 398.285 240.025 398.968 240.768V239.786H401.268V249ZM398.968 244.4C398.968 243.512 398.69 242.818 398.133 242.32C397.733 241.969 397.254 241.793 396.698 241.793C395.809 241.793 395.16 242.193 394.75 242.994C394.535 243.424 394.427 243.893 394.427 244.4C394.427 245.27 394.701 245.953 395.248 246.451C395.648 246.812 396.131 246.993 396.698 246.993C397.586 246.993 398.236 246.593 398.646 245.792C398.861 245.372 398.968 244.908 398.968 244.4Z" fill="white"/>
<path d="M402.894 239.786H405.208V240.694C405.853 239.991 406.664 239.64 407.64 239.64L407.318 241.778C406.488 241.778 405.882 242.184 405.501 242.994C405.306 243.414 405.208 243.873 405.208 244.371V249H402.894V239.786Z" fill="white"/>
<path d="M415.785 239.479C415.199 239.498 414.769 239.762 414.496 240.27L412.284 239.112C412.831 238.224 413.636 237.643 414.701 237.369C415.062 237.281 415.433 237.237 415.814 237.237C416.937 237.237 417.894 237.628 418.685 238.409C419.447 239.171 419.828 240.094 419.828 241.178C419.828 242.389 419.256 243.517 418.114 244.562C417.909 244.747 417.328 245.216 416.371 245.968C415.97 246.28 415.663 246.544 415.448 246.759H419.491V249H412.459V246.759C413.045 246.153 413.915 245.396 415.067 244.488C415.907 243.824 416.468 243.292 416.751 242.892C417.113 242.364 417.293 241.769 417.293 241.104C417.293 240.343 417 239.84 416.415 239.596C416.219 239.518 416.009 239.479 415.785 239.479Z" fill="white"/>
<path d="M333.866 258.479C333.28 258.498 332.851 258.762 332.577 259.27L330.365 258.112C330.912 257.224 331.718 256.643 332.782 256.369C333.144 256.281 333.515 256.237 333.896 256.237C335.019 256.237 335.976 256.628 336.767 257.409C337.528 258.171 337.909 259.094 337.909 260.178C337.909 261.389 337.338 262.517 336.195 263.562C335.99 263.747 335.409 264.216 334.452 264.968C334.052 265.28 333.744 265.544 333.529 265.759H337.572V268H330.541V265.759C331.127 265.153 331.996 264.396 333.148 263.488C333.988 262.824 334.55 262.292 334.833 261.892C335.194 261.364 335.375 260.769 335.375 260.104C335.375 259.343 335.082 258.84 334.496 258.596C334.301 258.518 334.091 258.479 333.866 258.479Z" fill="white"/>
<path d="M347.006 260.075V264.396C347.006 265.773 346.479 266.818 345.424 267.531C344.73 268 343.935 268.234 343.036 268.234C341.874 268.234 340.912 267.868 340.15 267.136C339.428 266.423 339.066 265.51 339.066 264.396V260.075C339.066 258.708 339.594 257.668 340.648 256.955C341.352 256.477 342.152 256.237 343.051 256.237C344.213 256.237 345.175 256.604 345.937 257.336C346.649 258.049 347.006 258.962 347.006 260.075ZM341.454 260.002V264.47C341.454 265.134 341.747 265.598 342.333 265.861C342.558 265.959 342.797 266.008 343.051 266.008C343.646 266.008 344.091 265.783 344.384 265.334C344.54 265.08 344.618 264.792 344.618 264.47V260.002C344.618 259.328 344.325 258.869 343.739 258.625C343.515 258.527 343.28 258.479 343.036 258.479C342.431 258.479 341.981 258.703 341.688 259.152C341.532 259.396 341.454 259.68 341.454 260.002Z" fill="white"/>
<path d="M356.308 260.075V264.396C356.308 265.773 355.78 266.818 354.726 267.531C354.032 268 353.236 268.234 352.338 268.234C351.176 268.234 350.214 267.868 349.452 267.136C348.729 266.423 348.368 265.51 348.368 264.396V260.075C348.368 258.708 348.896 257.668 349.95 256.955C350.653 256.477 351.454 256.237 352.353 256.237C353.515 256.237 354.477 256.604 355.238 257.336C355.951 258.049 356.308 258.962 356.308 260.075ZM350.756 260.002V264.47C350.756 265.134 351.049 265.598 351.635 265.861C351.859 265.959 352.099 266.008 352.353 266.008C352.948 266.008 353.393 265.783 353.686 265.334C353.842 265.08 353.92 264.792 353.92 264.47V260.002C353.92 259.328 353.627 258.869 353.041 258.625C352.816 258.527 352.582 258.479 352.338 258.479C351.732 258.479 351.283 258.703 350.99 259.152C350.834 259.396 350.756 259.68 350.756 260.002Z" fill="white"/>
<path d="M357.699 256.384H360.087V261.906L362.182 258.786H364.73L361.728 263.034L365.199 268H362.533L360.087 264.396V268H357.699V256.384Z" fill="white"/>
<path d="M373.241 258.479C372.821 258.479 372.499 258.659 372.274 259.021C372.167 259.206 372.113 259.401 372.113 259.606C372.113 259.958 372.406 260.271 372.992 260.544C373.139 260.612 373.393 260.71 373.754 260.837C374.76 261.228 375.473 261.599 375.893 261.95C376.586 262.565 376.933 263.376 376.933 264.382C376.933 265.456 376.508 266.369 375.658 267.121C374.877 267.805 373.969 268.146 372.934 268.146C371.664 268.146 370.629 267.717 369.828 266.857C369.662 266.672 369.516 266.477 369.389 266.271L371.615 265.114C371.928 265.632 372.357 265.9 372.904 265.92C373.441 265.92 373.856 265.695 374.149 265.246C374.315 264.982 374.398 264.704 374.398 264.411C374.398 263.903 374.081 263.508 373.446 263.225C373.261 263.137 372.953 263.02 372.523 262.873C371.576 262.561 370.912 262.243 370.531 261.921C369.896 261.374 369.579 260.612 369.579 259.636C369.579 258.64 369.979 257.805 370.78 257.131C371.483 256.535 372.289 256.237 373.197 256.237C374.359 256.237 375.307 256.633 376.039 257.424C376.283 257.688 376.474 257.971 376.61 258.273L374.164 258.991C373.91 258.688 373.603 258.518 373.241 258.479Z" fill="white"/>
<path d="M385.81 267.854H383.495V267.253C382.938 267.751 382.265 268 381.474 268C380.302 268 379.374 267.512 378.69 266.535C378.192 265.803 377.943 264.968 377.943 264.03V258.64H380.331V264.03C380.331 264.743 380.556 265.266 381.005 265.598C381.239 265.773 381.513 265.861 381.825 265.861C382.528 265.861 383.026 265.539 383.319 264.895C383.437 264.621 383.495 264.333 383.495 264.03V258.64H385.81V267.854Z" fill="white"/>
<path d="M387.436 256.003H389.75V259.782C390.453 259.021 391.342 258.64 392.416 258.64C393.773 258.64 394.862 259.187 395.683 260.28C396.347 261.188 396.679 262.233 396.679 263.415C396.679 264.704 396.298 265.803 395.536 266.711C394.716 267.658 393.676 268.137 392.416 268.146C391.322 268.137 390.434 267.761 389.75 267.019V268H387.436V256.003ZM389.75 263.4C389.75 264.279 390.028 264.968 390.585 265.466C390.976 265.817 391.454 265.993 392.021 265.993C392.909 265.993 393.559 265.593 393.969 264.792C394.174 264.372 394.276 263.908 394.276 263.4C394.276 262.531 394.003 261.843 393.456 261.335C393.065 260.974 392.587 260.793 392.021 260.793C391.142 260.793 390.497 261.188 390.087 261.979C389.862 262.419 389.75 262.893 389.75 263.4Z" fill="white"/>
<path d="M400.722 260.72C400.497 260.72 400.341 260.827 400.253 261.042C400.224 261.11 400.209 261.179 400.209 261.247C400.209 261.55 400.453 261.813 400.941 262.038C401.029 262.087 401.181 262.155 401.396 262.243C402.187 262.575 402.738 262.912 403.051 263.254C403.49 263.732 403.71 264.357 403.71 265.129C403.71 266.037 403.334 266.794 402.582 267.399C401.957 267.897 401.244 268.146 400.443 268.146C399.477 268.146 398.666 267.805 398.012 267.121C397.68 266.77 397.445 266.374 397.309 265.935L399.696 265.466C399.794 265.798 399.994 265.993 400.297 266.052C400.355 266.062 400.404 266.066 400.443 266.066C400.775 266.066 401.015 265.9 401.161 265.568C401.22 265.432 401.249 265.295 401.249 265.158C401.249 264.709 400.98 264.348 400.443 264.074C400.326 264.016 400.136 263.928 399.872 263.811C399.14 263.498 398.642 263.195 398.378 262.902C398.007 262.482 397.821 261.94 397.821 261.276C397.821 260.466 398.168 259.797 398.861 259.27C399.418 258.85 400.038 258.64 400.722 258.64C401.659 258.64 402.411 259.001 402.978 259.724C403.134 259.929 403.261 260.148 403.358 260.383L401.264 261.086C401.127 260.852 400.946 260.729 400.722 260.72Z" fill="white"/>
<path d="M413.48 265.539C412.963 266.701 412.113 267.482 410.932 267.883C410.414 268.059 409.857 268.146 409.262 268.146C407.621 268.146 406.371 267.551 405.512 266.359C404.906 265.51 404.604 264.528 404.604 263.415C404.604 262.087 405.009 260.969 405.819 260.061C406.688 259.113 407.836 258.64 409.262 258.64C410.863 258.64 412.104 259.23 412.982 260.412C413.168 260.666 413.329 260.939 413.466 261.232L411.21 261.994C410.771 261.203 410.121 260.803 409.262 260.793C408.383 260.793 407.738 261.188 407.328 261.979C407.104 262.419 406.991 262.893 406.991 263.4C406.991 264.279 407.27 264.968 407.826 265.466C408.227 265.817 408.705 265.993 409.262 265.993C410.15 265.983 410.8 265.578 411.21 264.777L413.48 265.539Z" fill="white"/>
<path d="M414.623 258.786H416.938V259.694C417.582 258.991 418.393 258.64 419.369 258.64L419.047 260.778C418.217 260.778 417.611 261.184 417.23 261.994C417.035 262.414 416.938 262.873 416.938 263.371V268H414.623V258.786Z" fill="white"/>
<path d="M420.453 258.786H422.768V268H420.453V258.786ZM420.453 256.003H422.768V257.746H420.453V256.003Z" fill="white"/>
<path d="M424.394 256.003H426.708V259.782C427.411 259.021 428.3 258.64 429.374 258.64C430.731 258.64 431.82 259.187 432.641 260.28C433.305 261.188 433.637 262.233 433.637 263.415C433.637 264.704 433.256 265.803 432.494 266.711C431.674 267.658 430.634 268.137 429.374 268.146C428.28 268.137 427.392 267.761 426.708 267.019V268H424.394V256.003ZM426.708 263.4C426.708 264.279 426.986 264.968 427.543 265.466C427.934 265.817 428.412 265.993 428.979 265.993C429.867 265.993 430.517 265.593 430.927 264.792C431.132 264.372 431.234 263.908 431.234 263.4C431.234 262.531 430.961 261.843 430.414 261.335C430.023 260.974 429.545 260.793 428.979 260.793C428.1 260.793 427.455 261.188 427.045 261.979C426.82 262.419 426.708 262.893 426.708 263.4Z" fill="white"/>
<path d="M443.319 265.539C442.802 266.701 441.952 267.482 440.771 267.883C440.253 268.059 439.696 268.146 439.101 268.146C437.46 268.146 436.21 267.551 435.351 266.359C434.745 265.51 434.442 264.528 434.442 263.415C434.442 262.087 434.848 260.969 435.658 260.061C436.527 259.113 437.675 258.64 439.101 258.64C440.683 258.64 441.889 259.235 442.719 260.427C443.314 261.276 443.612 262.263 443.612 263.386C443.612 263.747 443.588 264.05 443.539 264.294H436.962C437.187 265.114 437.655 265.642 438.368 265.876C438.603 265.954 438.847 265.993 439.101 265.993C439.989 265.983 440.639 265.578 441.049 264.777L443.319 265.539ZM437.094 262.141H441.107C440.736 261.301 440.126 260.852 439.276 260.793C439.208 260.793 439.149 260.793 439.101 260.793C438.192 260.793 437.538 261.213 437.138 262.053C437.118 262.092 437.104 262.121 437.094 262.141Z" fill="white"/>
<path d="M444.813 258.786H447.128V259.694C447.772 258.991 448.583 258.64 449.56 258.64L449.237 260.778C448.407 260.778 447.802 261.184 447.421 261.994C447.226 262.414 447.128 262.873 447.128 263.371V268H444.813V258.786Z" fill="white"/>
<path d="M453.485 260.72C453.261 260.72 453.104 260.827 453.017 261.042C452.987 261.11 452.973 261.179 452.973 261.247C452.973 261.55 453.217 261.813 453.705 262.038C453.793 262.087 453.944 262.155 454.159 262.243C454.95 262.575 455.502 262.912 455.814 263.254C456.254 263.732 456.474 264.357 456.474 265.129C456.474 266.037 456.098 266.794 455.346 267.399C454.721 267.897 454.008 268.146 453.207 268.146C452.24 268.146 451.43 267.805 450.775 267.121C450.443 266.77 450.209 266.374 450.072 265.935L452.46 265.466C452.558 265.798 452.758 265.993 453.061 266.052C453.119 266.062 453.168 266.066 453.207 266.066C453.539 266.066 453.778 265.9 453.925 265.568C453.983 265.432 454.013 265.295 454.013 265.158C454.013 264.709 453.744 264.348 453.207 264.074C453.09 264.016 452.899 263.928 452.636 263.811C451.903 263.498 451.405 263.195 451.142 262.902C450.771 262.482 450.585 261.94 450.585 261.276C450.585 260.466 450.932 259.797 451.625 259.27C452.182 258.85 452.802 258.64 453.485 258.64C454.423 258.64 455.175 259.001 455.741 259.724C455.897 259.929 456.024 260.148 456.122 260.383L454.027 261.086C453.891 260.852 453.71 260.729 453.485 260.72Z" fill="white"/>
<path d="M225.635 185C225.635 208.748 204.592 228 178.635 228C152.677 228 131.635 208.748 131.635 185C131.635 161.252 152.677 142 178.635 142C204.592 142 225.635 161.252 225.635 185Z" fill="#D9D9D9"/>
<path d="M225.635 210C225.635 219.389 217.8 227 208.135 227C198.47 227 190.635 219.389 190.635 210C190.635 200.611 198.47 193 208.135 193C217.8 193 225.635 200.611 225.635 210Z" fill="white"/>
<path d="M152.202 239.64L151.074 244.84H153.33L152.202 239.64ZM150.488 237.384H153.916L156.772 249H154.238L153.813 247.081L150.59 247.096L150.166 249H147.631L150.488 237.384Z" fill="white"/>
<path d="M165.239 239.786L162.998 249H159.555L157.299 239.786H159.716L161.269 246.451L162.822 239.786H165.239Z" fill="white"/>
<path d="M175.185 249H172.885V248.004C172.182 248.766 171.289 249.146 170.205 249.146C168.847 249.146 167.763 248.6 166.953 247.506C166.289 246.607 165.957 245.567 165.957 244.386C165.957 243.097 166.337 241.993 167.099 241.075C167.91 240.128 168.945 239.649 170.205 239.64C171.308 239.649 172.202 240.025 172.885 240.768V239.786H175.185V249ZM172.885 244.4C172.885 243.512 172.607 242.818 172.05 242.32C171.65 241.969 171.171 241.793 170.615 241.793C169.726 241.793 169.077 242.193 168.667 242.994C168.452 243.424 168.344 243.893 168.344 244.4C168.344 245.27 168.618 245.953 169.165 246.451C169.565 246.812 170.048 246.993 170.615 246.993C171.503 246.993 172.153 246.593 172.563 245.792C172.778 245.372 172.885 244.908 172.885 244.4Z" fill="white"/>
<path d="M180.62 247.008L180.634 249.234C179.609 249.234 178.774 248.902 178.129 248.238C177.553 247.643 177.265 246.896 177.265 245.997V242.042H176.518V239.801H177.265V237.75H179.653V239.801H180.62V242.042H179.653V246.07C179.653 246.52 179.858 246.812 180.268 246.949C180.385 246.988 180.502 247.008 180.62 247.008Z" fill="white"/>
<path d="M190.903 249H188.603V248.004C187.9 248.766 187.006 249.146 185.922 249.146C184.565 249.146 183.481 248.6 182.67 247.506C182.006 246.607 181.674 245.567 181.674 244.386C181.674 243.097 182.055 241.993 182.817 241.075C183.627 240.128 184.663 239.649 185.922 239.64C187.026 239.649 187.919 240.025 188.603 240.768V239.786H190.903V249ZM188.603 244.4C188.603 243.512 188.325 242.818 187.768 242.32C187.368 241.969 186.889 241.793 186.333 241.793C185.444 241.793 184.794 242.193 184.384 242.994C184.169 243.424 184.062 243.893 184.062 244.4C184.062 245.27 184.335 245.953 184.882 246.451C185.283 246.812 185.766 246.993 186.333 246.993C187.221 246.993 187.871 246.593 188.281 245.792C188.496 245.372 188.603 244.908 188.603 244.4Z" fill="white"/>
<path d="M192.529 239.786H194.843V240.694C195.488 239.991 196.298 239.64 197.275 239.64L196.953 241.778C196.123 241.778 195.517 242.184 195.136 242.994C194.941 243.414 194.843 243.873 194.843 244.371V249H192.529V239.786Z" fill="white"/>
<path d="M205.419 239.479C204.833 239.498 204.404 239.762 204.13 240.27L201.918 239.112C202.465 238.224 203.271 237.643 204.335 237.369C204.697 237.281 205.068 237.237 205.449 237.237C206.572 237.237 207.529 237.628 208.32 238.409C209.082 239.171 209.462 240.094 209.462 241.178C209.462 242.389 208.891 243.517 207.749 244.562C207.543 244.747 206.962 245.216 206.005 245.968C205.605 246.28 205.297 246.544 205.083 246.759H209.125V249H202.094V246.759C202.68 246.153 203.549 245.396 204.702 244.488C205.542 243.824 206.103 243.292 206.386 242.892C206.748 242.364 206.928 241.769 206.928 241.104C206.928 240.343 206.635 239.84 206.049 239.596C205.854 239.518 205.644 239.479 205.419 239.479Z" fill="white"/>
<path d="M123.501 258.479C122.915 258.498 122.485 258.762 122.212 259.27L120 258.112C120.547 257.224 121.353 256.643 122.417 256.369C122.778 256.281 123.149 256.237 123.53 256.237C124.653 256.237 125.61 256.628 126.401 257.409C127.163 258.171 127.544 259.094 127.544 260.178C127.544 261.389 126.973 262.517 125.83 263.562C125.625 263.747 125.044 264.216 124.087 264.968C123.687 265.28 123.379 265.544 123.164 265.759H127.207V268H120.176V265.759C120.762 265.153 121.631 264.396 122.783 263.488C123.623 262.824 124.185 262.292 124.468 261.892C124.829 261.364 125.01 260.769 125.01 260.104C125.01 259.343 124.717 258.84 124.131 258.596C123.936 258.518 123.726 258.479 123.501 258.479Z" fill="white"/>
<path d="M136.641 260.075V264.396C136.641 265.773 136.113 266.818 135.059 267.531C134.365 268 133.569 268.234 132.671 268.234C131.509 268.234 130.547 267.868 129.785 267.136C129.062 266.423 128.701 265.51 128.701 264.396V260.075C128.701 258.708 129.229 257.668 130.283 256.955C130.986 256.477 131.787 256.237 132.686 256.237C133.848 256.237 134.81 256.604 135.571 257.336C136.284 258.049 136.641 258.962 136.641 260.075ZM131.089 260.002V264.47C131.089 265.134 131.382 265.598 131.968 265.861C132.192 265.959 132.432 266.008 132.686 266.008C133.281 266.008 133.726 265.783 134.019 265.334C134.175 265.08 134.253 264.792 134.253 264.47V260.002C134.253 259.328 133.96 258.869 133.374 258.625C133.149 258.527 132.915 258.479 132.671 258.479C132.065 258.479 131.616 258.703 131.323 259.152C131.167 259.396 131.089 259.68 131.089 260.002Z" fill="white"/>
<path d="M145.942 260.075V264.396C145.942 265.773 145.415 266.818 144.36 267.531C143.667 268 142.871 268.234 141.973 268.234C140.811 268.234 139.849 267.868 139.087 267.136C138.364 266.423 138.003 265.51 138.003 264.396V260.075C138.003 258.708 138.53 257.668 139.585 256.955C140.288 256.477 141.089 256.237 141.987 256.237C143.149 256.237 144.111 256.604 144.873 257.336C145.586 258.049 145.942 258.962 145.942 260.075ZM140.391 260.002V264.47C140.391 265.134 140.684 265.598 141.27 265.861C141.494 265.959 141.733 266.008 141.987 266.008C142.583 266.008 143.027 265.783 143.32 265.334C143.477 265.08 143.555 264.792 143.555 264.47V260.002C143.555 259.328 143.262 258.869 142.676 258.625C142.451 258.527 142.217 258.479 141.973 258.479C141.367 258.479 140.918 258.703 140.625 259.152C140.469 259.396 140.391 259.68 140.391 260.002Z" fill="white"/>
<path d="M147.334 256.384H149.722V261.906L151.816 258.786H154.365L151.362 263.034L154.834 268H152.168L149.722 264.396V268H147.334V256.384Z" fill="white"/>
<path d="M162.876 258.479C162.456 258.479 162.134 258.659 161.909 259.021C161.802 259.206 161.748 259.401 161.748 259.606C161.748 259.958 162.041 260.271 162.627 260.544C162.773 260.612 163.027 260.71 163.389 260.837C164.395 261.228 165.107 261.599 165.527 261.95C166.221 262.565 166.567 263.376 166.567 264.382C166.567 265.456 166.143 266.369 165.293 267.121C164.512 267.805 163.604 268.146 162.568 268.146C161.299 268.146 160.264 267.717 159.463 266.857C159.297 266.672 159.15 266.477 159.023 266.271L161.25 265.114C161.562 265.632 161.992 265.9 162.539 265.92C163.076 265.92 163.491 265.695 163.784 265.246C163.95 264.982 164.033 264.704 164.033 264.411C164.033 263.903 163.716 263.508 163.081 263.225C162.896 263.137 162.588 263.02 162.158 262.873C161.211 262.561 160.547 262.243 160.166 261.921C159.531 261.374 159.214 260.612 159.214 259.636C159.214 258.64 159.614 257.805 160.415 257.131C161.118 256.535 161.924 256.237 162.832 256.237C163.994 256.237 164.941 256.633 165.674 257.424C165.918 257.688 166.108 257.971 166.245 258.273L163.799 258.991C163.545 258.688 163.237 258.518 162.876 258.479Z" fill="white"/>
<path d="M175.444 267.854H173.13V267.253C172.573 267.751 171.899 268 171.108 268C169.937 268 169.009 267.512 168.325 266.535C167.827 265.803 167.578 264.968 167.578 264.03V258.64H169.966V264.03C169.966 264.743 170.19 265.266 170.64 265.598C170.874 265.773 171.147 265.861 171.46 265.861C172.163 265.861 172.661 265.539 172.954 264.895C173.071 264.621 173.13 264.333 173.13 264.03V258.64H175.444V267.854Z" fill="white"/>
<path d="M177.07 256.003H179.385V259.782C180.088 259.021 180.977 258.64 182.051 258.64C183.408 258.64 184.497 259.187 185.317 260.28C185.981 261.188 186.313 262.233 186.313 263.415C186.313 264.704 185.933 265.803 185.171 266.711C184.351 267.658 183.311 268.137 182.051 268.146C180.957 268.137 180.068 267.761 179.385 267.019V268H177.07V256.003ZM179.385 263.4C179.385 264.279 179.663 264.968 180.22 265.466C180.61 265.817 181.089 265.993 181.655 265.993C182.544 265.993 183.193 265.593 183.604 264.792C183.809 264.372 183.911 263.908 183.911 263.4C183.911 262.531 183.638 261.843 183.091 261.335C182.7 260.974 182.222 260.793 181.655 260.793C180.776 260.793 180.132 261.188 179.722 261.979C179.497 262.419 179.385 262.893 179.385 263.4Z" fill="white"/>
<path d="M190.356 260.72C190.132 260.72 189.976 260.827 189.888 261.042C189.858 261.11 189.844 261.179 189.844 261.247C189.844 261.55 190.088 261.813 190.576 262.038C190.664 262.087 190.815 262.155 191.03 262.243C191.821 262.575 192.373 262.912 192.686 263.254C193.125 263.732 193.345 264.357 193.345 265.129C193.345 266.037 192.969 266.794 192.217 267.399C191.592 267.897 190.879 268.146 190.078 268.146C189.111 268.146 188.301 267.805 187.646 267.121C187.314 266.77 187.08 266.374 186.943 265.935L189.331 265.466C189.429 265.798 189.629 265.993 189.932 266.052C189.99 266.062 190.039 266.066 190.078 266.066C190.41 266.066 190.649 265.9 190.796 265.568C190.854 265.432 190.884 265.295 190.884 265.158C190.884 264.709 190.615 264.348 190.078 264.074C189.961 264.016 189.771 263.928 189.507 263.811C188.774 263.498 188.276 263.195 188.013 262.902C187.642 262.482 187.456 261.94 187.456 261.276C187.456 260.466 187.803 259.797 188.496 259.27C189.053 258.85 189.673 258.64 190.356 258.64C191.294 258.64 192.046 259.001 192.612 259.724C192.769 259.929 192.896 260.148 192.993 260.383L190.898 261.086C190.762 260.852 190.581 260.729 190.356 260.72Z" fill="white"/>
<path d="M203.115 265.539C202.598 266.701 201.748 267.482 200.566 267.883C200.049 268.059 199.492 268.146 198.896 268.146C197.256 268.146 196.006 267.551 195.146 266.359C194.541 265.51 194.238 264.528 194.238 263.415C194.238 262.087 194.644 260.969 195.454 260.061C196.323 259.113 197.471 258.64 198.896 258.64C200.498 258.64 201.738 259.23 202.617 260.412C202.803 260.666 202.964 260.939 203.101 261.232L200.845 261.994C200.405 261.203 199.756 260.803 198.896 260.793C198.018 260.793 197.373 261.188 196.963 261.979C196.738 262.419 196.626 262.893 196.626 263.4C196.626 264.279 196.904 264.968 197.461 265.466C197.861 265.817 198.34 265.993 198.896 265.993C199.785 265.983 200.435 265.578 200.845 264.777L203.115 265.539Z" fill="white"/>
<path d="M204.258 258.786H206.572V259.694C207.217 258.991 208.027 258.64 209.004 258.64L208.682 260.778C207.852 260.778 207.246 261.184 206.865 261.994C206.67 262.414 206.572 262.873 206.572 263.371V268H204.258V258.786Z" fill="white"/>
<path d="M210.088 258.786H212.402V268H210.088V258.786ZM210.088 256.003H212.402V257.746H210.088V256.003Z" fill="white"/>
<path d="M214.028 256.003H216.343V259.782C217.046 259.021 217.935 258.64 219.009 258.64C220.366 258.64 221.455 259.187 222.275 260.28C222.939 261.188 223.271 262.233 223.271 263.415C223.271 264.704 222.891 265.803 222.129 266.711C221.309 267.658 220.269 268.137 219.009 268.146C217.915 268.137 217.026 267.761 216.343 267.019V268H214.028V256.003ZM216.343 263.4C216.343 264.279 216.621 264.968 217.178 265.466C217.568 265.817 218.047 265.993 218.613 265.993C219.502 265.993 220.151 265.593 220.562 264.792C220.767 264.372 220.869 263.908 220.869 263.4C220.869 262.531 220.596 261.843 220.049 261.335C219.658 260.974 219.18 260.793 218.613 260.793C217.734 260.793 217.09 261.188 216.68 261.979C216.455 262.419 216.343 262.893 216.343 263.4Z" fill="white"/>
<path d="M232.954 265.539C232.437 266.701 231.587 267.482 230.405 267.883C229.888 268.059 229.331 268.146 228.735 268.146C227.095 268.146 225.845 267.551 224.985 266.359C224.38 265.51 224.077 264.528 224.077 263.415C224.077 262.087 224.482 260.969 225.293 260.061C226.162 259.113 227.31 258.64 228.735 258.64C230.317 258.64 231.523 259.235 232.354 260.427C232.949 261.276 233.247 262.263 233.247 263.386C233.247 263.747 233.223 264.05 233.174 264.294H226.597C226.821 265.114 227.29 265.642 228.003 265.876C228.237 265.954 228.481 265.993 228.735 265.993C229.624 265.983 230.273 265.578 230.684 264.777L232.954 265.539ZM226.729 262.141H230.742C230.371 261.301 229.761 260.852 228.911 260.793C228.843 260.793 228.784 260.793 228.735 260.793C227.827 260.793 227.173 261.213 226.772 262.053C226.753 262.092 226.738 262.121 226.729 262.141Z" fill="white"/>
<path d="M234.448 258.786H236.763V259.694C237.407 258.991 238.218 258.64 239.194 258.64L238.872 260.778C238.042 260.778 237.437 261.184 237.056 261.994C236.86 262.414 236.763 262.873 236.763 263.371V268H234.448V258.786Z" fill="white"/>
<path d="M243.12 260.72C242.896 260.72 242.739 260.827 242.651 261.042C242.622 261.11 242.607 261.179 242.607 261.247C242.607 261.55 242.852 261.813 243.34 262.038C243.428 262.087 243.579 262.155 243.794 262.243C244.585 262.575 245.137 262.912 245.449 263.254C245.889 263.732 246.108 264.357 246.108 265.129C246.108 266.037 245.732 266.794 244.98 267.399C244.355 267.897 243.643 268.146 242.842 268.146C241.875 268.146 241.064 267.805 240.41 267.121C240.078 266.77 239.844 266.374 239.707 265.935L242.095 265.466C242.192 265.798 242.393 265.993 242.695 266.052C242.754 266.062 242.803 266.066 242.842 266.066C243.174 266.066 243.413 265.9 243.56 265.568C243.618 265.432 243.647 265.295 243.647 265.158C243.647 264.709 243.379 264.348 242.842 264.074C242.725 264.016 242.534 263.928 242.271 263.811C241.538 263.498 241.04 263.195 240.776 262.902C240.405 262.482 240.22 261.94 240.22 261.276C240.22 260.466 240.566 259.797 241.26 259.27C241.816 258.85 242.437 258.64 243.12 258.64C244.058 258.64 244.81 259.001 245.376 259.724C245.532 259.929 245.659 260.148 245.757 260.383L243.662 261.086C243.525 260.852 243.345 260.729 243.12 260.72Z" fill="white"/>
<path d="M646.635 184C646.635 207.748 625.592 227 599.635 227C573.677 227 552.635 207.748 552.635 184C552.635 160.252 573.677 141 599.635 141C625.592 141 646.635 160.252 646.635 184Z" fill="#D9D9D9"/>
<path d="M646.635 209C646.635 218.389 638.8 226 629.135 226C619.47 226 611.635 218.389 611.635 209C611.635 199.611 619.47 192 629.135 192C638.8 192 646.635 199.611 646.635 209Z" fill="white"/>
<path d="M573.319 238.64L572.191 243.84H574.447L573.319 238.64ZM571.605 236.384H575.033L577.889 248H575.355L574.93 246.081L571.708 246.096L571.283 248H568.749L571.605 236.384Z" fill="white"/>
<path d="M586.356 238.786L584.115 248H580.672L578.417 238.786H580.833L582.386 245.451L583.939 238.786H586.356Z" fill="white"/>
<path d="M596.302 248H594.002V247.004C593.299 247.766 592.406 248.146 591.322 248.146C589.964 248.146 588.88 247.6 588.07 246.506C587.406 245.607 587.074 244.567 587.074 243.386C587.074 242.097 587.455 240.993 588.216 240.075C589.027 239.128 590.062 238.649 591.322 238.64C592.425 238.649 593.319 239.025 594.002 239.768V238.786H596.302V248ZM594.002 243.4C594.002 242.512 593.724 241.818 593.167 241.32C592.767 240.969 592.289 240.793 591.732 240.793C590.843 240.793 590.194 241.193 589.784 241.994C589.569 242.424 589.461 242.893 589.461 243.4C589.461 244.27 589.735 244.953 590.282 245.451C590.682 245.812 591.166 245.993 591.732 245.993C592.621 245.993 593.27 245.593 593.68 244.792C593.895 244.372 594.002 243.908 594.002 243.4Z" fill="white"/>
<path d="M601.737 246.008L601.751 248.234C600.726 248.234 599.891 247.902 599.247 247.238C598.67 246.643 598.382 245.896 598.382 244.997V241.042H597.635V238.801H598.382V236.75H600.77V238.801H601.737V241.042H600.77V245.07C600.77 245.52 600.975 245.812 601.385 245.949C601.502 245.988 601.62 246.008 601.737 246.008Z" fill="white"/>
<path d="M612.02 248H609.72V247.004C609.017 247.766 608.124 248.146 607.04 248.146C605.682 248.146 604.598 247.6 603.788 246.506C603.124 245.607 602.792 244.567 602.792 243.386C602.792 242.097 603.172 240.993 603.934 240.075C604.745 239.128 605.78 238.649 607.04 238.64C608.143 238.649 609.037 239.025 609.72 239.768V238.786H612.02V248ZM609.72 243.4C609.72 242.512 609.442 241.818 608.885 241.32C608.485 240.969 608.006 240.793 607.45 240.793C606.561 240.793 605.912 241.193 605.501 241.994C605.287 242.424 605.179 242.893 605.179 243.4C605.179 244.27 605.453 244.953 606 245.451C606.4 245.812 606.883 245.993 607.45 245.993C608.338 245.993 608.988 245.593 609.398 244.792C609.613 244.372 609.72 243.908 609.72 243.4Z" fill="white"/>
<path d="M613.646 238.786H615.96V239.694C616.605 238.991 617.416 238.64 618.392 238.64L618.07 240.778C617.24 240.778 616.634 241.184 616.253 241.994C616.058 242.414 615.96 242.873 615.96 243.371V248H613.646V238.786Z" fill="white"/>
<path d="M625.072 240.866H626.332C626.722 240.866 627.035 240.661 627.269 240.251C627.386 240.036 627.445 239.821 627.445 239.606C627.445 239.167 627.25 238.84 626.859 238.625C626.683 238.527 626.502 238.479 626.317 238.479C625.946 238.479 625.648 238.63 625.423 238.933C625.404 238.952 625.389 238.972 625.379 238.991L622.933 238.273C623.304 237.463 623.939 236.877 624.837 236.516C625.316 236.33 625.819 236.237 626.346 236.237C627.372 236.237 628.25 236.594 628.983 237.307C629.647 237.971 629.979 238.747 629.979 239.636C629.969 240.495 629.627 241.203 628.954 241.76C629.793 242.316 630.252 243.098 630.331 244.104C630.34 244.201 630.345 244.294 630.345 244.382C630.345 245.456 629.92 246.369 629.071 247.121C628.29 247.805 627.381 248.146 626.346 248.146C625.077 248.146 624.042 247.717 623.241 246.857C623.075 246.672 622.928 246.477 622.801 246.271L625.028 245.114C625.34 245.632 625.77 245.9 626.317 245.92C626.854 245.92 627.269 245.695 627.562 245.246C627.728 244.982 627.811 244.704 627.811 244.411C627.811 243.854 627.606 243.415 627.196 243.093C626.952 242.897 626.683 242.8 626.39 242.8H625.072V240.866Z" fill="white"/>
<path d="M544.501 257.479C543.915 257.498 543.485 257.762 543.212 258.27L541 257.112C541.547 256.224 542.353 255.643 543.417 255.369C543.778 255.281 544.149 255.237 544.53 255.237C545.653 255.237 546.61 255.628 547.401 256.409C548.163 257.171 548.544 258.094 548.544 259.178C548.544 260.389 547.973 261.517 546.83 262.562C546.625 262.747 546.044 263.216 545.087 263.968C544.687 264.28 544.379 264.544 544.164 264.759H548.207V267H541.176V264.759C541.762 264.153 542.631 263.396 543.783 262.488C544.623 261.824 545.185 261.292 545.468 260.892C545.829 260.364 546.01 259.769 546.01 259.104C546.01 258.343 545.717 257.84 545.131 257.596C544.936 257.518 544.726 257.479 544.501 257.479Z" fill="white"/>
<path d="M557.641 259.075V263.396C557.641 264.773 557.113 265.818 556.059 266.531C555.365 267 554.569 267.234 553.671 267.234C552.509 267.234 551.547 266.868 550.785 266.136C550.062 265.423 549.701 264.51 549.701 263.396V259.075C549.701 257.708 550.229 256.668 551.283 255.955C551.986 255.477 552.787 255.237 553.686 255.237C554.848 255.237 555.81 255.604 556.571 256.336C557.284 257.049 557.641 257.962 557.641 259.075ZM552.089 259.002V263.47C552.089 264.134 552.382 264.598 552.968 264.861C553.192 264.959 553.432 265.008 553.686 265.008C554.281 265.008 554.726 264.783 555.019 264.334C555.175 264.08 555.253 263.792 555.253 263.47V259.002C555.253 258.328 554.96 257.869 554.374 257.625C554.149 257.527 553.915 257.479 553.671 257.479C553.065 257.479 552.616 257.703 552.323 258.152C552.167 258.396 552.089 258.68 552.089 259.002Z" fill="white"/>
<path d="M566.942 259.075V263.396C566.942 264.773 566.415 265.818 565.36 266.531C564.667 267 563.871 267.234 562.973 267.234C561.811 267.234 560.849 266.868 560.087 266.136C559.364 265.423 559.003 264.51 559.003 263.396V259.075C559.003 257.708 559.53 256.668 560.585 255.955C561.288 255.477 562.089 255.237 562.987 255.237C564.149 255.237 565.111 255.604 565.873 256.336C566.586 257.049 566.942 257.962 566.942 259.075ZM561.391 259.002V263.47C561.391 264.134 561.684 264.598 562.27 264.861C562.494 264.959 562.733 265.008 562.987 265.008C563.583 265.008 564.027 264.783 564.32 264.334C564.477 264.08 564.555 263.792 564.555 263.47V259.002C564.555 258.328 564.262 257.869 563.676 257.625C563.451 257.527 563.217 257.479 562.973 257.479C562.367 257.479 561.918 257.703 561.625 258.152C561.469 258.396 561.391 258.68 561.391 259.002Z" fill="white"/>
<path d="M568.334 255.384H570.722V260.906L572.816 257.786H575.365L572.362 262.034L575.834 267H573.168L570.722 263.396V267H568.334V255.384Z" fill="white"/>
<path d="M583.876 257.479C583.456 257.479 583.134 257.659 582.909 258.021C582.802 258.206 582.748 258.401 582.748 258.606C582.748 258.958 583.041 259.271 583.627 259.544C583.773 259.612 584.027 259.71 584.389 259.837C585.395 260.228 586.107 260.599 586.527 260.95C587.221 261.565 587.567 262.376 587.567 263.382C587.567 264.456 587.143 265.369 586.293 266.121C585.512 266.805 584.604 267.146 583.568 267.146C582.299 267.146 581.264 266.717 580.463 265.857C580.297 265.672 580.15 265.477 580.023 265.271L582.25 264.114C582.562 264.632 582.992 264.9 583.539 264.92C584.076 264.92 584.491 264.695 584.784 264.246C584.95 263.982 585.033 263.704 585.033 263.411C585.033 262.903 584.716 262.508 584.081 262.225C583.896 262.137 583.588 262.02 583.158 261.873C582.211 261.561 581.547 261.243 581.166 260.921C580.531 260.374 580.214 259.612 580.214 258.636C580.214 257.64 580.614 256.805 581.415 256.131C582.118 255.535 582.924 255.237 583.832 255.237C584.994 255.237 585.941 255.633 586.674 256.424C586.918 256.688 587.108 256.971 587.245 257.273L584.799 257.991C584.545 257.688 584.237 257.518 583.876 257.479Z" fill="white"/>
<path d="M596.444 266.854H594.13V266.253C593.573 266.751 592.899 267 592.108 267C590.937 267 590.009 266.512 589.325 265.535C588.827 264.803 588.578 263.968 588.578 263.03V257.64H590.966V263.03C590.966 263.743 591.19 264.266 591.64 264.598C591.874 264.773 592.147 264.861 592.46 264.861C593.163 264.861 593.661 264.539 593.954 263.895C594.071 263.621 594.13 263.333 594.13 263.03V257.64H596.444V266.854Z" fill="white"/>
<path d="M598.07 255.003H600.385V258.782C601.088 258.021 601.977 257.64 603.051 257.64C604.408 257.64 605.497 258.187 606.317 259.28C606.981 260.188 607.313 261.233 607.313 262.415C607.313 263.704 606.933 264.803 606.171 265.711C605.351 266.658 604.311 267.137 603.051 267.146C601.957 267.137 601.068 266.761 600.385 266.019V267H598.07V255.003ZM600.385 262.4C600.385 263.279 600.663 263.968 601.22 264.466C601.61 264.817 602.089 264.993 602.655 264.993C603.544 264.993 604.193 264.593 604.604 263.792C604.809 263.372 604.911 262.908 604.911 262.4C604.911 261.531 604.638 260.843 604.091 260.335C603.7 259.974 603.222 259.793 602.655 259.793C601.776 259.793 601.132 260.188 600.722 260.979C600.497 261.419 600.385 261.893 600.385 262.4Z" fill="white"/>
<path d="M611.356 259.72C611.132 259.72 610.976 259.827 610.888 260.042C610.858 260.11 610.844 260.179 610.844 260.247C610.844 260.55 611.088 260.813 611.576 261.038C611.664 261.087 611.815 261.155 612.03 261.243C612.821 261.575 613.373 261.912 613.686 262.254C614.125 262.732 614.345 263.357 614.345 264.129C614.345 265.037 613.969 265.794 613.217 266.399C612.592 266.897 611.879 267.146 611.078 267.146C610.111 267.146 609.301 266.805 608.646 266.121C608.314 265.77 608.08 265.374 607.943 264.935L610.331 264.466C610.429 264.798 610.629 264.993 610.932 265.052C610.99 265.062 611.039 265.066 611.078 265.066C611.41 265.066 611.649 264.9 611.796 264.568C611.854 264.432 611.884 264.295 611.884 264.158C611.884 263.709 611.615 263.348 611.078 263.074C610.961 263.016 610.771 262.928 610.507 262.811C609.774 262.498 609.276 262.195 609.013 261.902C608.642 261.482 608.456 260.94 608.456 260.276C608.456 259.466 608.803 258.797 609.496 258.27C610.053 257.85 610.673 257.64 611.356 257.64C612.294 257.64 613.046 258.001 613.612 258.724C613.769 258.929 613.896 259.148 613.993 259.383L611.898 260.086C611.762 259.852 611.581 259.729 611.356 259.72Z" fill="white"/>
<path d="M624.115 264.539C623.598 265.701 622.748 266.482 621.566 266.883C621.049 267.059 620.492 267.146 619.896 267.146C618.256 267.146 617.006 266.551 616.146 265.359C615.541 264.51 615.238 263.528 615.238 262.415C615.238 261.087 615.644 259.969 616.454 259.061C617.323 258.113 618.471 257.64 619.896 257.64C621.498 257.64 622.738 258.23 623.617 259.412C623.803 259.666 623.964 259.939 624.101 260.232L621.845 260.994C621.405 260.203 620.756 259.803 619.896 259.793C619.018 259.793 618.373 260.188 617.963 260.979C617.738 261.419 617.626 261.893 617.626 262.4C617.626 263.279 617.904 263.968 618.461 264.466C618.861 264.817 619.34 264.993 619.896 264.993C620.785 264.983 621.435 264.578 621.845 263.777L624.115 264.539Z" fill="white"/>
<path d="M625.258 257.786H627.572V258.694C628.217 257.991 629.027 257.64 630.004 257.64L629.682 259.778C628.852 259.778 628.246 260.184 627.865 260.994C627.67 261.414 627.572 261.873 627.572 262.371V267H625.258V257.786Z" fill="white"/>
<path d="M631.088 257.786H633.402V267H631.088V257.786ZM631.088 255.003H633.402V256.746H631.088V255.003Z" fill="white"/>
<path d="M635.028 255.003H637.343V258.782C638.046 258.021 638.935 257.64 640.009 257.64C641.366 257.64 642.455 258.187 643.275 259.28C643.939 260.188 644.271 261.233 644.271 262.415C644.271 263.704 643.891 264.803 643.129 265.711C642.309 266.658 641.269 267.137 640.009 267.146C638.915 267.137 638.026 266.761 637.343 266.019V267H635.028V255.003ZM637.343 262.4C637.343 263.279 637.621 263.968 638.178 264.466C638.568 264.817 639.047 264.993 639.613 264.993C640.502 264.993 641.151 264.593 641.562 263.792C641.767 263.372 641.869 262.908 641.869 262.4C641.869 261.531 641.596 260.843 641.049 260.335C640.658 259.974 640.18 259.793 639.613 259.793C638.734 259.793 638.09 260.188 637.68 260.979C637.455 261.419 637.343 261.893 637.343 262.4Z" fill="white"/>
<path d="M653.954 264.539C653.437 265.701 652.587 266.482 651.405 266.883C650.888 267.059 650.331 267.146 649.735 267.146C648.095 267.146 646.845 266.551 645.985 265.359C645.38 264.51 645.077 263.528 645.077 262.415C645.077 261.087 645.482 259.969 646.293 259.061C647.162 258.113 648.31 257.64 649.735 257.64C651.317 257.64 652.523 258.235 653.354 259.427C653.949 260.276 654.247 261.263 654.247 262.386C654.247 262.747 654.223 263.05 654.174 263.294H647.597C647.821 264.114 648.29 264.642 649.003 264.876C649.237 264.954 649.481 264.993 649.735 264.993C650.624 264.983 651.273 264.578 651.684 263.777L653.954 264.539ZM647.729 261.141H651.742C651.371 260.301 650.761 259.852 649.911 259.793C649.843 259.793 649.784 259.793 649.735 259.793C648.827 259.793 648.173 260.213 647.772 261.053C647.753 261.092 647.738 261.121 647.729 261.141Z" fill="white"/>
<path d="M655.448 257.786H657.763V258.694C658.407 257.991 659.218 257.64 660.194 257.64L659.872 259.778C659.042 259.778 658.437 260.184 658.056 260.994C657.86 261.414 657.763 261.873 657.763 262.371V267H655.448V257.786Z" fill="white"/>
<path d="M664.12 259.72C663.896 259.72 663.739 259.827 663.651 260.042C663.622 260.11 663.607 260.179 663.607 260.247C663.607 260.55 663.852 260.813 664.34 261.038C664.428 261.087 664.579 261.155 664.794 261.243C665.585 261.575 666.137 261.912 666.449 262.254C666.889 262.732 667.108 263.357 667.108 264.129C667.108 265.037 666.732 265.794 665.98 266.399C665.355 266.897 664.643 267.146 663.842 267.146C662.875 267.146 662.064 266.805 661.41 266.121C661.078 265.77 660.844 265.374 660.707 264.935L663.095 264.466C663.192 264.798 663.393 264.993 663.695 265.052C663.754 265.062 663.803 265.066 663.842 265.066C664.174 265.066 664.413 264.9 664.56 264.568C664.618 264.432 664.647 264.295 664.647 264.158C664.647 263.709 664.379 263.348 663.842 263.074C663.725 263.016 663.534 262.928 663.271 262.811C662.538 262.498 662.04 262.195 661.776 261.902C661.405 261.482 661.22 260.94 661.22 260.276C661.22 259.466 661.566 258.797 662.26 258.27C662.816 257.85 663.437 257.64 664.12 257.64C665.058 257.64 665.81 258.001 666.376 258.724C666.532 258.929 666.659 259.148 666.757 259.383L664.662 260.086C664.525 259.852 664.345 259.729 664.12 259.72Z" fill="white"/>
<path d="M231.558 51.48C221.766 51.48 215.67 43.656 215.67 34.632C215.67 25.608 221.766 17.88 231.558 17.88C238.614 17.88 243.03 21.576 245.574 26.328L239.67 30.024C237.798 26.712 235.014 24.072 231.558 24.072C225.942 24.072 222.918 29.208 222.918 34.632C222.918 40.008 225.942 45.288 231.558 45.288C234.966 45.288 237.99 42.984 239.67 39.72L245.574 43.464C243.03 48.264 238.614 51.48 231.558 51.48ZM249.538 27.096H255.922V30.12C257.602 28.056 259.858 26.808 262.69 26.808C263.602 26.808 264.418 26.904 265.234 27.144V33.336C264.466 33.144 263.698 33.048 262.882 33.048C259.954 33.048 257.314 34.392 255.922 36.696V51H249.538V27.096ZM267.18 39C267.18 32.28 272.796 26.664 279.324 26.664C286.38 26.664 291.084 31.272 291.612 39.096C291.66 39.816 291.66 41.016 291.66 41.736H274.188C274.812 43.992 277.068 45.96 279.9 45.96C282.396 45.96 284.556 44.52 285.564 42.84L290.604 45.336C288.444 48.984 284.892 51.432 279.852 51.432C271.74 51.432 267.18 45.864 267.18 39ZM274.092 37.032H284.796C284.556 34.536 282.636 32.184 279.612 32.184C276.492 32.184 274.62 34.392 274.092 37.032ZM302.575 51.432C298.159 51.432 294.319 49.176 294.319 44.184C294.319 39.096 298.495 36.744 303.823 36.744L309.199 36.696V35.928C309.199 33.048 306.991 31.944 304.591 31.944C302.143 31.944 299.791 33.528 298.447 34.728L295.519 30.6C298.399 27.576 301.807 26.664 305.839 26.664C311.167 26.664 315.583 29.88 315.583 34.92V51H309.199V49.08C307.519 50.568 305.503 51.432 302.575 51.432ZM304.591 41.112C302.623 41.112 300.943 41.64 300.943 43.704C300.943 45.672 302.575 46.44 304.447 46.44C306.751 46.44 308.095 45.384 309.199 43.848V41.112H304.591ZM320.929 40.632V18.36H327.313V27.096H334.609V32.568H327.313V40.68C327.313 43.704 327.937 45.528 330.577 45.528C331.345 45.528 334.081 45.384 334.609 45.24V51C333.457 51.24 330.625 51.432 329.761 51.432C323.569 51.384 320.929 47.544 320.929 40.632ZM337.211 39C337.211 32.28 342.779 26.664 349.643 26.664C356.363 26.664 361.979 32.28 361.979 39C361.979 45.912 356.363 51.48 349.643 51.48C342.779 51.48 337.211 45.912 337.211 39ZM343.787 39C343.787 42.216 345.707 45.768 349.691 45.768C353.579 45.768 355.355 42.216 355.355 39C355.355 35.88 353.579 32.376 349.691 32.376C345.707 32.376 343.787 35.88 343.787 39ZM365.929 27.096H372.313V30.12C373.993 28.056 376.249 26.808 379.081 26.808C379.993 26.808 380.809 26.904 381.625 27.144V33.336C380.857 33.144 380.089 33.048 379.273 33.048C376.345 33.048 373.705 34.392 372.313 36.696V51H365.929V27.096ZM403.053 43.512C403.053 48.888 398.781 51.432 392.253 51.432C389.565 51.432 386.781 50.808 384.333 50.04V44.328C386.301 45.048 389.469 45.96 392.349 45.96C395.229 45.96 396.573 45.096 396.573 43.992C396.573 40.968 383.805 42.6 383.805 33.96C383.805 29.352 388.461 26.616 393.549 26.616C397.725 26.616 400.077 27.432 401.469 28.056V33.528C399.981 32.808 397.389 31.848 394.509 31.848C392.253 31.848 390.381 32.616 390.381 34.104C390.381 36.984 403.053 35.352 403.053 43.512ZM419.278 51V18.36H426.142V51H419.278ZM443.841 51V18.36H450.657V31.896H464.337V18.36H471.153V51H464.337V37.848H450.657V51H443.841ZM483.607 51.432C479.191 51.432 475.351 49.176 475.351 44.184C475.351 39.096 479.527 36.744 484.855 36.744L490.231 36.696V35.928C490.231 33.048 488.023 31.944 485.623 31.944C483.175 31.944 480.823 33.528 479.479 34.728L476.551 30.6C479.431 27.576 482.839 26.664 486.871 26.664C492.199 26.664 496.615 29.88 496.615 34.92V51H490.231V49.08C488.551 50.568 486.535 51.432 483.607 51.432ZM485.623 41.112C483.655 41.112 481.975 41.64 481.975 43.704C481.975 45.672 483.607 46.44 485.479 46.44C487.783 46.44 489.127 45.384 490.231 43.848V41.112H485.623ZM507.918 51L499.278 27.096H506.622L512.046 43.944L517.422 27.096H524.766L516.078 51H507.918ZM526.071 39C526.071 32.28 531.687 26.664 538.215 26.664C545.271 26.664 549.975 31.272 550.503 39.096C550.551 39.816 550.551 41.016 550.551 41.736H533.079C533.703 43.992 535.959 45.96 538.791 45.96C541.287 45.96 543.447 44.52 544.455 42.84L549.495 45.336C547.335 48.984 543.783 51.432 538.743 51.432C530.631 51.432 526.071 45.864 526.071 39ZM532.983 37.032H543.687C543.447 34.536 541.527 32.184 538.503 32.184C535.383 32.184 533.511 34.392 532.983 37.032ZM242.1 58.36L250.644 86.392L259.092 58.36H263.076L271.476 86.44L280.068 58.36H284.052L273.876 91H269.508L261.06 63.208L252.612 91H248.244L238.116 58.36H242.1ZM289.966 79.384C289.966 80.536 290.174 81.656 290.59 82.744C291.006 83.8 291.582 84.744 292.318 85.576C293.054 86.408 293.934 87.08 294.958 87.592C295.982 88.072 297.118 88.312 298.366 88.312C299.582 88.312 300.686 88.072 301.678 87.592C302.67 87.08 303.518 86.408 304.222 85.576C304.958 84.744 305.518 83.8 305.902 82.744C306.318 81.656 306.526 80.536 306.526 79.384C306.526 78.232 306.318 77.128 305.902 76.072C305.518 74.984 304.958 74.04 304.222 73.24C303.518 72.408 302.67 71.752 301.678 71.272C300.686 70.792 299.582 70.552 298.366 70.552C297.118 70.552 295.982 70.792 294.958 71.272C293.934 71.752 293.054 72.408 292.318 73.24C291.582 74.04 291.006 74.984 290.59 76.072C290.174 77.128 289.966 78.232 289.966 79.384ZM286.366 79.384C286.366 77.72 286.67 76.168 287.278 74.728C287.918 73.256 288.782 71.976 289.87 70.888C290.958 69.8 292.222 68.936 293.662 68.296C295.134 67.656 296.686 67.336 298.318 67.336C299.95 67.336 301.47 67.656 302.878 68.296C304.318 68.936 305.566 69.8 306.622 70.888C307.71 71.976 308.558 73.256 309.166 74.728C309.806 76.168 310.126 77.72 310.126 79.384C310.126 81.048 309.806 82.616 309.166 84.088C308.558 85.56 307.71 86.84 306.622 87.928C305.566 89.016 304.318 89.88 302.878 90.52C301.47 91.16 299.95 91.48 298.318 91.48C296.686 91.48 295.134 91.16 293.662 90.52C292.222 89.88 290.958 89.016 289.87 87.928C288.782 86.84 287.918 85.56 287.278 84.088C286.67 82.616 286.366 81.048 286.366 79.384ZM316.084 67.624H319.588V71.992C320.516 70.648 321.684 69.56 323.092 68.728C324.5 67.864 326.068 67.432 327.796 67.432C328.692 67.432 329.54 67.544 330.34 67.768V71.176C329.572 70.984 328.788 70.888 327.988 70.888C326.26 70.888 324.628 71.368 323.092 72.328C321.556 73.288 320.388 74.792 319.588 76.84V91H316.084V67.624ZM335.538 91V58.312H338.994V79.672L349.698 67.624H354.066L344.274 78.52L355.122 91H350.994L342.162 80.824L338.994 84.328V91H335.538ZM376.781 78.136C376.749 77.08 376.525 76.088 376.109 75.16C375.693 74.2 375.133 73.384 374.429 72.712C373.725 72.008 372.909 71.448 371.981 71.032C371.053 70.616 370.045 70.408 368.957 70.408C367.837 70.408 366.797 70.616 365.837 71.032C364.877 71.416 364.045 71.96 363.341 72.664C362.637 73.368 362.061 74.2 361.613 75.16C361.197 76.088 360.957 77.08 360.893 78.136H376.781ZM357.101 79.288C357.101 77.656 357.405 76.12 358.013 74.68C358.653 73.208 359.501 71.928 360.557 70.84C361.613 69.752 362.845 68.904 364.253 68.296C365.693 67.656 367.213 67.336 368.813 67.336C370.445 67.336 371.949 67.64 373.325 68.248C374.733 68.824 375.949 69.64 376.973 70.696C378.029 71.752 378.861 73.016 379.469 74.488C380.077 75.96 380.413 77.576 380.477 79.336V81.112H360.941C361.005 82.104 361.261 83.032 361.709 83.896C362.157 84.76 362.749 85.512 363.485 86.152C364.221 86.792 365.069 87.304 366.029 87.688C366.989 88.072 367.997 88.264 369.053 88.264C370.621 88.264 372.045 87.864 373.325 87.064C374.637 86.232 375.661 85.224 376.397 84.04L379.229 85.432C378.205 87.16 376.813 88.568 375.053 89.656C373.325 90.744 371.309 91.288 369.005 91.288C367.213 91.288 365.581 90.984 364.109 90.376C362.669 89.736 361.421 88.872 360.365 87.784C359.341 86.696 358.541 85.432 357.965 83.992C357.389 82.52 357.101 80.952 357.101 79.288ZM384.476 79.288C384.476 77.656 384.732 76.12 385.244 74.68C385.756 73.208 386.476 71.928 387.404 70.84C388.364 69.752 389.5 68.904 390.812 68.296C392.156 67.656 393.644 67.336 395.276 67.336C397.26 67.336 398.94 67.752 400.316 68.584C401.724 69.416 402.844 70.408 403.676 71.56V58.36H407.18V91H403.676V87.016C402.844 88.2 401.724 89.208 400.316 90.04C398.94 90.872 397.26 91.288 395.276 91.288C393.644 91.288 392.156 90.984 390.812 90.376C389.5 89.736 388.364 88.872 387.404 87.784C386.476 86.696 385.756 85.432 385.244 83.992C384.732 82.52 384.476 80.952 384.476 79.288ZM395.708 87.976C396.668 87.976 397.58 87.8 398.444 87.448C399.308 87.064 400.092 86.584 400.796 86.008C401.5 85.432 402.092 84.824 402.572 84.184C403.084 83.512 403.452 82.888 403.676 82.312V76.312C403.42 75.672 403.036 75.016 402.524 74.344C402.044 73.672 401.452 73.064 400.748 72.52C400.076 71.976 399.308 71.528 398.444 71.176C397.58 70.824 396.668 70.648 395.708 70.648C394.492 70.648 393.404 70.888 392.444 71.368C391.516 71.848 390.716 72.488 390.044 73.288C389.404 74.056 388.908 74.968 388.556 76.024C388.236 77.048 388.076 78.136 388.076 79.288C388.076 80.44 388.236 81.544 388.556 82.6C388.908 83.624 389.404 84.536 390.044 85.336C390.716 86.136 391.516 86.776 392.444 87.256C393.404 87.736 394.492 87.976 395.708 87.976ZM428.382 58.36L436.926 86.392L445.374 58.36H449.358L457.758 86.44L466.35 58.36H470.334L460.158 91H455.79L447.342 63.208L438.894 91H434.526L424.398 58.36H428.382ZM475.601 67.624H479.057V91H475.601V67.624ZM475.457 58.312H479.201V64.648H475.457V58.312ZM490.4 58.312V67.624H499.136V70.6H490.4V80.776C490.4 83.272 490.736 85.112 491.408 86.296C492.08 87.48 493.328 88.072 495.152 88.072C495.376 88.072 495.664 88.056 496.016 88.024C496.4 87.992 496.8 87.96 497.216 87.928C497.632 87.896 498.016 87.848 498.368 87.784C498.72 87.72 498.976 87.672 499.136 87.64V90.808C498.848 90.872 498.496 90.936 498.08 91C497.664 91.032 497.248 91.064 496.832 91.096C496.416 91.16 496.016 91.208 495.632 91.24C495.248 91.272 494.944 91.288 494.72 91.288C493.28 91.288 492.064 91.048 491.072 90.568C490.08 90.088 489.28 89.4 488.672 88.504C488.064 87.608 487.616 86.504 487.328 85.192C487.072 83.88 486.944 82.392 486.944 80.728V58.312H490.4ZM505.131 58.312H508.587V72.232C509.003 71.592 509.483 70.984 510.027 70.408C510.603 69.832 511.243 69.32 511.947 68.872C512.683 68.392 513.499 68.024 514.395 67.768C515.291 67.48 516.283 67.336 517.371 67.336C518.523 67.336 519.579 67.544 520.539 67.96C521.499 68.344 522.315 68.904 522.987 69.64C523.691 70.344 524.235 71.192 524.619 72.184C525.035 73.144 525.243 74.184 525.243 75.304V91H521.691V76.648C521.691 74.632 521.147 73.128 520.059 72.136C519.003 71.112 517.707 70.6 516.171 70.6C515.243 70.6 514.395 70.776 513.627 71.128C512.891 71.48 512.203 71.928 511.563 72.472C510.955 73.016 510.395 73.64 509.883 74.344C509.403 75.048 508.971 75.752 508.587 76.456V91H505.131V58.312Z" fill="white"/>
<defs>
<linearGradient id="paint0_linear_10_28" x1="382" y1="-42.5" x2="382" y2="281" gradientUnits="userSpaceOnUse">
<stop stop-color="#4F3569"/>
<stop offset="1" stop-color="#4A167E"/>
</linearGradient>
</defs>
</svg>
