<svg width="509" height="243" viewBox="0 0 509 243" fill="none" xmlns="http://www.w3.org/2000/svg">
<rect opacity="0.9" x="40" width="469" height="243" fill="url(#paint0_radial_6_14)"/>
<path d="M302 203L191.984 36H45.7045H45.297H40V203H302Z" fill="#1B092D"/>
<rect x="40" y="45" width="262" height="138" rx="20" fill="black"/>
<path d="M55.8102 173V145.8H67.2502C72.8902 145.8 76.3702 148.36 76.3702 152.68C76.3702 155.56 74.8902 157.68 72.1702 158.84C75.7302 159.8 77.6902 162.2 77.6902 165.72C77.6902 170.36 74.2502 173 68.4502 173H55.8102ZM67.8102 161.36H61.4902V168.04H67.8102C70.8102 168.04 71.8102 166.4 71.8102 164.64C71.8102 162.96 70.8102 161.36 67.8102 161.36ZM61.4902 157.12H66.4902C69.3302 157.12 70.4902 155.56 70.4902 153.92C70.4902 152.28 69.3702 150.76 66.5302 150.76H61.4902V157.12ZM80.1161 163C80.1161 157.4 84.7961 152.72 90.2361 152.72C96.1161 152.72 100.036 156.56 100.476 163.08C100.516 163.68 100.516 164.68 100.516 165.28H85.9561C86.4761 167.16 88.3561 168.8 90.7161 168.8C92.7961 168.8 94.5961 167.6 95.4361 166.2L99.6361 168.28C97.8361 171.32 94.8761 173.36 90.6761 173.36C83.9161 173.36 80.1161 168.72 80.1161 163ZM85.8761 161.36H94.7961C94.5961 159.28 92.9961 157.32 90.4761 157.32C87.8761 157.32 86.3161 159.16 85.8761 161.36ZM109.172 173H103.852V154.32C103.852 148.6 106.612 145.44 111.612 145.44C113.732 145.44 115.732 145.76 116.572 145.96V150.72C115.572 150.44 114.452 150.2 112.732 150.2C110.692 150.2 109.132 151.16 109.132 153.84V156.36H115.212V160.92H109.132L109.172 173ZM117.421 163C117.421 157.4 122.061 152.72 127.781 152.72C133.381 152.72 138.061 157.4 138.061 163C138.061 168.76 133.381 173.4 127.781 173.4C122.061 173.4 117.421 168.76 117.421 163ZM122.901 163C122.901 165.68 124.501 168.64 127.821 168.64C131.061 168.64 132.541 165.68 132.541 163C132.541 160.4 131.061 157.48 127.821 157.48C124.501 157.48 122.901 160.4 122.901 163ZM141.352 153.08H146.672V155.6C148.072 153.88 149.952 152.84 152.312 152.84C153.072 152.84 153.752 152.92 154.432 153.12V158.28C153.792 158.12 153.152 158.04 152.472 158.04C150.032 158.04 147.832 159.16 146.672 161.08V173H141.352V153.08ZM156.054 163C156.054 157.4 160.734 152.72 166.174 152.72C172.054 152.72 175.974 156.56 176.414 163.08C176.454 163.68 176.454 164.68 176.454 165.28H161.894C162.414 167.16 164.294 168.8 166.654 168.8C168.734 168.8 170.534 167.6 171.374 166.2L175.574 168.28C173.774 171.32 170.814 173.36 166.614 173.36C159.854 173.36 156.054 168.72 156.054 163ZM161.814 161.36H170.734C170.534 159.28 168.934 157.32 166.414 157.32C163.814 157.32 162.254 159.16 161.814 161.36Z" fill="url(#paint1_linear_6_14)"/>
<path d="M229 215L346.574 36H502.904H503.339H509V215H229Z" fill="#1B092D"/>
<rect width="281" height="147" rx="20" transform="matrix(-1 0 0 1 509 45)" fill="black"/>
<path d="M410.054 182H404.414L413.974 154.8H421.054L430.654 182H425.014L423.134 176.72H411.894L410.054 182ZM417.534 160.44L413.534 171.92H421.534L417.534 160.44ZM438.336 182H433.016V163.32C433.016 157.6 435.776 154.44 440.776 154.44C442.896 154.44 444.896 154.76 445.736 154.96V159.72C444.736 159.44 443.616 159.2 441.896 159.2C439.856 159.2 438.296 160.16 438.296 162.84V165.36H444.376V169.92H438.296L438.336 182ZM447.665 173.36V154.8H452.985V162.08H459.065V166.64H452.985V173.4C452.985 175.92 453.505 177.44 455.705 177.44C456.345 177.44 458.625 177.32 459.065 177.2V182C458.105 182.2 455.745 182.36 455.025 182.36C449.865 182.32 447.665 179.12 447.665 173.36ZM461.233 172C461.233 166.4 465.913 161.72 471.353 161.72C477.233 161.72 481.153 165.56 481.593 172.08C481.633 172.68 481.633 173.68 481.633 174.28H467.073C467.593 176.16 469.473 177.8 471.833 177.8C473.913 177.8 475.713 176.6 476.553 175.2L480.753 177.28C478.953 180.32 475.993 182.36 471.793 182.36C465.033 182.36 461.233 177.72 461.233 172ZM466.993 170.36H475.913C475.713 168.28 474.113 166.32 471.593 166.32C468.993 166.32 467.433 168.16 466.993 170.36ZM484.97 162.08H490.29V164.6C491.69 162.88 493.57 161.84 495.93 161.84C496.69 161.84 497.37 161.92 498.05 162.12V167.28C497.41 167.12 496.77 167.04 496.09 167.04C493.65 167.04 491.45 168.16 490.29 170.08V182H484.97V162.08Z" fill="url(#paint2_linear_6_14)"/>
<path d="M222 219L342.513 36H502.751H503.198H509V219H222Z" fill="#1B092D"/>
<rect width="287" height="152" rx="20" transform="matrix(-1 0 0 1 509 46)" fill="black"/>
<path d="M402.554 184H396.914L406.474 156.8H413.554L423.154 184H417.514L415.634 178.72H404.394L402.554 184ZM410.034 162.44L406.034 173.92H414.034L410.034 162.44ZM430.836 184H425.516V165.32C425.516 159.6 428.276 156.44 433.276 156.44C435.396 156.44 437.396 156.76 438.236 156.96V161.72C437.236 161.44 436.116 161.2 434.396 161.2C432.356 161.2 430.796 162.16 430.796 164.84V167.36H436.876V171.92H430.796L430.836 184ZM440.165 175.36V156.8H445.485V164.08H451.565V168.64H445.485V175.4C445.485 177.92 446.005 179.44 448.205 179.44C448.845 179.44 451.125 179.32 451.565 179.2V184C450.605 184.2 448.245 184.36 447.525 184.36C442.365 184.32 440.165 181.12 440.165 175.36ZM453.733 174C453.733 168.4 458.413 163.72 463.853 163.72C469.733 163.72 473.653 167.56 474.093 174.08C474.133 174.68 474.133 175.68 474.133 176.28H459.573C460.093 178.16 461.973 179.8 464.333 179.8C466.413 179.8 468.213 178.6 469.053 177.2L473.253 179.28C471.453 182.32 468.493 184.36 464.293 184.36C457.533 184.36 453.733 179.72 453.733 174ZM459.493 172.36H468.413C468.213 170.28 466.613 168.32 464.093 168.32C461.493 168.32 459.933 170.16 459.493 172.36ZM477.47 164.08H482.79V166.6C484.19 164.88 486.07 163.84 488.43 163.84C489.19 163.84 489.87 163.92 490.55 164.12V169.28C489.91 169.12 489.27 169.04 488.59 169.04C486.15 169.04 483.95 170.16 482.79 172.08V184H477.47V164.08Z" fill="url(#paint3_linear_6_14)"/>
<defs>
<radialGradient id="paint0_radial_6_14" cx="0" cy="0" r="1" gradientUnits="userSpaceOnUse" gradientTransform="translate(274.5 121.5) rotate(90) scale(121.5 234.5)">
<stop offset="0.759615" stop-color="#4A167F"/>
<stop offset="1" stop-color="#3B1265"/>
</radialGradient>
<linearGradient id="paint1_linear_6_14" x1="7" y1="164.5" x2="224" y2="164.5" gradientUnits="userSpaceOnUse">
<stop stop-color="#F5E9C6"/>
<stop offset="1" stop-color="white"/>
</linearGradient>
<linearGradient id="paint2_linear_6_14" x1="343" y1="173.5" x2="560" y2="173.5" gradientUnits="userSpaceOnUse">
<stop stop-color="#F5E9C6"/>
<stop offset="1" stop-color="white"/>
</linearGradient>
<linearGradient id="paint3_linear_6_14" x1="325" y1="177.5" x2="563" y2="177.5" gradientUnits="userSpaceOnUse">
<stop stop-color="#F5E9C6"/>
<stop offset="1" stop-color="white"/>
</linearGradient>
</defs>
</svg>
