<svg width="509" height="243" viewBox="0 0 509 243" fill="none" xmlns="http://www.w3.org/2000/svg">
<rect opacity="0.9" x="40" width="469" height="243" fill="url(#paint0_radial_100_2)"/>
<path d="M302 203L191.984 36H45.7045H45.297H40V203H302Z" fill="#1B092D"/>
<rect x="40" y="45" width="262" height="138" rx="20" fill="black"/>
<path d="M229 215L346.574 36H502.904H503.339H509V215H229Z" fill="#1B092D"/>
<rect width="281" height="147" rx="20" transform="matrix(-1 0 0 1 509 45)" fill="black"/>
<path d="M410.054 182H404.414L413.974 154.8H421.054L430.654 182H425.014L423.134 176.72H411.894L410.054 182ZM417.534 160.44L413.534 171.92H421.534L417.534 160.44ZM438.336 182H433.016V163.32C433.016 157.6 435.776 154.44 440.776 154.44C442.896 154.44 444.896 154.76 445.736 154.96V159.72C444.736 159.44 443.616 159.2 441.896 159.2C439.856 159.2 438.296 160.16 438.296 162.84V165.36H444.376V169.92H438.296L438.336 182ZM447.665 173.36V154.8H452.985V162.08H459.065V166.64H452.985V173.4C452.985 175.92 453.505 177.44 455.705 177.44C456.345 177.44 458.625 177.32 459.065 177.2V182C458.105 182.2 455.745 182.36 455.025 182.36C449.865 182.32 447.665 179.12 447.665 173.36ZM461.233 172C461.233 166.4 465.913 161.72 471.353 161.72C477.233 161.72 481.153 165.56 481.593 172.08C481.633 172.68 481.633 173.68 481.633 174.28H467.073C467.593 176.16 469.473 177.8 471.833 177.8C473.913 177.8 475.713 176.6 476.553 175.2L480.753 177.28C478.953 180.32 475.993 182.36 471.793 182.36C465.033 182.36 461.233 177.72 461.233 172ZM466.993 170.36H475.913C475.713 168.28 474.113 166.32 471.593 166.32C468.993 166.32 467.433 168.16 466.993 170.36ZM484.97 162.08H490.29V164.6C491.69 162.88 493.57 161.84 495.93 161.84C496.69 161.84 497.37 161.92 498.05 162.12V167.28C497.41 167.12 496.77 167.04 496.09 167.04C493.65 167.04 491.45 168.16 490.29 170.08V182H484.97V162.08Z" fill="url(#paint1_linear_100_2)"/>
<path d="M222 219L342.513 36H502.751H503.198H509V219H222Z" fill="#1B092D"/>
<rect width="287" height="152" rx="20" transform="matrix(-1 0 0 1 509 46)" fill="black"/>
<defs>
<radialGradient id="paint0_radial_100_2" cx="0" cy="0" r="1" gradientUnits="userSpaceOnUse" gradientTransform="translate(274.5 121.5) rotate(90) scale(121.5 234.5)">
<stop offset="0.759615" stop-color="#4A167F"/>
<stop offset="1" stop-color="#3B1265"/>
</radialGradient>
<linearGradient id="paint1_linear_100_2" x1="343" y1="173.5" x2="560" y2="173.5" gradientUnits="userSpaceOnUse">
<stop stop-color="#F5E9C6"/>
<stop offset="1" stop-color="white"/>
</linearGradient>
</defs>
</svg>
