<svg width="721" height="471" viewBox="0 0 721 471" fill="none" xmlns="http://www.w3.org/2000/svg">
<rect width="377" height="439" fill="url(#paint0_linear_30_57)"/>
<path d="M150.097 254H147.468V246.047H150.053C152.429 246.047 154.035 247.653 154.035 250.029C154.035 252.394 152.451 254 150.097 254ZM149.976 247.037H148.546V252.999H150.02C151.791 252.999 152.913 251.855 152.913 250.029C152.913 248.181 151.791 247.037 149.976 247.037ZM158.091 248.577V249.523H157.629C156.65 249.523 156.045 250.117 156.045 251.151V254H155.011V248.632H155.979L156.045 249.446C156.265 248.885 156.804 248.511 157.541 248.511C157.728 248.511 157.882 248.533 158.091 248.577ZM158.295 251.305C158.295 249.644 159.483 248.478 161.1 248.478C162.706 248.478 163.894 249.644 163.894 251.305C163.894 252.966 162.706 254.132 161.1 254.132C159.483 254.132 158.295 252.966 158.295 251.305ZM159.34 251.305C159.34 252.427 160.055 253.208 161.1 253.208C162.134 253.208 162.86 252.427 162.86 251.305C162.86 250.183 162.134 249.402 161.1 249.402C160.055 249.402 159.34 250.183 159.34 251.305ZM164.819 256.409V248.621H165.754L165.831 249.589C166.194 248.852 166.92 248.467 167.778 248.467C169.318 248.467 170.275 249.622 170.275 251.272C170.275 252.911 169.373 254.143 167.778 254.143C166.92 254.143 166.205 253.78 165.853 253.12V256.409H164.819ZM165.864 251.316C165.864 252.416 166.502 253.208 167.558 253.208C168.614 253.208 169.241 252.416 169.241 251.316C169.241 250.205 168.614 249.413 167.558 249.413C166.502 249.413 165.864 250.194 165.864 251.316ZM177.458 254.121C175.192 254.121 173.685 252.493 173.685 250.029C173.685 247.576 175.236 245.915 177.513 245.915C179.306 245.915 180.681 246.982 180.978 248.61H179.823C179.526 247.576 178.635 246.949 177.48 246.949C175.874 246.949 174.818 248.159 174.818 250.018C174.818 251.877 175.874 253.087 177.48 253.087C178.646 253.087 179.57 252.46 179.867 251.481H181.011C180.67 253.065 179.251 254.121 177.458 254.121ZM182.939 254H181.905V245.904H182.939V254ZM184.747 247.345C184.373 247.345 184.065 247.037 184.065 246.663C184.065 246.278 184.373 245.981 184.747 245.981C185.121 245.981 185.429 246.278 185.429 246.663C185.429 247.037 185.121 247.345 184.747 247.345ZM184.241 254V248.621H185.275V254H184.241ZM186.556 256.409V248.621H187.491L187.568 249.589C187.931 248.852 188.657 248.467 189.515 248.467C191.055 248.467 192.012 249.622 192.012 251.272C192.012 252.911 191.11 254.143 189.515 254.143C188.657 254.143 187.942 253.78 187.59 253.12V256.409H186.556ZM187.601 251.316C187.601 252.416 188.239 253.208 189.295 253.208C190.351 253.208 190.978 252.416 190.978 251.316C190.978 250.205 190.351 249.413 189.295 249.413C188.239 249.413 187.601 250.194 187.601 251.316ZM196.974 254H195.896V246.047H196.974V249.468H200.912V246.047H201.99V254H200.912V250.469H196.974V254ZM205.759 254.132C204.175 254.132 203.086 252.988 203.086 251.316C203.086 249.633 204.153 248.467 205.715 248.467C207.244 248.467 208.245 249.523 208.245 251.118V251.503L204.087 251.514C204.164 252.647 204.758 253.274 205.781 253.274C206.584 253.274 207.112 252.944 207.288 252.328H208.256C207.992 253.483 207.09 254.132 205.759 254.132ZM205.715 249.336C204.813 249.336 204.241 249.875 204.109 250.821H207.211C207.211 249.93 206.628 249.336 205.715 249.336ZM212.26 248.577V249.523H211.798C210.819 249.523 210.214 250.117 210.214 251.151V254H209.18V248.632H210.148L210.214 249.446C210.434 248.885 210.973 248.511 211.71 248.511C211.897 248.511 212.051 248.533 212.26 248.577ZM215.138 254.132C213.554 254.132 212.465 252.988 212.465 251.316C212.465 249.633 213.532 248.467 215.094 248.467C216.623 248.467 217.624 249.523 217.624 251.118V251.503L213.466 251.514C213.543 252.647 214.137 253.274 215.16 253.274C215.963 253.274 216.491 252.944 216.667 252.328H217.635C217.371 253.483 216.469 254.132 215.138 254.132ZM215.094 249.336C214.192 249.336 213.62 249.875 213.488 250.821H216.59C216.59 249.93 216.007 249.336 215.094 249.336Z" fill="url(#paint1_linear_30_57)"/>
<path d="M97.4695 260.298H99.1238V268H98.0603V262.167L97.2009 265.497H96.1374L95.3103 262.178V268H94.2468V260.298H95.9441L96.7068 263.692L97.4695 260.298ZM101.482 265.11V268H100.311V260.298H102.449C103.065 260.298 103.541 260.438 103.877 260.717C104.221 261.003 104.393 261.458 104.393 262.081V263.306C104.393 263.929 104.225 264.387 103.888 264.681C103.559 264.967 103.086 265.11 102.47 265.11H101.482ZM101.482 261.351V264.068H102.578C102.814 264.068 102.979 264.015 103.072 263.907C103.179 263.814 103.233 263.646 103.233 263.402V261.995C103.233 261.759 103.183 261.59 103.082 261.49C102.982 261.397 102.814 261.351 102.578 261.351H101.482ZM107.213 260.287H108.319L107.235 265.314H108.244V262.887H109.383V265.314H110.189V266.346H109.383V268H108.244V266.346H106.042V265.293L107.213 260.287ZM118.622 265.519V263.606H120.545V265.519H118.622ZM131.792 260.298H133.446V268H132.383V262.167L131.523 265.497H130.46L129.633 262.178V268H128.569V260.298H130.267L131.029 263.692L131.792 260.298ZM136.943 268H136.513C135.869 268 135.371 267.842 135.02 267.527C134.662 267.205 134.483 266.722 134.483 266.077V262.242C134.483 261.598 134.662 261.114 135.02 260.792C135.371 260.47 135.869 260.309 136.513 260.309H136.943C137.588 260.309 138.085 260.47 138.436 260.792C138.802 261.114 138.984 261.598 138.984 262.242V266.077C138.984 266.722 138.802 267.205 138.436 267.527C138.085 267.842 137.588 268 136.943 268ZM135.643 262.038V266.271C135.643 266.45 135.715 266.611 135.858 266.754C135.987 266.883 136.17 266.947 136.406 266.947H137.04C137.283 266.947 137.473 266.883 137.609 266.754C137.745 266.611 137.813 266.45 137.813 266.271V262.038C137.813 261.859 137.745 261.701 137.609 261.565C137.473 261.429 137.283 261.361 137.04 261.361H136.406C136.17 261.361 135.987 261.429 135.858 261.565C135.715 261.701 135.643 261.859 135.643 262.038ZM143.663 260.298H144.833L143.104 268H141.643L140.021 260.298H141.213L142.406 266.335L143.663 260.298ZM152.944 265.519V263.606H154.867V265.519H152.944ZM166.115 260.298H167.769V268H166.705V262.167L165.846 265.497H164.783L163.955 262.178V268H162.892V260.298H164.589L165.352 263.692L166.115 260.298ZM169.934 264.917V268H168.774V260.298H170.89C171.506 260.298 171.982 260.438 172.318 260.717C172.677 261.003 172.856 261.458 172.856 262.081V263.112C172.856 263.563 172.762 263.918 172.576 264.176C172.419 264.405 172.204 264.573 171.932 264.681L173.436 268H172.157L170.782 264.917H169.934ZM169.934 261.351V263.875H171.029C171.259 263.875 171.427 263.825 171.534 263.725C171.627 263.624 171.674 263.456 171.674 263.22V261.995C171.674 261.759 171.627 261.59 171.534 261.49C171.427 261.397 171.259 261.351 171.029 261.351H169.934ZM177.985 260.298H179.156L177.427 268H175.966L174.344 260.298H175.536L176.728 266.335L177.985 260.298ZM187.267 265.519V263.606H189.19V265.519H187.267ZM199.674 261.716L198.955 265.078H200.383L199.674 261.716ZM198.976 260.309H200.383L202.21 268H201.017L200.62 266.12H198.74L198.321 268H197.118L198.976 260.309ZM206.587 260.298H207.758L206.029 268H204.568L202.946 260.298H204.138L205.33 266.335L206.587 260.298ZM209.558 260.309H212.641V261.329H211.685V266.979H212.641V268H209.558V266.979H210.514V261.329H209.558V260.309ZM221.589 265.519V263.606H223.512V265.519H221.589ZM234.76 260.298H236.414V268H235.351V262.167L234.491 265.497H233.428L232.601 262.178V268H231.537V260.298H233.234L233.997 263.692L234.76 260.298ZM238.783 260.287H239.889L238.804 265.314H239.814V262.887H240.953V265.314H241.759V266.346H240.953V268H239.814V266.346H237.612V265.293L238.783 260.287ZM246.63 260.298H247.801L246.072 268H244.611L242.989 260.298H244.181L245.373 266.335L246.63 260.298ZM255.912 265.519V263.606H257.835V265.519H255.912ZM269.748 260.298H270.715L270.339 268H268.792L268.277 265.443L267.697 268H266.214L265.838 260.298H266.88L267.159 266.26L267.868 263.445H268.717L269.448 266.271L269.748 260.298ZM272.128 260.298H275.931V261.318H273.288V263.51H275.651V264.541H273.288V266.979H275.931V268H272.128V260.298ZM281.823 265.239V266.195C281.823 266.84 281.665 267.302 281.35 267.581C281.042 267.86 280.555 268 279.889 268H277.634V260.298H279.761C280.398 260.298 280.881 260.43 281.211 260.695C281.547 260.967 281.716 261.429 281.716 262.081V262.693C281.716 262.994 281.662 263.256 281.554 263.478C281.461 263.649 281.35 263.793 281.221 263.907C281.4 264.036 281.537 264.19 281.63 264.369C281.759 264.605 281.823 264.896 281.823 265.239ZM278.804 261.34V263.445H279.889C280.076 263.445 280.23 263.388 280.351 263.273C280.48 263.166 280.545 263.008 280.545 262.801V261.984C280.545 261.748 280.495 261.583 280.394 261.49C280.294 261.39 280.126 261.34 279.889 261.34H278.804ZM280.652 266.313V265.143C280.652 264.942 280.591 264.785 280.469 264.67C280.348 264.555 280.19 264.498 279.997 264.498H278.804V266.958H279.986C280.222 266.958 280.391 266.908 280.491 266.808C280.598 266.707 280.652 266.543 280.652 266.313ZM286.244 260.298H287.898V268H286.834V262.167L285.975 265.497H284.912L284.084 262.178V268H283.021V260.298H284.718L285.481 263.692L286.244 260.298Z" fill="url(#paint2_linear_30_57)"/>
<path d="M156.5 220.579V210.579V210.31C153.358 205.704 151.482 206.094 148 210.31V220.079C148.841 225.755 150.623 228.357 157 231.579H208.5C214.309 230.122 216.583 228.142 218.5 222.079V210.579C217.83 208.582 216.923 207.84 214.5 207.079C212.513 207.662 211.616 208.39 210.5 210.579V220.579C210.423 221.685 210.152 222.248 209 223.079L160.5 223.579C157.5 223.579 156.5 220.579 156.5 220.579Z" fill="black" stroke="black" stroke-width="2"/>
<g clip-path="url(#paint3_angular_30_57_clip_path)" data-figma-skip-parse="true"><g transform="matrix(0 0.0247501 -0.00832898 0 182.897 190.75)"><foreignObject x="-2869.16" y="-2869.16" width="5738.32" height="5738.32"><div xmlns="http://www.w3.org/1999/xhtml" style="background:conic-gradient(from 90deg,rgba(83, 0, 0, 1) 0deg,rgba(14, 7, 7, 1) 360deg);height:100%;width:100%;opacity:0.76"></div></foreignObject></g></g><path d="M187.293 213.5C185.925 214.835 185.042 215.27 183.293 215.5H181.793C180.793 215.5 162.793 195.5 162.793 195.5C160.404 193.319 160.401 192.006 162.793 189.5C164.921 187.953 166.131 187.823 168.293 189C168.293 189 179.293 201.5 179.293 200.5L179.293 170C179.222 167.265 179.75 166.139 183.293 166C185.54 166.417 187.016 167.416 187.293 169V195C187.293 195 187.293 200.5 187.793 200.5C188.293 200.5 197.793 189.5 197.793 189.5C199.855 187.99 201.051 187.763 203.293 189C204.385 190.313 204.824 191.269 204.793 194L187.293 213.5Z" data-figma-gradient-fill="{&#34;type&#34;:&#34;GRADIENT_ANGULAR&#34;,&#34;stops&#34;:[{&#34;color&#34;:{&#34;r&#34;:0.32844427227973938,&#34;g&#34;:0.0,&#34;b&#34;:0.0,&#34;a&#34;:1.0},&#34;position&#34;:0.0},{&#34;color&#34;:{&#34;r&#34;:0.056772086769342422,&#34;g&#34;:0.027873208746314049,&#34;b&#34;:0.028354847803711891,&#34;a&#34;:1.0},&#34;position&#34;:1.0}],&#34;stopsVar&#34;:[{&#34;color&#34;:{&#34;r&#34;:0.32844427227973938,&#34;g&#34;:0.0,&#34;b&#34;:0.0,&#34;a&#34;:1.0},&#34;position&#34;:0.0},{&#34;color&#34;:{&#34;r&#34;:0.056772086769342422,&#34;g&#34;:0.027873208746314049,&#34;b&#34;:0.028354847803711891,&#34;a&#34;:1.0},&#34;position&#34;:1.0}],&#34;transform&#34;:{&#34;m00&#34;:2.6816296545253884e-15,&#34;m01&#34;:-16.657968521118164,&#34;m02&#34;:191.22615051269531,&#34;m10&#34;:49.500102996826172,&#34;m11&#34;:1.1345786099905067e-14,&#34;m12&#34;:166.0},&#34;opacity&#34;:0.75999999046325684,&#34;blendMode&#34;:&#34;NORMAL&#34;,&#34;visible&#34;:true}"/>
<defs>
<clipPath id="paint3_angular_30_57_clip_path"><path d="M187.293 213.5C185.925 214.835 185.042 215.27 183.293 215.5H181.793C180.793 215.5 162.793 195.5 162.793 195.5C160.404 193.319 160.401 192.006 162.793 189.5C164.921 187.953 166.131 187.823 168.293 189C168.293 189 179.293 201.5 179.293 200.5L179.293 170C179.222 167.265 179.75 166.139 183.293 166C185.54 166.417 187.016 167.416 187.293 169V195C187.293 195 187.293 200.5 187.793 200.5C188.293 200.5 197.793 189.5 197.793 189.5C199.855 187.99 201.051 187.763 203.293 189C204.385 190.313 204.824 191.269 204.793 194L187.293 213.5Z"/></clipPath><linearGradient id="paint0_linear_30_57" x1="188.5" y1="0" x2="188.5" y2="439" gradientUnits="userSpaceOnUse">
<stop offset="0.0625" stop-color="#101010"/>
<stop offset="0.918269" stop-color="#101010"/>
</linearGradient>
<linearGradient id="paint1_linear_30_57" x1="-624.155" y1="463.149" x2="722.996" y2="395.804" gradientUnits="userSpaceOnUse">
<stop offset="1" stop-color="white"/>
</linearGradient>
<linearGradient id="paint2_linear_30_57" x1="-624.155" y1="463.149" x2="722.996" y2="395.804" gradientUnits="userSpaceOnUse">
<stop offset="1" stop-color="#2D0000"/>
</linearGradient>
</defs>
</svg>
