<svg width="763" height="65" viewBox="0 0 763 65" fill="none" xmlns="http://www.w3.org/2000/svg">
<rect opacity="0.5" y="10" width="763" height="55" fill="#1D0931" fill-opacity="0.4"/>
<path d="M178.02 44V30.4H180.86V36.04H186.56V30.4H189.4V44H186.56V38.52H180.86V44H178.02ZM191.169 39C191.169 36.2 193.489 33.86 196.349 33.86C199.149 33.86 201.489 36.2 201.489 39C201.489 41.88 199.149 44.2 196.349 44.2C193.489 44.2 191.169 41.88 191.169 39ZM193.909 39C193.909 40.34 194.709 41.82 196.369 41.82C197.989 41.82 198.729 40.34 198.729 39C198.729 37.7 197.989 36.24 196.369 36.24C194.709 36.24 193.909 37.7 193.909 39ZM205.795 44H203.135V34.04H205.795V35.16C206.515 34.38 207.455 33.86 208.675 33.86C209.875 33.86 210.835 34.48 211.375 35.5C212.155 34.56 213.235 33.86 214.655 33.86C216.415 33.86 217.755 35.28 217.755 37.1V44H214.995V38.02C214.995 36.64 214.295 36.38 213.715 36.38C213.015 36.38 212.335 36.7 211.795 37.2V44H209.035V38.02C209.035 36.64 208.335 36.38 207.755 36.38C207.015 36.38 206.335 36.76 205.795 37.3V44ZM219.412 39C219.412 36.2 221.752 33.86 224.472 33.86C227.412 33.86 229.372 35.78 229.592 39.04C229.612 39.34 229.612 39.84 229.612 40.14H222.332C222.592 41.08 223.532 41.9 224.712 41.9C225.752 41.9 226.652 41.3 227.072 40.6L229.172 41.64C228.272 43.16 226.792 44.18 224.692 44.18C221.312 44.18 219.412 41.86 219.412 39ZM222.292 38.18H226.752C226.652 37.14 225.852 36.16 224.592 36.16C223.292 36.16 222.512 37.08 222.292 38.18Z" fill="white"/>
<path d="M527.442 44.2C523.362 44.2 520.822 40.94 520.822 37.18C520.822 33.42 523.362 30.2 527.442 30.2C530.382 30.2 532.222 31.74 533.282 33.72L530.822 35.26C530.042 33.88 528.882 32.78 527.442 32.78C525.102 32.78 523.842 34.92 523.842 37.18C523.842 39.42 525.102 41.62 527.442 41.62C528.862 41.62 530.122 40.66 530.822 39.3L533.282 40.86C532.222 42.86 530.382 44.2 527.442 44.2ZM534.394 39C534.394 36.2 536.714 33.86 539.574 33.86C542.374 33.86 544.714 36.2 544.714 39C544.714 41.88 542.374 44.2 539.574 44.2C536.714 44.2 534.394 41.88 534.394 39ZM537.134 39C537.134 40.34 537.934 41.82 539.594 41.82C541.214 41.82 541.954 40.34 541.954 39C541.954 37.7 541.214 36.24 539.594 36.24C537.934 36.24 537.134 37.7 537.134 39ZM546.36 44V34.04H549.02V35.16C549.76 34.38 550.76 33.86 552.14 33.86C554.02 33.86 555.44 35.3 555.44 37.14V44H552.7V38.2C552.7 36.68 551.88 36.38 551.16 36.38C550.36 36.38 549.64 36.8 549.02 37.58V44H546.36ZM557.668 39.68V30.4H560.328V34.04H563.368V36.32H560.328V39.7C560.328 40.96 560.588 41.72 561.688 41.72C562.008 41.72 563.148 41.66 563.368 41.6V44C562.888 44.1 561.708 44.18 561.348 44.18C558.768 44.16 557.668 42.56 557.668 39.68ZM568.068 44.18C566.228 44.18 564.628 43.24 564.628 41.16C564.628 39.04 566.368 38.06 568.588 38.06L570.828 38.04V37.72C570.828 36.52 569.908 36.06 568.908 36.06C567.888 36.06 566.908 36.72 566.348 37.22L565.128 35.5C566.328 34.24 567.748 33.86 569.428 33.86C571.648 33.86 573.488 35.2 573.488 37.3V44H570.828V43.2C570.128 43.82 569.288 44.18 568.068 44.18ZM568.908 39.88C568.088 39.88 567.388 40.1 567.388 40.96C567.388 41.78 568.068 42.1 568.848 42.1C569.808 42.1 570.368 41.66 570.828 41.02V39.88H568.908ZM580.335 44.18C577.455 44.18 575.175 41.86 575.175 39C575.175 36.2 577.455 33.86 580.335 33.86C582.495 33.86 584.095 34.98 584.815 36.64L582.715 37.9C582.335 37.08 581.535 36.24 580.355 36.24C578.695 36.24 577.915 37.68 577.915 39C577.915 40.34 578.695 41.8 580.355 41.8C581.555 41.8 582.395 40.86 582.775 40L584.855 41.26C584.155 43.02 582.555 44.18 580.335 44.18ZM586.418 39.68V30.4H589.078V34.04H592.118V36.32H589.078V39.7C589.078 40.96 589.338 41.72 590.438 41.72C590.758 41.72 591.898 41.66 592.118 41.6V44C591.638 44.1 590.458 44.18 590.098 44.18C587.518 44.16 586.418 42.56 586.418 39.68Z" fill="white"/>
<path d="M422.038 44L418.478 30.4H421.458L423.818 39.78L426.238 30.4H429.178L431.578 39.78L433.958 30.4H436.938L433.378 44H430.178L427.718 34.56L425.218 44H422.038ZM437.181 39C437.181 36.2 439.501 33.86 442.361 33.86C445.161 33.86 447.501 36.2 447.501 39C447.501 41.88 445.161 44.2 442.361 44.2C439.501 44.2 437.181 41.88 437.181 39ZM439.921 39C439.921 40.34 440.721 41.82 442.381 41.82C444.001 41.82 444.741 40.34 444.741 39C444.741 37.7 444.001 36.24 442.381 36.24C440.721 36.24 439.921 37.7 439.921 39ZM449.147 34.04H451.807V35.3C452.507 34.44 453.447 33.92 454.627 33.92C455.007 33.92 455.347 33.96 455.687 34.06V36.64C455.367 36.56 455.047 36.52 454.707 36.52C453.487 36.52 452.387 37.08 451.807 38.04V44H449.147V34.04ZM457.155 30.4H459.795V37.9L463.055 34.04H466.175L462.295 38.54L466.615 44H463.555L460.695 40.4L459.795 41.48V44H457.155V30.4Z" fill="white"/>
<path d="M296.132 44.2C292.052 44.2 289.512 40.94 289.512 37.18C289.512 33.42 292.052 30.2 296.132 30.2C299.072 30.2 300.912 31.74 301.972 33.72L299.512 35.26C298.732 33.88 297.572 32.78 296.132 32.78C293.792 32.78 292.532 34.92 292.532 37.18C292.532 39.42 293.792 41.62 296.132 41.62C297.552 41.62 298.812 40.66 299.512 39.3L301.972 40.86C300.912 42.86 299.072 44.2 296.132 44.2ZM303.623 34.04H306.283V35.3C306.983 34.44 307.923 33.92 309.103 33.92C309.483 33.92 309.823 33.96 310.163 34.06V36.64C309.843 36.56 309.523 36.52 309.183 36.52C307.963 36.52 306.863 37.08 306.283 38.04V44H303.623V34.04ZM310.974 39C310.974 36.2 313.314 33.86 316.034 33.86C318.974 33.86 320.934 35.78 321.154 39.04C321.174 39.34 321.174 39.84 321.174 40.14H313.894C314.154 41.08 315.094 41.9 316.274 41.9C317.314 41.9 318.214 41.3 318.634 40.6L320.734 41.64C319.834 43.16 318.354 44.18 316.254 44.18C312.874 44.18 310.974 41.86 310.974 39ZM313.854 38.18H318.314C318.214 37.14 317.414 36.16 316.154 36.16C314.854 36.16 314.074 37.08 313.854 38.18ZM325.722 44.18C323.882 44.18 322.282 43.24 322.282 41.16C322.282 39.04 324.022 38.06 326.242 38.06L328.482 38.04V37.72C328.482 36.52 327.562 36.06 326.562 36.06C325.542 36.06 324.562 36.72 324.002 37.22L322.782 35.5C323.982 34.24 325.402 33.86 327.082 33.86C329.302 33.86 331.142 35.2 331.142 37.3V44H328.482V43.2C327.782 43.82 326.942 44.18 325.722 44.18ZM326.562 39.88C325.742 39.88 325.042 40.1 325.042 40.96C325.042 41.78 325.722 42.1 326.502 42.1C327.462 42.1 328.022 41.66 328.482 41.02V39.88H326.562ZM333.37 39.68V30.4H336.03V34.04H339.07V36.32H336.03V39.7C336.03 40.96 336.29 41.72 337.39 41.72C337.71 41.72 338.85 41.66 339.07 41.6V44C338.59 44.1 337.41 44.18 337.05 44.18C334.47 44.16 333.37 42.56 333.37 39.68ZM340.154 39C340.154 36.2 342.474 33.86 345.334 33.86C348.134 33.86 350.474 36.2 350.474 39C350.474 41.88 348.134 44.2 345.334 44.2C342.474 44.2 340.154 41.88 340.154 39ZM342.894 39C342.894 40.34 343.694 41.82 345.354 41.82C346.974 41.82 347.714 40.34 347.714 39C347.714 37.7 346.974 36.24 345.354 36.24C343.694 36.24 342.894 37.7 342.894 39ZM352.12 34.04H354.78V35.3C355.48 34.44 356.42 33.92 357.6 33.92C357.98 33.92 358.32 33.96 358.66 34.06V36.64C358.34 36.56 358.02 36.52 357.68 36.52C356.46 36.52 355.36 37.08 354.78 38.04V44H352.12V34.04ZM367.588 40.88C367.588 43.12 365.808 44.18 363.088 44.18C361.968 44.18 360.808 43.92 359.788 43.6V41.22C360.608 41.52 361.928 41.9 363.128 41.9C364.328 41.9 364.888 41.54 364.888 41.08C364.888 39.82 359.568 40.5 359.568 36.9C359.568 34.98 361.508 33.84 363.628 33.84C365.368 33.84 366.348 34.18 366.928 34.44V36.72C366.308 36.42 365.228 36.02 364.028 36.02C363.088 36.02 362.308 36.34 362.308 36.96C362.308 38.16 367.588 37.48 367.588 40.88Z" fill="white"/>
</svg>
