<svg width="763" height="65" viewBox="0 0 763 65" fill="none" xmlns="http://www.w3.org/2000/svg">
<rect opacity="0.5" y="10" width="763" height="55" fill="#1D0931" fill-opacity="0.4"/>
<g filter="url(#filter0_d_10_26)">
<mask id="path-2-outside-1_10_26" maskUnits="userSpaceOnUse" x="177" y="29" width="54" height="17" fill="black">
<rect fill="white" x="177" y="29" width="54" height="17"/>
<path d="M178.02 44V30.4H180.86V36.04H186.56V30.4H189.4V44H186.56V38.52H180.86V44H178.02ZM191.169 39C191.169 36.2 193.489 33.86 196.349 33.86C199.149 33.86 201.489 36.2 201.489 39C201.489 41.88 199.149 44.2 196.349 44.2C193.489 44.2 191.169 41.88 191.169 39ZM193.909 39C193.909 40.34 194.709 41.82 196.369 41.82C197.989 41.82 198.729 40.34 198.729 39C198.729 37.7 197.989 36.24 196.369 36.24C194.709 36.24 193.909 37.7 193.909 39ZM205.795 44H203.135V34.04H205.795V35.16C206.515 34.38 207.455 33.86 208.675 33.86C209.875 33.86 210.835 34.48 211.375 35.5C212.155 34.56 213.235 33.86 214.655 33.86C216.415 33.86 217.755 35.28 217.755 37.1V44H214.995V38.02C214.995 36.64 214.295 36.38 213.715 36.38C213.015 36.38 212.335 36.7 211.795 37.2V44H209.035V38.02C209.035 36.64 208.335 36.38 207.755 36.38C207.015 36.38 206.335 36.76 205.795 37.3V44ZM219.412 39C219.412 36.2 221.752 33.86 224.472 33.86C227.412 33.86 229.372 35.78 229.592 39.04C229.612 39.34 229.612 39.84 229.612 40.14H222.332C222.592 41.08 223.532 41.9 224.712 41.9C225.752 41.9 226.652 41.3 227.072 40.6L229.172 41.64C228.272 43.16 226.792 44.18 224.692 44.18C221.312 44.18 219.412 41.86 219.412 39ZM222.292 38.18H226.752C226.652 37.14 225.852 36.16 224.592 36.16C223.292 36.16 222.512 37.08 222.292 38.18Z"/>
</mask>
<path d="M178.02 44V30.4H180.86V36.04H186.56V30.4H189.4V44H186.56V38.52H180.86V44H178.02ZM191.169 39C191.169 36.2 193.489 33.86 196.349 33.86C199.149 33.86 201.489 36.2 201.489 39C201.489 41.88 199.149 44.2 196.349 44.2C193.489 44.2 191.169 41.88 191.169 39ZM193.909 39C193.909 40.34 194.709 41.82 196.369 41.82C197.989 41.82 198.729 40.34 198.729 39C198.729 37.7 197.989 36.24 196.369 36.24C194.709 36.24 193.909 37.7 193.909 39ZM205.795 44H203.135V34.04H205.795V35.16C206.515 34.38 207.455 33.86 208.675 33.86C209.875 33.86 210.835 34.48 211.375 35.5C212.155 34.56 213.235 33.86 214.655 33.86C216.415 33.86 217.755 35.28 217.755 37.1V44H214.995V38.02C214.995 36.64 214.295 36.38 213.715 36.38C213.015 36.38 212.335 36.7 211.795 37.2V44H209.035V38.02C209.035 36.64 208.335 36.38 207.755 36.38C207.015 36.38 206.335 36.76 205.795 37.3V44ZM219.412 39C219.412 36.2 221.752 33.86 224.472 33.86C227.412 33.86 229.372 35.78 229.592 39.04C229.612 39.34 229.612 39.84 229.612 40.14H222.332C222.592 41.08 223.532 41.9 224.712 41.9C225.752 41.9 226.652 41.3 227.072 40.6L229.172 41.64C228.272 43.16 226.792 44.18 224.692 44.18C221.312 44.18 219.412 41.86 219.412 39ZM222.292 38.18H226.752C226.652 37.14 225.852 36.16 224.592 36.16C223.292 36.16 222.512 37.08 222.292 38.18Z" fill="white"/>
<path d="M178.02 44H177.02V45H178.02V44ZM178.02 30.4V29.4H177.02V30.4H178.02ZM180.86 30.4H181.86V29.4H180.86V30.4ZM180.86 36.04H179.86V37.04H180.86V36.04ZM186.56 36.04V37.04H187.56V36.04H186.56ZM186.56 30.4V29.4H185.56V30.4H186.56ZM189.4 30.4H190.4V29.4H189.4V30.4ZM189.4 44V45H190.4V44H189.4ZM186.56 44H185.56V45H186.56V44ZM186.56 38.52H187.56V37.52H186.56V38.52ZM180.86 38.52V37.52H179.86V38.52H180.86ZM180.86 44V45H181.86V44H180.86ZM178.02 44H179.02V30.4H178.02H177.02V44H178.02ZM178.02 30.4V31.4H180.86V30.4V29.4H178.02V30.4ZM180.86 30.4H179.86V36.04H180.86H181.86V30.4H180.86ZM180.86 36.04V37.04H186.56V36.04V35.04H180.86V36.04ZM186.56 36.04H187.56V30.4H186.56H185.56V36.04H186.56ZM186.56 30.4V31.4H189.4V30.4V29.4H186.56V30.4ZM189.4 30.4H188.4V44H189.4H190.4V30.4H189.4ZM189.4 44V43H186.56V44V45H189.4V44ZM186.56 44H187.56V38.52H186.56H185.56V44H186.56ZM186.56 38.52V37.52H180.86V38.52V39.52H186.56V38.52ZM180.86 38.52H179.86V44H180.86H181.86V38.52H180.86ZM180.86 44V43H178.02V44V45H180.86V44ZM191.169 39H192.169C192.169 36.7548 194.039 34.86 196.349 34.86V33.86V32.86C192.94 32.86 190.169 35.6452 190.169 39H191.169ZM196.349 33.86V34.86C198.597 34.86 200.489 36.7523 200.489 39H201.489H202.489C202.489 35.6477 199.702 32.86 196.349 32.86V33.86ZM201.489 39H200.489C200.489 41.3328 198.592 43.2 196.349 43.2V44.2V45.2C199.707 45.2 202.489 42.4272 202.489 39H201.489ZM196.349 44.2V43.2C194.044 43.2 192.169 41.3302 192.169 39H191.169H190.169C190.169 42.4298 192.935 45.2 196.349 45.2V44.2ZM193.909 39H192.909C192.909 39.8515 193.16 40.7782 193.72 41.5166C194.301 42.2834 195.202 42.82 196.369 42.82V41.82V40.82C195.877 40.82 195.547 40.6166 195.314 40.3084C195.059 39.9718 194.909 39.4885 194.909 39H193.909ZM196.369 41.82V42.82C197.53 42.82 198.41 42.2708 198.968 41.4973C199.502 40.7564 199.729 39.835 199.729 39H198.729H197.729C197.729 39.505 197.587 39.9936 197.346 40.3277C197.128 40.6292 196.829 40.82 196.369 40.82V41.82ZM198.729 39H199.729C199.729 38.1793 199.499 37.2708 198.963 36.5405C198.403 35.7784 197.524 35.24 196.369 35.24V36.24V37.24C196.835 37.24 197.136 37.4316 197.351 37.7245C197.589 38.0492 197.729 38.5207 197.729 39H198.729ZM196.369 36.24V35.24C195.208 35.24 194.309 35.7662 193.726 36.5212C193.164 37.2486 192.909 38.1623 192.909 39H193.909H194.909C194.909 38.5377 195.055 38.0714 195.308 37.7438C195.54 37.4438 195.871 37.24 196.369 37.24V36.24ZM205.795 44V45H206.795V44H205.795ZM203.135 44H202.135V45H203.135V44ZM203.135 34.04V33.04H202.135V34.04H203.135ZM205.795 34.04H206.795V33.04H205.795V34.04ZM205.795 35.16H204.795V37.7176L206.53 35.8383L205.795 35.16ZM211.375 35.5L210.491 35.9679L211.191 37.2885L212.145 36.1386L211.375 35.5ZM217.755 44V45H218.755V44H217.755ZM214.995 44H213.995V45H214.995V44ZM211.795 37.2L211.116 36.4662L210.795 36.7631V37.2H211.795ZM211.795 44V45H212.795V44H211.795ZM209.035 44H208.035V45H209.035V44ZM205.795 37.3L205.088 36.5929L204.795 36.8858V37.3H205.795ZM205.795 44V43H203.135V44V45H205.795V44ZM203.135 44H204.135V34.04H203.135H202.135V44H203.135ZM203.135 34.04V35.04H205.795V34.04V33.04H203.135V34.04ZM205.795 34.04H204.795V35.16H205.795H206.795V34.04H205.795ZM205.795 35.16L206.53 35.8383C207.093 35.228 207.779 34.86 208.675 34.86V33.86V32.86C207.131 32.86 205.937 33.532 205.06 34.4817L205.795 35.16ZM208.675 33.86V34.86C209.487 34.86 210.116 35.2597 210.491 35.9679L211.375 35.5L212.259 35.0321C211.554 33.7003 210.263 32.86 208.675 32.86V33.86ZM211.375 35.5L212.145 36.1386C212.788 35.3635 213.607 34.86 214.655 34.86V33.86V32.86C212.863 32.86 211.522 33.7565 210.606 34.8614L211.375 35.5ZM214.655 33.86V34.86C215.818 34.86 216.755 35.7862 216.755 37.1H217.755H218.755C218.755 34.7738 217.012 32.86 214.655 32.86V33.86ZM217.755 37.1H216.755V44H217.755H218.755V37.1H217.755ZM217.755 44V43H214.995V44V45H217.755V44ZM214.995 44H215.995V38.02H214.995H213.995V44H214.995ZM214.995 38.02H215.995C215.995 37.1733 215.779 36.4544 215.265 35.961C214.757 35.4733 214.137 35.38 213.715 35.38V36.38V37.38C213.789 37.38 213.836 37.3887 213.862 37.3968C213.874 37.4004 213.879 37.4033 213.88 37.404C213.881 37.4043 213.881 37.4044 213.88 37.4042C213.88 37.4039 213.88 37.4038 213.88 37.404C213.881 37.4042 213.882 37.4054 213.884 37.4078C213.886 37.4102 213.889 37.4146 213.893 37.4215C213.902 37.4351 213.915 37.4611 213.931 37.5051C213.961 37.5952 213.995 37.7563 213.995 38.02H214.995ZM213.715 36.38V35.38C212.709 35.38 211.797 35.8357 211.116 36.4662L211.795 37.2L212.475 37.9338C212.874 37.5643 213.321 37.38 213.715 37.38V36.38ZM211.795 37.2H210.795V44H211.795H212.795V37.2H211.795ZM211.795 44V43H209.035V44V45H211.795V44ZM209.035 44H210.035V38.02H209.035H208.035V44H209.035ZM209.035 38.02H210.035C210.035 37.1733 209.819 36.4544 209.305 35.961C208.797 35.4733 208.177 35.38 207.755 35.38V36.38V37.38C207.829 37.38 207.876 37.3887 207.902 37.3968C207.914 37.4004 207.919 37.4033 207.92 37.404C207.921 37.4043 207.921 37.4044 207.92 37.4042C207.92 37.4039 207.92 37.4038 207.92 37.404C207.921 37.4042 207.922 37.4054 207.924 37.4078C207.926 37.4102 207.929 37.4146 207.933 37.4215C207.942 37.4351 207.955 37.4611 207.971 37.5051C208.001 37.5952 208.035 37.7563 208.035 38.02H209.035ZM207.755 36.38V35.38C206.664 35.38 205.744 35.9367 205.088 36.5929L205.795 37.3L206.502 38.0071C206.926 37.5833 207.367 37.38 207.755 37.38V36.38ZM205.795 37.3H204.795V44H205.795H206.795V37.3H205.795ZM229.592 39.04L230.589 38.9735L230.589 38.9727L229.592 39.04ZM229.612 40.14V41.14H230.612V40.14H229.612ZM222.332 40.14V39.14H221.017L221.368 40.4066L222.332 40.14ZM227.072 40.6L227.515 39.7039L226.689 39.2945L226.214 40.0855L227.072 40.6ZM229.172 41.64L230.032 42.1495L230.581 41.2222L229.615 40.7439L229.172 41.64ZM222.292 38.18L221.311 37.9839L221.072 39.18H222.292V38.18ZM226.752 38.18V39.18H227.852L227.747 38.0843L226.752 38.18ZM219.412 39H220.412C220.412 36.7421 222.314 34.86 224.472 34.86V33.86V32.86C221.189 32.86 218.412 35.6579 218.412 39H219.412ZM224.472 33.86V34.86C225.715 34.86 226.672 35.2603 227.343 35.9336C228.022 36.6137 228.496 37.6614 228.594 39.1073L229.592 39.04L230.589 38.9727C230.467 37.1586 229.852 35.6163 228.76 34.5214C227.661 33.4197 226.168 32.86 224.472 32.86V33.86ZM229.592 39.04L228.594 39.1065C228.611 39.3653 228.612 39.8258 228.612 40.14H229.612H230.612C230.612 39.8542 230.612 39.3147 230.589 38.9735L229.592 39.04ZM229.612 40.14V39.14H222.332V40.14V41.14H229.612V40.14ZM222.332 40.14L221.368 40.4066C221.743 41.7634 223.065 42.9 224.712 42.9V41.9V40.9C223.998 40.9 223.44 40.3966 223.295 39.8734L222.332 40.14ZM224.712 41.9V42.9C226.122 42.9 227.338 42.0991 227.929 41.1145L227.072 40.6L226.214 40.0855C225.965 40.5009 225.381 40.9 224.712 40.9V41.9ZM227.072 40.6L226.628 41.4961L228.728 42.5361L229.172 41.64L229.615 40.7439L227.515 39.7039L227.072 40.6ZM229.172 41.64L228.311 41.1305C227.575 42.3738 226.408 43.18 224.692 43.18V44.18V45.18C227.176 45.18 228.968 43.9462 230.032 42.1495L229.172 41.64ZM224.692 44.18V43.18C223.242 43.18 222.194 42.689 221.506 41.971C220.811 41.2448 220.412 40.2095 220.412 39H219.412H218.412C218.412 40.6505 218.962 42.2052 220.062 43.354C221.169 44.511 222.762 45.18 224.692 45.18V44.18ZM222.292 38.18V39.18H226.752V38.18V37.18H222.292V38.18ZM226.752 38.18L227.747 38.0843C227.607 36.6323 226.462 35.16 224.592 35.16V36.16V37.16C225.241 37.16 225.696 37.6477 225.756 38.2757L226.752 38.18ZM224.592 36.16V35.16C222.691 35.16 221.598 36.5498 221.311 37.9839L222.292 38.18L223.272 38.3761C223.425 37.6102 223.892 37.16 224.592 37.16V36.16Z" fill="black" mask="url(#path-2-outside-1_10_26)"/>
</g>
<g filter="url(#filter1_d_10_26)">
<mask id="path-4-outside-2_10_26" maskUnits="userSpaceOnUse" x="519" y="29" width="75" height="17" fill="black">
<rect fill="white" x="519" y="29" width="75" height="17"/>
<path d="M527.442 44.2C523.362 44.2 520.822 40.94 520.822 37.18C520.822 33.42 523.362 30.2 527.442 30.2C530.382 30.2 532.222 31.74 533.282 33.72L530.822 35.26C530.042 33.88 528.882 32.78 527.442 32.78C525.102 32.78 523.842 34.92 523.842 37.18C523.842 39.42 525.102 41.62 527.442 41.62C528.862 41.62 530.122 40.66 530.822 39.3L533.282 40.86C532.222 42.86 530.382 44.2 527.442 44.2ZM534.394 39C534.394 36.2 536.714 33.86 539.574 33.86C542.374 33.86 544.714 36.2 544.714 39C544.714 41.88 542.374 44.2 539.574 44.2C536.714 44.2 534.394 41.88 534.394 39ZM537.134 39C537.134 40.34 537.934 41.82 539.594 41.82C541.214 41.82 541.954 40.34 541.954 39C541.954 37.7 541.214 36.24 539.594 36.24C537.934 36.24 537.134 37.7 537.134 39ZM546.36 44V34.04H549.02V35.16C549.76 34.38 550.76 33.86 552.14 33.86C554.02 33.86 555.44 35.3 555.44 37.14V44H552.7V38.2C552.7 36.68 551.88 36.38 551.16 36.38C550.36 36.38 549.64 36.8 549.02 37.58V44H546.36ZM557.668 39.68V30.4H560.328V34.04H563.368V36.32H560.328V39.7C560.328 40.96 560.588 41.72 561.688 41.72C562.008 41.72 563.148 41.66 563.368 41.6V44C562.888 44.1 561.708 44.18 561.348 44.18C558.768 44.16 557.668 42.56 557.668 39.68ZM568.068 44.18C566.228 44.18 564.628 43.24 564.628 41.16C564.628 39.04 566.368 38.06 568.588 38.06L570.828 38.04V37.72C570.828 36.52 569.908 36.06 568.908 36.06C567.888 36.06 566.908 36.72 566.348 37.22L565.128 35.5C566.328 34.24 567.748 33.86 569.428 33.86C571.648 33.86 573.488 35.2 573.488 37.3V44H570.828V43.2C570.128 43.82 569.288 44.18 568.068 44.18ZM568.908 39.88C568.088 39.88 567.388 40.1 567.388 40.96C567.388 41.78 568.068 42.1 568.848 42.1C569.808 42.1 570.368 41.66 570.828 41.02V39.88H568.908ZM580.335 44.18C577.455 44.18 575.175 41.86 575.175 39C575.175 36.2 577.455 33.86 580.335 33.86C582.495 33.86 584.095 34.98 584.815 36.64L582.715 37.9C582.335 37.08 581.535 36.24 580.355 36.24C578.695 36.24 577.915 37.68 577.915 39C577.915 40.34 578.695 41.8 580.355 41.8C581.555 41.8 582.395 40.86 582.775 40L584.855 41.26C584.155 43.02 582.555 44.18 580.335 44.18ZM586.418 39.68V30.4H589.078V34.04H592.118V36.32H589.078V39.7C589.078 40.96 589.338 41.72 590.438 41.72C590.758 41.72 591.898 41.66 592.118 41.6V44C591.638 44.1 590.458 44.18 590.098 44.18C587.518 44.16 586.418 42.56 586.418 39.68Z"/>
</mask>
<path d="M527.442 44.2C523.362 44.2 520.822 40.94 520.822 37.18C520.822 33.42 523.362 30.2 527.442 30.2C530.382 30.2 532.222 31.74 533.282 33.72L530.822 35.26C530.042 33.88 528.882 32.78 527.442 32.78C525.102 32.78 523.842 34.92 523.842 37.18C523.842 39.42 525.102 41.62 527.442 41.62C528.862 41.62 530.122 40.66 530.822 39.3L533.282 40.86C532.222 42.86 530.382 44.2 527.442 44.2ZM534.394 39C534.394 36.2 536.714 33.86 539.574 33.86C542.374 33.86 544.714 36.2 544.714 39C544.714 41.88 542.374 44.2 539.574 44.2C536.714 44.2 534.394 41.88 534.394 39ZM537.134 39C537.134 40.34 537.934 41.82 539.594 41.82C541.214 41.82 541.954 40.34 541.954 39C541.954 37.7 541.214 36.24 539.594 36.24C537.934 36.24 537.134 37.7 537.134 39ZM546.36 44V34.04H549.02V35.16C549.76 34.38 550.76 33.86 552.14 33.86C554.02 33.86 555.44 35.3 555.44 37.14V44H552.7V38.2C552.7 36.68 551.88 36.38 551.16 36.38C550.36 36.38 549.64 36.8 549.02 37.58V44H546.36ZM557.668 39.68V30.4H560.328V34.04H563.368V36.32H560.328V39.7C560.328 40.96 560.588 41.72 561.688 41.72C562.008 41.72 563.148 41.66 563.368 41.6V44C562.888 44.1 561.708 44.18 561.348 44.18C558.768 44.16 557.668 42.56 557.668 39.68ZM568.068 44.18C566.228 44.18 564.628 43.24 564.628 41.16C564.628 39.04 566.368 38.06 568.588 38.06L570.828 38.04V37.72C570.828 36.52 569.908 36.06 568.908 36.06C567.888 36.06 566.908 36.72 566.348 37.22L565.128 35.5C566.328 34.24 567.748 33.86 569.428 33.86C571.648 33.86 573.488 35.2 573.488 37.3V44H570.828V43.2C570.128 43.82 569.288 44.18 568.068 44.18ZM568.908 39.88C568.088 39.88 567.388 40.1 567.388 40.96C567.388 41.78 568.068 42.1 568.848 42.1C569.808 42.1 570.368 41.66 570.828 41.02V39.88H568.908ZM580.335 44.18C577.455 44.18 575.175 41.86 575.175 39C575.175 36.2 577.455 33.86 580.335 33.86C582.495 33.86 584.095 34.98 584.815 36.64L582.715 37.9C582.335 37.08 581.535 36.24 580.355 36.24C578.695 36.24 577.915 37.68 577.915 39C577.915 40.34 578.695 41.8 580.355 41.8C581.555 41.8 582.395 40.86 582.775 40L584.855 41.26C584.155 43.02 582.555 44.18 580.335 44.18ZM586.418 39.68V30.4H589.078V34.04H592.118V36.32H589.078V39.7C589.078 40.96 589.338 41.72 590.438 41.72C590.758 41.72 591.898 41.66 592.118 41.6V44C591.638 44.1 590.458 44.18 590.098 44.18C587.518 44.16 586.418 42.56 586.418 39.68Z" fill="white"/>
<path d="M533.282 33.72L533.813 34.5676L534.605 34.0718L534.164 33.248L533.282 33.72ZM530.822 35.26L529.952 35.7521L530.466 36.6626L531.353 36.1076L530.822 35.26ZM530.822 39.3L531.358 38.4555L530.434 37.8696L529.933 38.8424L530.822 39.3ZM533.282 40.86L534.166 41.3283L534.599 40.5109L533.818 40.0155L533.282 40.86ZM527.442 44.2V43.2C524.02 43.2 521.822 40.4993 521.822 37.18H520.822H519.822C519.822 41.3807 522.704 45.2 527.442 45.2V44.2ZM520.822 37.18H521.822C521.822 33.8684 524.013 31.2 527.442 31.2V30.2V29.2C522.711 29.2 519.822 32.9716 519.822 37.18H520.822ZM527.442 30.2V31.2C529.949 31.2 531.482 32.4761 532.4 34.192L533.282 33.72L534.164 33.248C532.962 31.0039 530.815 29.2 527.442 29.2V30.2ZM533.282 33.72L532.751 32.8724L530.291 34.4124L530.822 35.26L531.353 36.1076L533.813 34.5676L533.282 33.72ZM530.822 35.26L531.693 34.7679C530.854 33.2834 529.432 31.78 527.442 31.78V32.78V33.78C528.333 33.78 529.231 34.4766 529.952 35.7521L530.822 35.26ZM527.442 32.78V31.78C525.927 31.78 524.74 32.4886 523.962 33.536C523.203 34.5578 522.842 35.8785 522.842 37.18H523.842H524.842C524.842 36.2215 525.112 35.3422 525.567 34.729C526.004 34.1414 526.617 33.78 527.442 33.78V32.78ZM523.842 37.18H522.842C522.842 38.4723 523.203 39.7995 523.958 40.8306C524.731 41.8867 525.916 42.62 527.442 42.62V41.62V40.62C526.628 40.62 526.014 40.2533 525.572 39.6494C525.111 39.0205 524.842 38.1277 524.842 37.18H523.842ZM527.442 41.62V42.62C529.336 42.62 530.891 41.3517 531.711 39.7576L530.822 39.3L529.933 38.8424C529.353 39.9683 528.388 40.62 527.442 40.62V41.62ZM530.822 39.3L530.287 40.1445L532.747 41.7045L533.282 40.86L533.818 40.0155L531.358 38.4555L530.822 39.3ZM533.282 40.86L532.399 40.3917C531.939 41.2593 531.33 41.949 530.547 42.4261C529.765 42.9024 528.756 43.2 527.442 43.2V44.2V45.2C529.069 45.2 530.449 44.8276 531.587 44.1339C532.725 43.441 533.565 42.4607 534.166 41.3283L533.282 40.86ZM534.394 39H535.394C535.394 36.7548 537.264 34.86 539.574 34.86V33.86V32.86C536.164 32.86 533.394 35.6452 533.394 39H534.394ZM539.574 33.86V34.86C541.822 34.86 543.714 36.7523 543.714 39H544.714H545.714C545.714 35.6477 542.926 32.86 539.574 32.86V33.86ZM544.714 39H543.714C543.714 41.3328 541.817 43.2 539.574 43.2V44.2V45.2C542.931 45.2 545.714 42.4272 545.714 39H544.714ZM539.574 44.2V43.2C537.269 43.2 535.394 41.3302 535.394 39H534.394H533.394C533.394 42.4298 536.159 45.2 539.574 45.2V44.2ZM537.134 39H536.134C536.134 39.8515 536.385 40.7782 536.945 41.5166C537.526 42.2834 538.427 42.82 539.594 42.82V41.82V40.82C539.101 40.82 538.772 40.6166 538.538 40.3084C538.283 39.9718 538.134 39.4885 538.134 39H537.134ZM539.594 41.82V42.82C540.755 42.82 541.635 42.2708 542.193 41.4973C542.727 40.7564 542.954 39.835 542.954 39H541.954H540.954C540.954 39.505 540.811 39.9936 540.57 40.3277C540.353 40.6292 540.053 40.82 539.594 40.82V41.82ZM541.954 39H542.954C542.954 38.1793 542.724 37.2708 542.187 36.5405C541.628 35.7784 540.749 35.24 539.594 35.24V36.24V37.24C540.059 37.24 540.36 37.4316 540.576 37.7245C540.814 38.0492 540.954 38.5207 540.954 39H541.954ZM539.594 36.24V35.24C538.433 35.24 537.533 35.7662 536.95 36.5212C536.388 37.2486 536.134 38.1623 536.134 39H537.134H538.134C538.134 38.5377 538.28 38.0714 538.533 37.7438C538.765 37.4438 539.095 37.24 539.594 37.24V36.24ZM546.36 44H545.36V45H546.36V44ZM546.36 34.04V33.04H545.36V34.04H546.36ZM549.02 34.04H550.02V33.04H549.02V34.04ZM549.02 35.16H548.02V37.667L549.745 35.8483L549.02 35.16ZM555.44 44V45H556.44V44H555.44ZM552.7 44H551.7V45H552.7V44ZM549.02 37.58L548.237 36.9578L548.02 37.231V37.58H549.02ZM549.02 44V45H550.02V44H549.02ZM546.36 44H547.36V34.04H546.36H545.36V44H546.36ZM546.36 34.04V35.04H549.02V34.04V33.04H546.36V34.04ZM549.02 34.04H548.02V35.16H549.02H550.02V34.04H549.02ZM549.02 35.16L549.745 35.8483C550.307 35.2565 551.049 34.86 552.14 34.86V33.86V32.86C550.471 32.86 549.213 33.5035 548.294 34.4717L549.02 35.16ZM552.14 33.86V34.86C553.467 34.86 554.44 35.8523 554.44 37.14H555.44H556.44C556.44 34.7477 554.572 32.86 552.14 32.86V33.86ZM555.44 37.14H554.44V44H555.44H556.44V37.14H555.44ZM555.44 44V43H552.7V44V45H555.44V44ZM552.7 44H553.7V38.2H552.7H551.7V44H552.7ZM552.7 38.2H553.7C553.7 37.2664 553.444 36.4937 552.868 35.9761C552.311 35.476 551.636 35.38 551.16 35.38V36.38V37.38C551.403 37.38 551.498 37.434 551.531 37.4639C551.545 37.4763 551.7 37.6136 551.7 38.2H552.7ZM551.16 36.38V35.38C549.964 35.38 548.982 36.0205 548.237 36.9578L549.02 37.58L549.803 38.2022C550.298 37.5795 550.755 37.38 551.16 37.38V36.38ZM549.02 37.58H548.02V44H549.02H550.02V37.58H549.02ZM549.02 44V43H546.36V44V45H549.02V44ZM557.668 30.4V29.4H556.668V30.4H557.668ZM560.328 30.4H561.328V29.4H560.328V30.4ZM560.328 34.04H559.328V35.04H560.328V34.04ZM563.368 34.04H564.368V33.04H563.368V34.04ZM563.368 36.32V37.32H564.368V36.32H563.368ZM560.328 36.32V35.32H559.328V36.32H560.328ZM563.368 41.6H564.368V40.2907L563.105 40.6352L563.368 41.6ZM563.368 44L563.572 44.979L564.368 44.8131V44H563.368ZM561.348 44.18L561.341 45.18H561.348V44.18ZM557.668 39.68H558.668V30.4H557.668H556.668V39.68H557.668ZM557.668 30.4V31.4H560.328V30.4V29.4H557.668V30.4ZM560.328 30.4H559.328V34.04H560.328H561.328V30.4H560.328ZM560.328 34.04V35.04H563.368V34.04V33.04H560.328V34.04ZM563.368 34.04H562.368V36.32H563.368H564.368V34.04H563.368ZM563.368 36.32V35.32H560.328V36.32V37.32H563.368V36.32ZM560.328 36.32H559.328V39.7H560.328H561.328V36.32H560.328ZM560.328 39.7H559.328C559.328 40.3471 559.385 41.09 559.732 41.686C559.921 42.0111 560.194 42.2876 560.559 42.4732C560.914 42.6534 561.301 42.72 561.688 42.72V41.72V40.72C561.525 40.72 561.468 40.6916 561.465 40.69C561.463 40.6892 561.466 40.6909 561.47 40.6943C561.473 40.6971 561.469 40.6943 561.46 40.679C561.439 40.6436 561.402 40.5572 561.372 40.3822C561.343 40.2089 561.328 39.9856 561.328 39.7H560.328ZM561.688 41.72V42.72C561.881 42.72 562.272 42.7033 562.63 42.6805C562.812 42.6688 562.998 42.6549 563.156 42.6392C563.282 42.6269 563.481 42.6059 563.631 42.5648L563.368 41.6L563.105 40.6352C563.146 40.6241 563.12 40.6332 562.96 40.6489C562.833 40.6614 562.672 40.6737 562.502 40.6845C562.155 40.7067 561.816 40.72 561.688 40.72V41.72ZM563.368 41.6H562.368V44H563.368H564.368V41.6H563.368ZM563.368 44L563.164 43.021C562.992 43.0569 562.634 43.0982 562.232 43.1308C561.839 43.1627 561.487 43.18 561.348 43.18V44.18V45.18C561.745 45.18 563 45.0982 563.572 44.979L563.368 44ZM561.348 44.18L561.356 43.18C560.284 43.1717 559.69 42.8476 559.328 42.3857C558.93 41.8773 558.668 41.0214 558.668 39.68H557.668H556.668C556.668 41.2186 556.957 42.6027 557.754 43.6193C558.587 44.6824 559.833 45.1683 561.341 45.18L561.348 44.18ZM568.588 38.06V39.06L568.597 39.06L568.588 38.06ZM570.828 38.04L570.837 39.04L571.828 39.0311V38.04H570.828ZM566.348 37.22L565.532 37.7985L566.179 38.711L567.014 37.9659L566.348 37.22ZM565.128 35.5L564.404 34.8103L563.836 35.4068L564.312 36.0785L565.128 35.5ZM573.488 44V45H574.488V44H573.488ZM570.828 44H569.828V45H570.828V44ZM570.828 43.2H571.828V40.9784L570.165 42.4514L570.828 43.2ZM570.828 41.02L571.64 41.6036L571.828 41.3421V41.02H570.828ZM570.828 39.88H571.828V38.88H570.828V39.88ZM568.068 44.18V43.18C567.303 43.18 566.682 42.9828 566.276 42.6637C565.902 42.3703 565.628 41.9132 565.628 41.16H564.628H563.628C563.628 42.4868 564.153 43.5397 565.04 44.2363C565.894 44.9072 566.993 45.18 568.068 45.18V44.18ZM564.628 41.16H565.628C565.628 40.4145 565.914 39.9457 566.357 39.6282C566.844 39.2796 567.606 39.06 568.588 39.06V38.06V37.06C567.35 37.06 566.131 37.3304 565.193 38.0018C564.212 38.7043 563.628 39.7855 563.628 41.16H564.628ZM568.588 38.06L568.597 39.06L570.837 39.04L570.828 38.04L570.819 37.04L568.579 37.06L568.588 38.06ZM570.828 38.04H571.828V37.72H570.828H569.828V38.04H570.828ZM570.828 37.72H571.828C571.828 36.8296 571.468 36.107 570.841 35.6386C570.257 35.2027 569.541 35.06 568.908 35.06V36.06V37.06C569.275 37.06 569.519 37.1473 569.645 37.2414C569.727 37.303 569.828 37.4104 569.828 37.72H570.828ZM568.908 36.06V35.06C567.508 35.06 566.291 35.9304 565.682 36.4741L566.348 37.22L567.014 37.9659C567.525 37.5096 568.268 37.06 568.908 37.06V36.06ZM566.348 37.22L567.164 36.6415L565.944 34.9215L565.128 35.5L564.312 36.0785L565.532 37.7985L566.348 37.22ZM565.128 35.5L565.852 36.1897C566.803 35.1913 567.92 34.86 569.428 34.86V33.86V32.86C567.576 32.86 565.853 33.2887 564.404 34.8103L565.128 35.5ZM569.428 33.86V34.86C571.303 34.86 572.488 35.9387 572.488 37.3H573.488H574.488C574.488 34.4613 571.993 32.86 569.428 32.86V33.86ZM573.488 37.3H572.488V44H573.488H574.488V37.3H573.488ZM573.488 44V43H570.828V44V45H573.488V44ZM570.828 44H571.828V43.2H570.828H569.828V44H570.828ZM570.828 43.2L570.165 42.4514C569.654 42.9037 569.052 43.18 568.068 43.18V44.18V45.18C569.523 45.18 570.602 44.7363 571.491 43.9486L570.828 43.2ZM568.908 39.88V38.88C568.445 38.88 567.846 38.9353 567.335 39.2346C566.732 39.5876 566.388 40.1976 566.388 40.96H567.388H568.388C568.388 40.8825 568.403 40.8806 568.385 40.9131C568.365 40.9482 568.341 40.9631 568.346 40.9604C568.358 40.9532 568.405 40.9301 568.509 40.9105C568.612 40.8913 568.744 40.88 568.908 40.88V39.88ZM567.388 40.96H566.388C566.388 41.6938 566.716 42.291 567.262 42.6636C567.755 43.0003 568.344 43.1 568.848 43.1V42.1V41.1C568.719 41.1 568.612 41.0866 568.53 41.0663C568.448 41.0459 568.405 41.0224 568.389 41.0114C568.377 41.0033 568.385 41.0063 568.393 41.0209C568.4 41.0352 568.388 41.0236 568.388 40.96H567.388ZM568.848 42.1V43.1C569.491 43.1 570.052 42.9494 570.539 42.6581C571.014 42.3736 571.364 41.9881 571.64 41.6036L570.828 41.02L570.016 40.4364C569.832 40.6919 569.671 40.8464 569.512 40.9419C569.364 41.0306 569.164 41.1 568.848 41.1V42.1ZM570.828 41.02H571.828V39.88H570.828H569.828V41.02H570.828ZM570.828 39.88V38.88H568.908V39.88V40.88H570.828V39.88ZM584.815 36.64L585.33 37.4975L586.082 37.0464L585.733 36.2421L584.815 36.64ZM582.715 37.9L581.808 38.3205L582.276 39.3299L583.23 38.7575L582.715 37.9ZM582.775 40L583.293 39.1447L582.32 38.5553L581.861 39.5958L582.775 40ZM584.855 41.26L585.784 41.6296L586.097 40.8432L585.373 40.4047L584.855 41.26ZM580.335 44.18V43.18C578.015 43.18 576.175 41.3153 576.175 39H575.175H574.175C574.175 42.4047 576.895 45.18 580.335 45.18V44.18ZM575.175 39H576.175C576.175 36.7472 578.013 34.86 580.335 34.86V33.86V32.86C576.898 32.86 574.175 35.6528 574.175 39H575.175ZM580.335 33.86V34.86C582.114 34.86 583.343 35.7586 583.898 37.0379L584.815 36.64L585.733 36.2421C584.848 34.2014 582.877 32.86 580.335 32.86V33.86ZM584.815 36.64L584.301 35.7825L582.201 37.0425L582.715 37.9L583.23 38.7575L585.33 37.4975L584.815 36.64ZM582.715 37.9L583.623 37.4795C583.151 36.4622 582.071 35.24 580.355 35.24V36.24V37.24C580.999 37.24 581.519 37.6978 581.808 38.3205L582.715 37.9ZM580.355 36.24V35.24C579.197 35.24 578.3 35.7583 577.719 36.5166C577.16 37.2455 576.915 38.1601 576.915 39H577.915H578.915C578.915 38.5199 579.06 38.0545 579.306 37.7334C579.53 37.4417 579.853 37.24 580.355 37.24V36.24ZM577.915 39H576.915C576.915 39.8466 577.158 40.7692 577.715 41.5055C578.294 42.2716 579.192 42.8 580.355 42.8V41.8V40.8C579.859 40.8 579.536 40.5984 579.31 40.2995C579.062 39.9708 578.915 39.4934 578.915 39H577.915ZM580.355 41.8V42.8C582.126 42.8 583.235 41.4333 583.69 40.4042L582.775 40L581.861 39.5958C581.555 40.2867 580.984 40.8 580.355 40.8V41.8ZM582.775 40L582.257 40.8553L584.337 42.1153L584.855 41.26L585.373 40.4047L583.293 39.1447L582.775 40ZM584.855 41.26L583.926 40.8904C583.382 42.2577 582.159 43.18 580.335 43.18V44.18V45.18C582.952 45.18 584.928 43.7823 585.784 41.6296L584.855 41.26ZM586.418 30.4V29.4H585.418V30.4H586.418ZM589.078 30.4H590.078V29.4H589.078V30.4ZM589.078 34.04H588.078V35.04H589.078V34.04ZM592.118 34.04H593.118V33.04H592.118V34.04ZM592.118 36.32V37.32H593.118V36.32H592.118ZM589.078 36.32V35.32H588.078V36.32H589.078ZM592.118 41.6H593.118V40.2907L591.855 40.6352L592.118 41.6ZM592.118 44L592.322 44.979L593.118 44.8131V44H592.118ZM590.098 44.18L590.091 45.18H590.098V44.18ZM586.418 39.68H587.418V30.4H586.418H585.418V39.68H586.418ZM586.418 30.4V31.4H589.078V30.4V29.4H586.418V30.4ZM589.078 30.4H588.078V34.04H589.078H590.078V30.4H589.078ZM589.078 34.04V35.04H592.118V34.04V33.04H589.078V34.04ZM592.118 34.04H591.118V36.32H592.118H593.118V34.04H592.118ZM592.118 36.32V35.32H589.078V36.32V37.32H592.118V36.32ZM589.078 36.32H588.078V39.7H589.078H590.078V36.32H589.078ZM589.078 39.7H588.078C588.078 40.3471 588.135 41.09 588.482 41.686C588.671 42.0111 588.944 42.2876 589.309 42.4732C589.664 42.6534 590.051 42.72 590.438 42.72V41.72V40.72C590.275 40.72 590.218 40.6916 590.215 40.69C590.213 40.6892 590.216 40.6909 590.22 40.6943C590.223 40.6971 590.219 40.6943 590.21 40.679C590.189 40.6436 590.152 40.5572 590.122 40.3822C590.093 40.2089 590.078 39.9856 590.078 39.7H589.078ZM590.438 41.72V42.72C590.631 42.72 591.022 42.7033 591.38 42.6805C591.562 42.6688 591.748 42.6549 591.906 42.6392C592.032 42.6269 592.231 42.6059 592.381 42.5648L592.118 41.6L591.855 40.6352C591.896 40.6241 591.87 40.6332 591.71 40.6489C591.583 40.6614 591.422 40.6737 591.252 40.6845C590.905 40.7067 590.566 40.72 590.438 40.72V41.72ZM592.118 41.6H591.118V44H592.118H593.118V41.6H592.118ZM592.118 44L591.914 43.021C591.742 43.0569 591.384 43.0982 590.982 43.1308C590.589 43.1627 590.237 43.18 590.098 43.18V44.18V45.18C590.495 45.18 591.75 45.0982 592.322 44.979L592.118 44ZM590.098 44.18L590.106 43.18C589.034 43.1717 588.44 42.8476 588.078 42.3857C587.68 41.8773 587.418 41.0214 587.418 39.68H586.418H585.418C585.418 41.2186 585.707 42.6027 586.504 43.6193C587.337 44.6824 588.583 45.1683 590.091 45.18L590.098 44.18Z" fill="black" mask="url(#path-4-outside-2_10_26)"/>
</g>
<g filter="url(#filter2_d_10_26)">
<mask id="path-6-outside-3_10_26" maskUnits="userSpaceOnUse" x="417" y="29" width="52" height="17" fill="black">
<rect fill="white" x="417" y="29" width="52" height="17"/>
<path d="M422.038 44L418.478 30.4H421.458L423.818 39.78L426.238 30.4H429.178L431.578 39.78L433.958 30.4H436.938L433.378 44H430.178L427.718 34.56L425.218 44H422.038ZM437.181 39C437.181 36.2 439.501 33.86 442.361 33.86C445.161 33.86 447.501 36.2 447.501 39C447.501 41.88 445.161 44.2 442.361 44.2C439.501 44.2 437.181 41.88 437.181 39ZM439.921 39C439.921 40.34 440.721 41.82 442.381 41.82C444.001 41.82 444.741 40.34 444.741 39C444.741 37.7 444.001 36.24 442.381 36.24C440.721 36.24 439.921 37.7 439.921 39ZM449.147 34.04H451.807V35.3C452.507 34.44 453.447 33.92 454.627 33.92C455.007 33.92 455.347 33.96 455.687 34.06V36.64C455.367 36.56 455.047 36.52 454.707 36.52C453.487 36.52 452.387 37.08 451.807 38.04V44H449.147V34.04ZM457.155 30.4H459.795V37.9L463.055 34.04H466.175L462.295 38.54L466.615 44H463.555L460.695 40.4L459.795 41.48V44H457.155V30.4Z"/>
</mask>
<path d="M422.038 44L418.478 30.4H421.458L423.818 39.78L426.238 30.4H429.178L431.578 39.78L433.958 30.4H436.938L433.378 44H430.178L427.718 34.56L425.218 44H422.038ZM437.181 39C437.181 36.2 439.501 33.86 442.361 33.86C445.161 33.86 447.501 36.2 447.501 39C447.501 41.88 445.161 44.2 442.361 44.2C439.501 44.2 437.181 41.88 437.181 39ZM439.921 39C439.921 40.34 440.721 41.82 442.381 41.82C444.001 41.82 444.741 40.34 444.741 39C444.741 37.7 444.001 36.24 442.381 36.24C440.721 36.24 439.921 37.7 439.921 39ZM449.147 34.04H451.807V35.3C452.507 34.44 453.447 33.92 454.627 33.92C455.007 33.92 455.347 33.96 455.687 34.06V36.64C455.367 36.56 455.047 36.52 454.707 36.52C453.487 36.52 452.387 37.08 451.807 38.04V44H449.147V34.04ZM457.155 30.4H459.795V37.9L463.055 34.04H466.175L462.295 38.54L466.615 44H463.555L460.695 40.4L459.795 41.48V44H457.155V30.4Z" fill="white"/>
<path d="M422.038 44L421.071 44.2532L421.267 45H422.038V44ZM418.478 30.4V29.4H417.183L417.511 30.6532L418.478 30.4ZM421.458 30.4L422.428 30.156L422.238 29.4H421.458V30.4ZM423.818 39.78L422.849 40.024L424.787 40.0298L423.818 39.78ZM426.238 30.4V29.4H425.464L425.27 30.1502L426.238 30.4ZM429.178 30.4L430.147 30.1521L429.955 29.4H429.178V30.4ZM431.578 39.78L430.61 40.0279L432.548 40.0259L431.578 39.78ZM433.958 30.4V29.4H433.18L432.989 30.1541L433.958 30.4ZM436.938 30.4L437.906 30.6532L438.234 29.4H436.938V30.4ZM433.378 44V45H434.15L434.346 44.2532L433.378 44ZM430.178 44L429.211 44.2522L429.406 45H430.178V44ZM427.718 34.56L428.686 34.3078L427.726 30.6244L426.752 34.304L427.718 34.56ZM425.218 44V45H425.988L426.185 44.256L425.218 44ZM422.038 44L423.006 43.7468L419.446 30.1468L418.478 30.4L417.511 30.6532L421.071 44.2532L422.038 44ZM418.478 30.4V31.4H421.458V30.4V29.4H418.478V30.4ZM421.458 30.4L420.489 30.644L422.849 40.024L423.818 39.78L424.788 39.536L422.428 30.156L421.458 30.4ZM423.818 39.78L424.787 40.0298L427.207 30.6498L426.238 30.4L425.27 30.1502L422.85 39.5302L423.818 39.78ZM426.238 30.4V31.4H429.178V30.4V29.4H426.238V30.4ZM429.178 30.4L428.21 30.6479L430.61 40.0279L431.578 39.78L432.547 39.5321L430.147 30.1521L429.178 30.4ZM431.578 39.78L432.548 40.0259L434.928 30.6459L433.958 30.4L432.989 30.1541L430.609 39.5341L431.578 39.78ZM433.958 30.4V31.4H436.938V30.4V29.4H433.958V30.4ZM436.938 30.4L435.971 30.1468L432.411 43.7468L433.378 44L434.346 44.2532L437.906 30.6532L436.938 30.4ZM433.378 44V43H430.178V44V45H433.378V44ZM430.178 44L431.146 43.7478L428.686 34.3078L427.718 34.56L426.751 34.8122L429.211 44.2522L430.178 44ZM427.718 34.56L426.752 34.304L424.252 43.744L425.218 44L426.185 44.256L428.685 34.816L427.718 34.56ZM425.218 44V43H422.038V44V45H425.218V44ZM437.181 39H438.181C438.181 36.7548 440.051 34.86 442.361 34.86V33.86V32.86C438.951 32.86 436.181 35.6452 436.181 39H437.181ZM442.361 33.86V34.86C444.609 34.86 446.501 36.7523 446.501 39H447.501H448.501C448.501 35.6477 445.713 32.86 442.361 32.86V33.86ZM447.501 39H446.501C446.501 41.3328 444.604 43.2 442.361 43.2V44.2V45.2C445.718 45.2 448.501 42.4272 448.501 39H447.501ZM442.361 44.2V43.2C440.056 43.2 438.181 41.3302 438.181 39H437.181H436.181C436.181 42.4298 438.946 45.2 442.361 45.2V44.2ZM439.921 39H438.921C438.921 39.8515 439.172 40.7782 439.732 41.5166C440.313 42.2834 441.214 42.82 442.381 42.82V41.82V40.82C441.888 40.82 441.559 40.6166 441.325 40.3084C441.07 39.9718 440.921 39.4885 440.921 39H439.921ZM442.381 41.82V42.82C443.542 42.82 444.422 42.2708 444.98 41.4973C445.514 40.7564 445.741 39.835 445.741 39H444.741H443.741C443.741 39.505 443.598 39.9936 443.357 40.3277C443.14 40.6292 442.84 40.82 442.381 40.82V41.82ZM444.741 39H445.741C445.741 38.1793 445.511 37.2708 444.975 36.5405C444.415 35.7784 443.536 35.24 442.381 35.24V36.24V37.24C442.847 37.24 443.147 37.4316 443.363 37.7245C443.601 38.0492 443.741 38.5207 443.741 39H444.741ZM442.381 36.24V35.24C441.22 35.24 440.32 35.7662 439.737 36.5212C439.175 37.2486 438.921 38.1623 438.921 39H439.921H440.921C440.921 38.5377 441.067 38.0714 441.32 37.7438C441.552 37.4438 441.882 37.24 442.381 37.24V36.24ZM449.147 34.04V33.04H448.147V34.04H449.147ZM451.807 34.04H452.807V33.04H451.807V34.04ZM451.807 35.3H450.807V38.1127L452.582 35.9313L451.807 35.3ZM455.687 34.06H456.687V33.3118L455.969 33.1006L455.687 34.06ZM455.687 36.64L455.444 37.6101L456.687 37.9208V36.64H455.687ZM451.807 38.04L450.951 37.5229L450.807 37.7614V38.04H451.807ZM451.807 44V45H452.807V44H451.807ZM449.147 44H448.147V45H449.147V44ZM449.147 34.04V35.04H451.807V34.04V33.04H449.147V34.04ZM451.807 34.04H450.807V35.3H451.807H452.807V34.04H451.807ZM451.807 35.3L452.582 35.9313C453.116 35.2763 453.782 34.92 454.627 34.92V33.92V32.92C453.111 32.92 451.898 33.6037 451.031 34.6687L451.807 35.3ZM454.627 33.92V34.92C454.933 34.92 455.175 34.9518 455.405 35.0194L455.687 34.06L455.969 33.1006C455.519 32.9682 455.081 32.92 454.627 32.92V33.92ZM455.687 34.06H454.687V36.64H455.687H456.687V34.06H455.687ZM455.687 36.64L455.929 35.6699C455.53 35.57 455.129 35.52 454.707 35.52V36.52V37.52C454.965 37.52 455.204 37.55 455.444 37.6101L455.687 36.64ZM454.707 36.52V35.52C453.191 35.52 451.738 36.2198 450.951 37.5229L451.807 38.04L452.663 38.5571C453.036 37.9402 453.783 37.52 454.707 37.52V36.52ZM451.807 38.04H450.807V44H451.807H452.807V38.04H451.807ZM451.807 44V43H449.147V44V45H451.807V44ZM449.147 44H450.147V34.04H449.147H448.147V44H449.147ZM457.155 30.4V29.4H456.155V30.4H457.155ZM459.795 30.4H460.795V29.4H459.795V30.4ZM459.795 37.9H458.795V40.6339L460.559 38.5452L459.795 37.9ZM463.055 34.04V33.04H462.591L462.291 33.3948L463.055 34.04ZM466.175 34.04L466.933 34.693L468.358 33.04H466.175V34.04ZM462.295 38.54L461.538 37.887L460.998 38.5126L461.511 39.1605L462.295 38.54ZM466.615 44V45H468.682L467.399 43.3795L466.615 44ZM463.555 44L462.772 44.622L463.072 45H463.555V44ZM460.695 40.4L461.478 39.778L460.714 38.8157L459.927 39.7598L460.695 40.4ZM459.795 41.48L459.027 40.8398L458.795 41.118V41.48H459.795ZM459.795 44V45H460.795V44H459.795ZM457.155 44H456.155V45H457.155V44ZM457.155 30.4V31.4H459.795V30.4V29.4H457.155V30.4ZM459.795 30.4H458.795V37.9H459.795H460.795V30.4H459.795ZM459.795 37.9L460.559 38.5452L463.819 34.6852L463.055 34.04L462.291 33.3948L459.031 37.2548L459.795 37.9ZM463.055 34.04V35.04H466.175V34.04V33.04H463.055V34.04ZM466.175 34.04L465.418 33.387L461.538 37.887L462.295 38.54L463.053 39.193L466.933 34.693L466.175 34.04ZM462.295 38.54L461.511 39.1605L465.831 44.6205L466.615 44L467.399 43.3795L463.079 37.9195L462.295 38.54ZM466.615 44V43H463.555V44V45H466.615V44ZM463.555 44L464.338 43.378L461.478 39.778L460.695 40.4L459.912 41.022L462.772 44.622L463.555 44ZM460.695 40.4L459.927 39.7598L459.027 40.8398L459.795 41.48L460.563 42.1202L461.463 41.0402L460.695 40.4ZM459.795 41.48H458.795V44H459.795H460.795V41.48H459.795ZM459.795 44V43H457.155V44V45H459.795V44ZM457.155 44H458.155V30.4H457.155H456.155V44H457.155Z" fill="black" mask="url(#path-6-outside-3_10_26)"/>
</g>
<g filter="url(#filter3_d_10_26)">
<mask id="path-8-outside-4_10_26" maskUnits="userSpaceOnUse" x="288" y="29" width="81" height="17" fill="black">
<rect fill="white" x="288" y="29" width="81" height="17"/>
<path d="M296.132 44.2C292.052 44.2 289.512 40.94 289.512 37.18C289.512 33.42 292.052 30.2 296.132 30.2C299.072 30.2 300.912 31.74 301.972 33.72L299.512 35.26C298.732 33.88 297.572 32.78 296.132 32.78C293.792 32.78 292.532 34.92 292.532 37.18C292.532 39.42 293.792 41.62 296.132 41.62C297.552 41.62 298.812 40.66 299.512 39.3L301.972 40.86C300.912 42.86 299.072 44.2 296.132 44.2ZM303.623 34.04H306.283V35.3C306.983 34.44 307.923 33.92 309.103 33.92C309.483 33.92 309.823 33.96 310.163 34.06V36.64C309.843 36.56 309.523 36.52 309.183 36.52C307.963 36.52 306.863 37.08 306.283 38.04V44H303.623V34.04ZM310.974 39C310.974 36.2 313.314 33.86 316.034 33.86C318.974 33.86 320.934 35.78 321.154 39.04C321.174 39.34 321.174 39.84 321.174 40.14H313.894C314.154 41.08 315.094 41.9 316.274 41.9C317.314 41.9 318.214 41.3 318.634 40.6L320.734 41.64C319.834 43.16 318.354 44.18 316.254 44.18C312.874 44.18 310.974 41.86 310.974 39ZM313.854 38.18H318.314C318.214 37.14 317.414 36.16 316.154 36.16C314.854 36.16 314.074 37.08 313.854 38.18ZM325.722 44.18C323.882 44.18 322.282 43.24 322.282 41.16C322.282 39.04 324.022 38.06 326.242 38.06L328.482 38.04V37.72C328.482 36.52 327.562 36.06 326.562 36.06C325.542 36.06 324.562 36.72 324.002 37.22L322.782 35.5C323.982 34.24 325.402 33.86 327.082 33.86C329.302 33.86 331.142 35.2 331.142 37.3V44H328.482V43.2C327.782 43.82 326.942 44.18 325.722 44.18ZM326.562 39.88C325.742 39.88 325.042 40.1 325.042 40.96C325.042 41.78 325.722 42.1 326.502 42.1C327.462 42.1 328.022 41.66 328.482 41.02V39.88H326.562ZM333.37 39.68V30.4H336.03V34.04H339.07V36.32H336.03V39.7C336.03 40.96 336.29 41.72 337.39 41.72C337.71 41.72 338.85 41.66 339.07 41.6V44C338.59 44.1 337.41 44.18 337.05 44.18C334.47 44.16 333.37 42.56 333.37 39.68ZM340.154 39C340.154 36.2 342.474 33.86 345.334 33.86C348.134 33.86 350.474 36.2 350.474 39C350.474 41.88 348.134 44.2 345.334 44.2C342.474 44.2 340.154 41.88 340.154 39ZM342.894 39C342.894 40.34 343.694 41.82 345.354 41.82C346.974 41.82 347.714 40.34 347.714 39C347.714 37.7 346.974 36.24 345.354 36.24C343.694 36.24 342.894 37.7 342.894 39ZM352.12 34.04H354.78V35.3C355.48 34.44 356.42 33.92 357.6 33.92C357.98 33.92 358.32 33.96 358.66 34.06V36.64C358.34 36.56 358.02 36.52 357.68 36.52C356.46 36.52 355.36 37.08 354.78 38.04V44H352.12V34.04ZM367.588 40.88C367.588 43.12 365.808 44.18 363.088 44.18C361.968 44.18 360.808 43.92 359.788 43.6V41.22C360.608 41.52 361.928 41.9 363.128 41.9C364.328 41.9 364.888 41.54 364.888 41.08C364.888 39.82 359.568 40.5 359.568 36.9C359.568 34.98 361.508 33.84 363.628 33.84C365.368 33.84 366.348 34.18 366.928 34.44V36.72C366.308 36.42 365.228 36.02 364.028 36.02C363.088 36.02 362.308 36.34 362.308 36.96C362.308 38.16 367.588 37.48 367.588 40.88Z"/>
</mask>
<path d="M296.132 44.2C292.052 44.2 289.512 40.94 289.512 37.18C289.512 33.42 292.052 30.2 296.132 30.2C299.072 30.2 300.912 31.74 301.972 33.72L299.512 35.26C298.732 33.88 297.572 32.78 296.132 32.78C293.792 32.78 292.532 34.92 292.532 37.18C292.532 39.42 293.792 41.62 296.132 41.62C297.552 41.62 298.812 40.66 299.512 39.3L301.972 40.86C300.912 42.86 299.072 44.2 296.132 44.2ZM303.623 34.04H306.283V35.3C306.983 34.44 307.923 33.92 309.103 33.92C309.483 33.92 309.823 33.96 310.163 34.06V36.64C309.843 36.56 309.523 36.52 309.183 36.52C307.963 36.52 306.863 37.08 306.283 38.04V44H303.623V34.04ZM310.974 39C310.974 36.2 313.314 33.86 316.034 33.86C318.974 33.86 320.934 35.78 321.154 39.04C321.174 39.34 321.174 39.84 321.174 40.14H313.894C314.154 41.08 315.094 41.9 316.274 41.9C317.314 41.9 318.214 41.3 318.634 40.6L320.734 41.64C319.834 43.16 318.354 44.18 316.254 44.18C312.874 44.18 310.974 41.86 310.974 39ZM313.854 38.18H318.314C318.214 37.14 317.414 36.16 316.154 36.16C314.854 36.16 314.074 37.08 313.854 38.18ZM325.722 44.18C323.882 44.18 322.282 43.24 322.282 41.16C322.282 39.04 324.022 38.06 326.242 38.06L328.482 38.04V37.72C328.482 36.52 327.562 36.06 326.562 36.06C325.542 36.06 324.562 36.72 324.002 37.22L322.782 35.5C323.982 34.24 325.402 33.86 327.082 33.86C329.302 33.86 331.142 35.2 331.142 37.3V44H328.482V43.2C327.782 43.82 326.942 44.18 325.722 44.18ZM326.562 39.88C325.742 39.88 325.042 40.1 325.042 40.96C325.042 41.78 325.722 42.1 326.502 42.1C327.462 42.1 328.022 41.66 328.482 41.02V39.88H326.562ZM333.37 39.68V30.4H336.03V34.04H339.07V36.32H336.03V39.7C336.03 40.96 336.29 41.72 337.39 41.72C337.71 41.72 338.85 41.66 339.07 41.6V44C338.59 44.1 337.41 44.18 337.05 44.18C334.47 44.16 333.37 42.56 333.37 39.68ZM340.154 39C340.154 36.2 342.474 33.86 345.334 33.86C348.134 33.86 350.474 36.2 350.474 39C350.474 41.88 348.134 44.2 345.334 44.2C342.474 44.2 340.154 41.88 340.154 39ZM342.894 39C342.894 40.34 343.694 41.82 345.354 41.82C346.974 41.82 347.714 40.34 347.714 39C347.714 37.7 346.974 36.24 345.354 36.24C343.694 36.24 342.894 37.7 342.894 39ZM352.12 34.04H354.78V35.3C355.48 34.44 356.42 33.92 357.6 33.92C357.98 33.92 358.32 33.96 358.66 34.06V36.64C358.34 36.56 358.02 36.52 357.68 36.52C356.46 36.52 355.36 37.08 354.78 38.04V44H352.12V34.04ZM367.588 40.88C367.588 43.12 365.808 44.18 363.088 44.18C361.968 44.18 360.808 43.92 359.788 43.6V41.22C360.608 41.52 361.928 41.9 363.128 41.9C364.328 41.9 364.888 41.54 364.888 41.08C364.888 39.82 359.568 40.5 359.568 36.9C359.568 34.98 361.508 33.84 363.628 33.84C365.368 33.84 366.348 34.18 366.928 34.44V36.72C366.308 36.42 365.228 36.02 364.028 36.02C363.088 36.02 362.308 36.34 362.308 36.96C362.308 38.16 367.588 37.48 367.588 40.88Z" fill="white"/>
<path d="M301.972 33.72L302.502 34.5676L303.294 34.0718L302.853 33.248L301.972 33.72ZM299.512 35.26L298.641 35.7521L299.156 36.6626L300.042 36.1076L299.512 35.26ZM299.512 39.3L300.047 38.4555L299.123 37.8696L298.622 38.8424L299.512 39.3ZM301.972 40.86L302.855 41.3283L303.288 40.5109L302.507 40.0155L301.972 40.86ZM296.132 44.2V43.2C292.709 43.2 290.512 40.4993 290.512 37.18H289.512H288.512C288.512 41.3807 291.394 45.2 296.132 45.2V44.2ZM289.512 37.18H290.512C290.512 33.8684 292.702 31.2 296.132 31.2V30.2V29.2C291.401 29.2 288.512 32.9716 288.512 37.18H289.512ZM296.132 30.2V31.2C298.638 31.2 300.171 32.4761 301.09 34.192L301.972 33.72L302.853 33.248C301.652 31.0039 299.505 29.2 296.132 29.2V30.2ZM301.972 33.72L301.441 32.8724L298.981 34.4124L299.512 35.26L300.042 36.1076L302.502 34.5676L301.972 33.72ZM299.512 35.26L300.382 34.7679C299.543 33.2834 298.121 31.78 296.132 31.78V32.78V33.78C297.022 33.78 297.92 34.4766 298.641 35.7521L299.512 35.26ZM296.132 32.78V31.78C294.617 31.78 293.43 32.4886 292.651 33.536C291.892 34.5578 291.532 35.8785 291.532 37.18H292.532H293.532C293.532 36.2215 293.801 35.3422 294.257 34.729C294.693 34.1414 295.307 33.78 296.132 33.78V32.78ZM292.532 37.18H291.532C291.532 38.4723 291.892 39.7995 292.647 40.8306C293.42 41.8867 294.606 42.62 296.132 42.62V41.62V40.62C295.317 40.62 294.703 40.2533 294.261 39.6494C293.801 39.0205 293.532 38.1277 293.532 37.18H292.532ZM296.132 41.62V42.62C298.026 42.62 299.58 41.3517 300.401 39.7576L299.512 39.3L298.622 38.8424C298.043 39.9683 297.077 40.62 296.132 40.62V41.62ZM299.512 39.3L298.976 40.1445L301.436 41.7045L301.972 40.86L302.507 40.0155L300.047 38.4555L299.512 39.3ZM301.972 40.86L301.088 40.3917C300.628 41.2593 300.019 41.949 299.236 42.4261C298.455 42.9024 297.445 43.2 296.132 43.2V44.2V45.2C297.758 45.2 299.139 44.8276 300.277 44.1339C301.414 43.441 302.255 42.4607 302.855 41.3283L301.972 40.86ZM303.623 34.04V33.04H302.623V34.04H303.623ZM306.283 34.04H307.283V33.04H306.283V34.04ZM306.283 35.3H305.283V38.1127L307.059 35.9313L306.283 35.3ZM310.163 34.06H311.163V33.3118L310.446 33.1006L310.163 34.06ZM310.163 36.64L309.921 37.6101L311.163 37.9208V36.64H310.163ZM306.283 38.04L305.428 37.5229L305.283 37.7614V38.04H306.283ZM306.283 44V45H307.283V44H306.283ZM303.623 44H302.623V45H303.623V44ZM303.623 34.04V35.04H306.283V34.04V33.04H303.623V34.04ZM306.283 34.04H305.283V35.3H306.283H307.283V34.04H306.283ZM306.283 35.3L307.059 35.9313C307.592 35.2763 308.259 34.92 309.103 34.92V33.92V32.92C307.588 32.92 306.375 33.6037 305.508 34.6687L306.283 35.3ZM309.103 33.92V34.92C309.409 34.92 309.651 34.9518 309.881 35.0194L310.163 34.06L310.446 33.1006C309.995 32.9682 309.557 32.92 309.103 32.92V33.92ZM310.163 34.06H309.163V36.64H310.163H311.163V34.06H310.163ZM310.163 36.64L310.406 35.6699C310.007 35.57 309.605 35.52 309.183 35.52V36.52V37.52C309.442 37.52 309.68 37.55 309.921 37.6101L310.163 36.64ZM309.183 36.52V35.52C307.667 35.52 306.215 36.2198 305.428 37.5229L306.283 38.04L307.139 38.5571C307.512 37.9402 308.26 37.52 309.183 37.52V36.52ZM306.283 38.04H305.283V44H306.283H307.283V38.04H306.283ZM306.283 44V43H303.623V44V45H306.283V44ZM303.623 44H304.623V34.04H303.623H302.623V44H303.623ZM321.154 39.04L322.152 38.9735L322.152 38.9727L321.154 39.04ZM321.174 40.14V41.14H322.174V40.14H321.174ZM313.894 40.14V39.14H312.58L312.93 40.4066L313.894 40.14ZM318.634 40.6L319.078 39.7039L318.251 39.2945L317.777 40.0855L318.634 40.6ZM320.734 41.64L321.595 42.1495L322.144 41.2222L321.178 40.7439L320.734 41.64ZM313.854 38.18L312.873 37.9839L312.634 39.18H313.854V38.18ZM318.314 38.18V39.18H319.415L319.309 38.0843L318.314 38.18ZM310.974 39H311.974C311.974 36.7421 313.876 34.86 316.034 34.86V33.86V32.86C312.752 32.86 309.974 35.6579 309.974 39H310.974ZM316.034 33.86V34.86C317.278 34.86 318.235 35.2603 318.906 35.9336C319.584 36.6137 320.059 37.6614 320.156 39.1073L321.154 39.04L322.152 38.9727C322.029 37.1586 321.414 35.6163 320.322 34.5214C319.224 33.4197 317.731 32.86 316.034 32.86V33.86ZM321.154 39.04L320.156 39.1065C320.174 39.3653 320.174 39.8258 320.174 40.14H321.174H322.174C322.174 39.8542 322.175 39.3147 322.152 38.9735L321.154 39.04ZM321.174 40.14V39.14H313.894V40.14V41.14H321.174V40.14ZM313.894 40.14L312.93 40.4066C313.306 41.7634 314.628 42.9 316.274 42.9V41.9V40.9C315.561 40.9 315.003 40.3966 314.858 39.8734L313.894 40.14ZM316.274 41.9V42.9C317.684 42.9 318.901 42.0991 319.492 41.1145L318.634 40.6L317.777 40.0855C317.527 40.5009 316.944 40.9 316.274 40.9V41.9ZM318.634 40.6L318.19 41.4961L320.29 42.5361L320.734 41.64L321.178 40.7439L319.078 39.7039L318.634 40.6ZM320.734 41.64L319.874 41.1305C319.137 42.3738 317.97 43.18 316.254 43.18V44.18V45.18C318.738 45.18 320.531 43.9462 321.595 42.1495L320.734 41.64ZM316.254 44.18V43.18C314.804 43.18 313.756 42.689 313.069 41.971C312.374 41.2448 311.974 40.2095 311.974 39H310.974H309.974C309.974 40.6505 310.524 42.2052 311.624 43.354C312.732 44.511 314.324 45.18 316.254 45.18V44.18ZM313.854 38.18V39.18H318.314V38.18V37.18H313.854V38.18ZM318.314 38.18L319.309 38.0843C319.17 36.6323 318.025 35.16 316.154 35.16V36.16V37.16C316.803 37.16 317.258 37.6477 317.319 38.2757L318.314 38.18ZM316.154 36.16V35.16C314.253 35.16 313.16 36.5498 312.873 37.9839L313.854 38.18L314.835 38.3761C314.988 37.6102 315.455 37.16 316.154 37.16V36.16ZM326.242 38.06V39.06L326.251 39.06L326.242 38.06ZM328.482 38.04L328.491 39.04L329.482 39.0311V38.04H328.482ZM324.002 37.22L323.187 37.7985L323.834 38.711L324.668 37.9659L324.002 37.22ZM322.782 35.5L322.058 34.8103L321.49 35.4068L321.967 36.0785L322.782 35.5ZM331.142 44V45H332.142V44H331.142ZM328.482 44H327.482V45H328.482V44ZM328.482 43.2H329.482V40.9784L327.819 42.4514L328.482 43.2ZM328.482 41.02L329.294 41.6036L329.482 41.3421V41.02H328.482ZM328.482 39.88H329.482V38.88H328.482V39.88ZM325.722 44.18V43.18C324.957 43.18 324.336 42.9828 323.93 42.6637C323.557 42.3703 323.282 41.9132 323.282 41.16H322.282H321.282C321.282 42.4868 321.808 43.5397 322.694 44.2363C323.548 44.9072 324.647 45.18 325.722 45.18V44.18ZM322.282 41.16H323.282C323.282 40.4145 323.568 39.9457 324.012 39.6282C324.499 39.2796 325.26 39.06 326.242 39.06V38.06V37.06C325.004 37.06 323.786 37.3304 322.848 38.0018C321.866 38.7043 321.282 39.7855 321.282 41.16H322.282ZM326.242 38.06L326.251 39.06L328.491 39.04L328.482 38.04L328.473 37.04L326.233 37.06L326.242 38.06ZM328.482 38.04H329.482V37.72H328.482H327.482V38.04H328.482ZM328.482 37.72H329.482C329.482 36.8296 329.123 36.107 328.495 35.6386C327.911 35.2027 327.195 35.06 326.562 35.06V36.06V37.06C326.929 37.06 327.173 37.1473 327.299 37.2414C327.382 37.303 327.482 37.4104 327.482 37.72H328.482ZM326.562 36.06V35.06C325.162 35.06 323.945 35.9304 323.336 36.4741L324.002 37.22L324.668 37.9659C325.179 37.5096 325.922 37.06 326.562 37.06V36.06ZM324.002 37.22L324.818 36.6415L323.598 34.9215L322.782 35.5L321.967 36.0785L323.187 37.7985L324.002 37.22ZM322.782 35.5L323.506 36.1897C324.457 35.1913 325.574 34.86 327.082 34.86V33.86V32.86C325.231 32.86 323.507 33.2887 322.058 34.8103L322.782 35.5ZM327.082 33.86V34.86C328.957 34.86 330.142 35.9387 330.142 37.3H331.142H332.142C332.142 34.4613 329.648 32.86 327.082 32.86V33.86ZM331.142 37.3H330.142V44H331.142H332.142V37.3H331.142ZM331.142 44V43H328.482V44V45H331.142V44ZM328.482 44H329.482V43.2H328.482H327.482V44H328.482ZM328.482 43.2L327.819 42.4514C327.308 42.9037 326.707 43.18 325.722 43.18V44.18V45.18C327.178 45.18 328.256 44.7363 329.145 43.9486L328.482 43.2ZM326.562 39.88V38.88C326.099 38.88 325.5 38.9353 324.989 39.2346C324.386 39.5876 324.042 40.1976 324.042 40.96H325.042H326.042C326.042 40.8825 326.057 40.8806 326.039 40.9131C326.02 40.9482 325.995 40.9631 326 40.9604C326.012 40.9532 326.06 40.9301 326.164 40.9105C326.266 40.8913 326.399 40.88 326.562 40.88V39.88ZM325.042 40.96H324.042C324.042 41.6938 324.37 42.291 324.916 42.6636C325.41 43.0003 325.999 43.1 326.502 43.1V42.1V41.1C326.373 41.1 326.267 41.0866 326.185 41.0663C326.102 41.0459 326.059 41.0224 326.043 41.0114C326.031 41.0033 326.039 41.0063 326.047 41.0209C326.054 41.0352 326.042 41.0236 326.042 40.96H325.042ZM326.502 42.1V43.1C327.146 43.1 327.706 42.9494 328.193 42.6581C328.669 42.3736 329.018 41.9881 329.294 41.6036L328.482 41.02L327.67 40.4364C327.487 40.6919 327.326 40.8464 327.166 40.9419C327.018 41.0306 326.819 41.1 326.502 41.1V42.1ZM328.482 41.02H329.482V39.88H328.482H327.482V41.02H328.482ZM328.482 39.88V38.88H326.562V39.88V40.88H328.482V39.88ZM333.37 30.4V29.4H332.37V30.4H333.37ZM336.03 30.4H337.03V29.4H336.03V30.4ZM336.03 34.04H335.03V35.04H336.03V34.04ZM339.07 34.04H340.07V33.04H339.07V34.04ZM339.07 36.32V37.32H340.07V36.32H339.07ZM336.03 36.32V35.32H335.03V36.32H336.03ZM339.07 41.6H340.07V40.2907L338.806 40.6352L339.07 41.6ZM339.07 44L339.273 44.979L340.07 44.8131V44H339.07ZM337.05 44.18L337.042 45.18H337.05V44.18ZM333.37 39.68H334.37V30.4H333.37H332.37V39.68H333.37ZM333.37 30.4V31.4H336.03V30.4V29.4H333.37V30.4ZM336.03 30.4H335.03V34.04H336.03H337.03V30.4H336.03ZM336.03 34.04V35.04H339.07V34.04V33.04H336.03V34.04ZM339.07 34.04H338.07V36.32H339.07H340.07V34.04H339.07ZM339.07 36.32V35.32H336.03V36.32V37.32H339.07V36.32ZM336.03 36.32H335.03V39.7H336.03H337.03V36.32H336.03ZM336.03 39.7H335.03C335.03 40.3471 335.086 41.09 335.433 41.686C335.622 42.0111 335.895 42.2876 336.26 42.4732C336.615 42.6534 337.002 42.72 337.39 42.72V41.72V40.72C337.227 40.72 337.169 40.6916 337.166 40.69C337.164 40.6892 337.168 40.6909 337.171 40.6943C337.174 40.6971 337.17 40.6943 337.161 40.679C337.14 40.6436 337.103 40.5572 337.074 40.3822C337.045 40.2089 337.03 39.9856 337.03 39.7H336.03ZM337.39 41.72V42.72C337.582 42.72 337.973 42.7033 338.331 42.6805C338.513 42.6688 338.699 42.6549 338.857 42.6392C338.983 42.6269 339.182 42.6059 339.333 42.5648L339.07 41.6L338.806 40.6352C338.847 40.6241 338.821 40.6332 338.661 40.6489C338.534 40.6614 338.373 40.6737 338.203 40.6845C337.856 40.7067 337.517 40.72 337.39 40.72V41.72ZM339.07 41.6H338.07V44H339.07H340.07V41.6H339.07ZM339.07 44L338.866 43.021C338.693 43.0569 338.335 43.0982 337.934 43.1308C337.54 43.1627 337.188 43.18 337.05 43.18V44.18V45.18C337.446 45.18 338.701 45.0982 339.273 44.979L339.07 44ZM337.05 44.18L337.057 43.18C335.985 43.1717 335.391 42.8476 335.029 42.3857C334.631 41.8773 334.37 41.0214 334.37 39.68H333.37H332.37C332.37 41.2186 332.658 42.6027 333.455 43.6193C334.288 44.6824 335.534 45.1683 337.042 45.18L337.05 44.18ZM340.154 39H341.154C341.154 36.7548 343.024 34.86 345.334 34.86V33.86V32.86C341.924 32.86 339.154 35.6452 339.154 39H340.154ZM345.334 33.86V34.86C347.581 34.86 349.474 36.7523 349.474 39H350.474H351.474C351.474 35.6477 348.686 32.86 345.334 32.86V33.86ZM350.474 39H349.474C349.474 41.3328 347.576 43.2 345.334 43.2V44.2V45.2C348.691 45.2 351.474 42.4272 351.474 39H350.474ZM345.334 44.2V43.2C343.029 43.2 341.154 41.3302 341.154 39H340.154H339.154C339.154 42.4298 341.919 45.2 345.334 45.2V44.2ZM342.894 39H341.894C341.894 39.8515 342.145 40.7782 342.704 41.5166C343.286 42.2834 344.186 42.82 345.354 42.82V41.82V40.82C344.861 40.82 344.532 40.6166 344.298 40.3084C344.043 39.9718 343.894 39.4885 343.894 39H342.894ZM345.354 41.82V42.82C346.514 42.82 347.395 42.2708 347.952 41.4973C348.487 40.7564 348.714 39.835 348.714 39H347.714H346.714C346.714 39.505 346.571 39.9936 346.33 40.3277C346.113 40.6292 345.813 40.82 345.354 40.82V41.82ZM347.714 39H348.714C348.714 38.1793 348.484 37.2708 347.947 36.5405C347.387 35.7784 346.508 35.24 345.354 35.24V36.24V37.24C345.819 37.24 346.12 37.4316 346.335 37.7245C346.574 38.0492 346.714 38.5207 346.714 39H347.714ZM345.354 36.24V35.24C344.192 35.24 343.293 35.7662 342.71 36.5212C342.148 37.2486 341.894 38.1623 341.894 39H342.894H343.894C343.894 38.5377 344.04 38.0714 344.293 37.7438C344.524 37.4438 344.855 37.24 345.354 37.24V36.24ZM352.12 34.04V33.04H351.12V34.04H352.12ZM354.78 34.04H355.78V33.04H354.78V34.04ZM354.78 35.3H353.78V38.1127L355.555 35.9313L354.78 35.3ZM358.66 34.06H359.66V33.3118L358.942 33.1006L358.66 34.06ZM358.66 36.64L358.417 37.6101L359.66 37.9208V36.64H358.66ZM354.78 38.04L353.924 37.5229L353.78 37.7614V38.04H354.78ZM354.78 44V45H355.78V44H354.78ZM352.12 44H351.12V45H352.12V44ZM352.12 34.04V35.04H354.78V34.04V33.04H352.12V34.04ZM354.78 34.04H353.78V35.3H354.78H355.78V34.04H354.78ZM354.78 35.3L355.555 35.9313C356.088 35.2763 356.755 34.92 357.6 34.92V33.92V32.92C356.084 32.92 354.871 33.6037 354.004 34.6687L354.78 35.3ZM357.6 33.92V34.92C357.906 34.92 358.148 34.9518 358.377 35.0194L358.66 34.06L358.942 33.1006C358.492 32.9682 358.054 32.92 357.6 32.92V33.92ZM358.66 34.06H357.66V36.64H358.66H359.66V34.06H358.66ZM358.66 36.64L358.902 35.6699C358.503 35.57 358.101 35.52 357.68 35.52V36.52V37.52C357.938 37.52 358.176 37.55 358.417 37.6101L358.66 36.64ZM357.68 36.52V35.52C356.163 35.52 354.711 36.2198 353.924 37.5229L354.78 38.04L355.635 38.5571C356.008 37.9402 356.756 37.52 357.68 37.52V36.52ZM354.78 38.04H353.78V44H354.78H355.78V38.04H354.78ZM354.78 44V43H352.12V44V45H354.78V44ZM352.12 44H353.12V34.04H352.12H351.12V44H352.12ZM359.788 43.6H358.788V44.3343L359.488 44.5541L359.788 43.6ZM359.788 41.22L360.131 40.2809L358.788 39.7893V41.22H359.788ZM366.928 34.44H367.928V33.7924L367.337 33.5275L366.928 34.44ZM366.928 36.72L366.492 37.6202L367.928 38.3148V36.72H366.928ZM367.588 40.88H366.588C366.588 41.6938 366.286 42.2024 365.788 42.5486C365.235 42.9318 364.342 43.18 363.088 43.18V44.18V45.18C364.554 45.18 365.91 44.8982 366.928 44.1914C367.999 43.4476 368.588 42.3062 368.588 40.88H367.588ZM363.088 44.18V43.18C362.11 43.18 361.059 42.9508 360.087 42.6459L359.788 43.6L359.488 44.5541C360.556 44.8892 361.825 45.18 363.088 45.18V44.18ZM359.788 43.6H360.788V41.22H359.788H358.788V43.6H359.788ZM359.788 41.22L359.444 42.1591C360.305 42.4739 361.754 42.9 363.128 42.9V41.9V40.9C362.101 40.9 360.911 40.5661 360.131 40.2809L359.788 41.22ZM363.128 41.9V42.9C363.806 42.9 364.424 42.8017 364.911 42.5538C365.424 42.2932 365.888 41.7982 365.888 41.08H364.888H363.888C363.888 40.9796 363.922 40.884 363.971 40.8159C364.014 40.7566 364.044 40.7511 364.004 40.7712C363.912 40.8183 363.65 40.9 363.128 40.9V41.9ZM364.888 41.08H365.888C365.888 40.5037 365.56 40.1115 365.259 39.8861C364.983 39.6789 364.651 39.5475 364.379 39.4549C364.094 39.3579 363.769 39.2704 363.467 39.1881C363.154 39.1026 362.845 39.0177 362.54 38.9176C361.918 38.7129 361.418 38.4756 361.079 38.1612C360.779 37.883 360.568 37.514 360.568 36.9H359.568H358.568C358.568 38.086 359.022 38.982 359.719 39.6282C360.378 40.2382 361.208 40.5846 361.915 40.8174C362.276 40.936 362.632 41.0334 362.942 41.1177C363.263 41.2054 363.521 41.2755 363.734 41.3483C363.838 41.3836 363.917 41.4148 363.976 41.4422C364.037 41.4703 364.06 41.4866 364.059 41.4865C364.05 41.4791 363.888 41.3413 363.888 41.08H364.888ZM359.568 36.9H360.568C360.568 36.3219 360.845 35.8414 361.376 35.4692C361.928 35.083 362.733 34.84 363.628 34.84V33.84V32.84C362.403 32.84 361.178 33.167 360.229 33.8308C359.261 34.5086 358.568 35.5581 358.568 36.9H359.568ZM363.628 33.84V34.84C365.219 34.84 366.061 35.1471 366.519 35.3525L366.928 34.44L367.337 33.5275C366.635 33.2129 365.516 32.84 363.628 32.84V33.84ZM366.928 34.44H365.928V36.72H366.928H367.928V34.44H366.928ZM366.928 36.72L367.363 35.8198C366.667 35.4831 365.433 35.02 364.028 35.02V36.02V37.02C365.022 37.02 365.948 37.3569 366.492 37.6202L366.928 36.72ZM364.028 36.02V35.02C363.465 35.02 362.865 35.1128 362.365 35.3645C361.852 35.6231 361.308 36.1405 361.308 36.96H362.308H363.308C363.308 37.0301 363.281 37.1026 363.245 37.1512C363.217 37.1883 363.208 37.1795 363.265 37.1505C363.391 37.0872 363.651 37.02 364.028 37.02V36.02ZM362.308 36.96H361.308C361.308 37.5484 361.657 37.9359 361.954 38.1479C362.23 38.3445 362.559 38.4672 362.829 38.5532C363.111 38.6435 363.432 38.7243 363.732 38.8004C364.044 38.8796 364.351 38.958 364.654 39.051C365.276 39.2416 365.771 39.4629 366.104 39.7545C366.394 40.0084 366.588 40.3342 366.588 40.88H367.588H368.588C368.588 39.7258 368.121 38.8616 367.421 38.2493C366.764 37.6746 365.94 37.3534 365.241 37.139C364.884 37.0295 364.531 36.9398 364.224 36.8619C363.906 36.781 363.65 36.7159 363.437 36.648C363.334 36.615 363.255 36.5857 363.196 36.56C363.136 36.5335 363.114 36.5182 363.115 36.5192C363.124 36.5254 363.308 36.6716 363.308 36.96H362.308Z" fill="black" mask="url(#path-8-outside-4_10_26)"/>
</g>
<defs>
<filter id="filter0_d_10_26" x="173.02" y="29.4" width="61.5913" height="23.8" filterUnits="userSpaceOnUse" color-interpolation-filters="sRGB">
<feFlood flood-opacity="0" result="BackgroundImageFix"/>
<feColorMatrix in="SourceAlpha" type="matrix" values="0 0 0 0 0 0 0 0 0 0 0 0 0 0 0 0 0 0 127 0" result="hardAlpha"/>
<feOffset dy="4"/>
<feGaussianBlur stdDeviation="2"/>
<feComposite in2="hardAlpha" operator="out"/>
<feColorMatrix type="matrix" values="0 0 0 0 0 0 0 0 0 0 0 0 0 0 0 0 0 0 0.25 0"/>
<feBlend mode="normal" in2="BackgroundImageFix" result="effect1_dropShadow_10_26"/>
<feBlend mode="normal" in="SourceGraphic" in2="effect1_dropShadow_10_26" result="shape"/>
</filter>
<filter id="filter1_d_10_26" x="515.822" y="29.2" width="81.2962" height="24" filterUnits="userSpaceOnUse" color-interpolation-filters="sRGB">
<feFlood flood-opacity="0" result="BackgroundImageFix"/>
<feColorMatrix in="SourceAlpha" type="matrix" values="0 0 0 0 0 0 0 0 0 0 0 0 0 0 0 0 0 0 127 0" result="hardAlpha"/>
<feOffset dy="4"/>
<feGaussianBlur stdDeviation="2"/>
<feComposite in2="hardAlpha" operator="out"/>
<feColorMatrix type="matrix" values="0 0 0 0 0 0 0 0 0 0 0 0 0 0 0 0 0 0 0.25 0"/>
<feBlend mode="normal" in2="BackgroundImageFix" result="effect1_dropShadow_10_26"/>
<feBlend mode="normal" in="SourceGraphic" in2="effect1_dropShadow_10_26" result="shape"/>
</filter>
<filter id="filter2_d_10_26" x="413.183" y="29.4" width="59.4985" height="23.8" filterUnits="userSpaceOnUse" color-interpolation-filters="sRGB">
<feFlood flood-opacity="0" result="BackgroundImageFix"/>
<feColorMatrix in="SourceAlpha" type="matrix" values="0 0 0 0 0 0 0 0 0 0 0 0 0 0 0 0 0 0 127 0" result="hardAlpha"/>
<feOffset dy="4"/>
<feGaussianBlur stdDeviation="2"/>
<feComposite in2="hardAlpha" operator="out"/>
<feColorMatrix type="matrix" values="0 0 0 0 0 0 0 0 0 0 0 0 0 0 0 0 0 0 0.25 0"/>
<feBlend mode="normal" in2="BackgroundImageFix" result="effect1_dropShadow_10_26"/>
<feBlend mode="normal" in="SourceGraphic" in2="effect1_dropShadow_10_26" result="shape"/>
</filter>
<filter id="filter3_d_10_26" x="284.512" y="29.2" width="88.0762" height="24" filterUnits="userSpaceOnUse" color-interpolation-filters="sRGB">
<feFlood flood-opacity="0" result="BackgroundImageFix"/>
<feColorMatrix in="SourceAlpha" type="matrix" values="0 0 0 0 0 0 0 0 0 0 0 0 0 0 0 0 0 0 127 0" result="hardAlpha"/>
<feOffset dy="4"/>
<feGaussianBlur stdDeviation="2"/>
<feComposite in2="hardAlpha" operator="out"/>
<feColorMatrix type="matrix" values="0 0 0 0 0 0 0 0 0 0 0 0 0 0 0 0 0 0 0.25 0"/>
<feBlend mode="normal" in2="BackgroundImageFix" result="effect1_dropShadow_10_26"/>
<feBlend mode="normal" in="SourceGraphic" in2="effect1_dropShadow_10_26" result="shape"/>
</filter>
</defs>
</svg>
