<svg width="766" height="385" viewBox="0 0 766 385" fill="none" xmlns="http://www.w3.org/2000/svg">
<rect width="765" height="385" fill="url(#paint0_linear_58_4)"/>
<path d="M78.905 189H69.881L85.177 145.48H96.505L111.865 189H102.841L99.833 180.552H81.849L78.905 189ZM90.873 154.504L84.473 172.872H97.273L90.873 154.504ZM122.651 189L111.131 157.128H120.923L128.155 179.592L135.323 157.128H145.115L133.531 189H122.651ZM158.111 189.576C152.223 189.576 147.103 186.568 147.103 179.912C147.103 173.128 152.671 169.992 159.775 169.992L166.943 169.928V168.904C166.943 165.064 163.999 163.592 160.799 163.592C157.535 163.592 154.399 165.704 152.607 167.304L148.703 161.8C152.543 157.768 157.087 156.552 162.463 156.552C169.567 156.552 175.455 160.84 175.455 167.56V189H166.943V186.44C164.703 188.424 162.015 189.576 158.111 189.576ZM160.799 175.816C158.175 175.816 155.935 176.52 155.935 179.272C155.935 181.896 158.111 182.92 160.607 182.92C163.679 182.92 165.471 181.512 166.943 179.464V175.816H160.799ZM182.583 175.176V145.48H191.095V157.128H200.823V164.424H191.095V175.24C191.095 179.272 191.927 181.704 195.447 181.704C196.471 181.704 200.119 181.512 200.823 181.32V189C199.287 189.32 195.51 189.576 194.359 189.576C186.103 189.512 182.583 184.392 182.583 175.176ZM215.861 189.576C209.973 189.576 204.853 186.568 204.853 179.912C204.853 173.128 210.421 169.992 217.525 169.992L224.693 169.928V168.904C224.693 165.064 221.749 163.592 218.549 163.592C215.285 163.592 212.149 165.704 210.357 167.304L206.453 161.8C210.293 157.768 214.837 156.552 220.213 156.552C227.317 156.552 233.205 160.84 233.205 167.56V189H224.693V186.44C222.453 188.424 219.765 189.576 215.861 189.576ZM218.549 175.816C215.925 175.816 213.685 176.52 213.685 179.272C213.685 181.896 215.861 182.92 218.357 182.92C221.429 182.92 223.221 181.512 224.693 179.464V175.816H218.549ZM240.333 157.128H248.845V161.16C251.085 158.408 254.093 156.744 257.869 156.744C259.085 156.744 260.173 156.872 261.261 157.192V165.448C260.237 165.192 259.213 165.064 258.125 165.064C254.221 165.064 250.701 166.856 248.845 169.928V189H240.333V157.128ZM312.103 189H281.191V180.232C293.735 171.72 302.503 165.576 302.503 159.432C302.503 155.592 299.815 153.096 294.759 153.096C289.575 153.096 285.287 156.488 283.047 158.088V149C287.143 146.44 291.815 144.904 296.743 144.904C308.455 144.904 312.423 151.368 312.423 158.28C312.423 168.584 303.271 175.112 295.207 180.232H312.103V189Z" fill="white"/>
<path d="M31.522 223V219.96C33.4954 218.627 35.3887 217.293 37.202 215.96C39.0154 214.6 40.6154 213.24 42.002 211.88C43.4154 210.52 44.5354 209.16 45.362 207.8C46.1887 206.44 46.602 205.08 46.602 203.72C46.602 202.227 46.082 200.973 45.042 199.96C44.002 198.947 42.4554 198.44 40.402 198.44C39.602 198.44 38.8154 198.547 38.042 198.76C37.2954 198.947 36.602 199.187 35.962 199.48C35.322 199.773 34.7354 200.08 34.202 200.4C33.6954 200.693 33.2687 200.96 32.922 201.2V198.04C34.1754 197.267 35.482 196.667 36.842 196.24C38.202 195.787 39.602 195.56 41.042 195.56C42.802 195.56 44.2554 195.8 45.402 196.28C46.5754 196.76 47.4954 197.373 48.162 198.12C48.8554 198.867 49.3354 199.707 49.602 200.64C49.8687 201.573 50.002 202.493 50.002 203.4C50.002 204.6 49.7887 205.76 49.362 206.88C48.9354 207.973 48.362 209.04 47.642 210.08C46.9487 211.093 46.1354 212.067 45.202 213C44.2687 213.933 43.2954 214.813 42.282 215.64C41.2687 216.467 40.242 217.24 39.202 217.96C38.162 218.68 37.1887 219.347 36.282 219.96H50.362V223H31.522ZM66.6302 223.28C64.6568 223.28 62.9635 222.907 61.5502 222.16C60.1368 221.413 58.9635 220.4 58.0302 219.12C57.1235 217.84 56.4435 216.36 55.9902 214.68C55.5635 213 55.3502 211.24 55.3502 209.4C55.3502 207.56 55.5635 205.813 55.9902 204.16C56.4435 202.48 57.1235 201 58.0302 199.72C58.9635 198.44 60.1368 197.427 61.5502 196.68C62.9635 195.933 64.6568 195.56 66.6302 195.56C68.6035 195.56 70.2968 195.933 71.7102 196.68C73.1235 197.427 74.2835 198.44 75.1902 199.72C76.0968 201 76.7635 202.48 77.1902 204.16C77.6435 205.813 77.8702 207.56 77.8702 209.4C77.8702 211.24 77.6435 213 77.1902 214.68C76.7635 216.36 76.0968 217.84 75.1902 219.12C74.2835 220.4 73.1235 221.413 71.7102 222.16C70.2968 222.907 68.6035 223.28 66.6302 223.28ZM66.6302 220.44C68.0702 220.44 69.2835 220.133 70.2702 219.52C71.2835 218.907 72.1102 218.093 72.7502 217.08C73.3902 216.04 73.8435 214.867 74.1102 213.56C74.4035 212.227 74.5502 210.84 74.5502 209.4C74.5502 207.987 74.4035 206.627 74.1102 205.32C73.8435 203.987 73.3902 202.813 72.7502 201.8C72.1102 200.787 71.2835 199.973 70.2702 199.36C69.2835 198.747 68.0702 198.44 66.6302 198.44C65.1902 198.44 63.9635 198.747 62.9502 199.36C61.9635 199.973 61.1502 200.787 60.5102 201.8C59.8702 202.813 59.4035 203.987 59.1102 205.32C58.8435 206.627 58.7102 207.987 58.7102 209.4C58.7102 210.84 58.8435 212.227 59.1102 213.56C59.4035 214.867 59.8702 216.04 60.5102 217.08C61.1502 218.093 61.9635 218.907 62.9502 219.52C63.9635 220.133 65.1902 220.44 66.6302 220.44ZM94.013 223.28C92.0396 223.28 90.3463 222.907 88.933 222.16C87.5196 221.413 86.3463 220.4 85.413 219.12C84.5063 217.84 83.8263 216.36 83.373 214.68C82.9463 213 82.733 211.24 82.733 209.4C82.733 207.56 82.9463 205.813 83.373 204.16C83.8263 202.48 84.5063 201 85.413 199.72C86.3463 198.44 87.5196 197.427 88.933 196.68C90.3463 195.933 92.0396 195.56 94.013 195.56C95.9863 195.56 97.6796 195.933 99.093 196.68C100.506 197.427 101.666 198.44 102.573 199.72C103.48 201 104.146 202.48 104.573 204.16C105.026 205.813 105.253 207.56 105.253 209.4C105.253 211.24 105.026 213 104.573 214.68C104.146 216.36 103.48 217.84 102.573 219.12C101.666 220.4 100.506 221.413 99.093 222.16C97.6796 222.907 95.9863 223.28 94.013 223.28ZM94.013 220.44C95.453 220.44 96.6663 220.133 97.653 219.52C98.6663 218.907 99.493 218.093 100.133 217.08C100.773 216.04 101.226 214.867 101.493 213.56C101.786 212.227 101.933 210.84 101.933 209.4C101.933 207.987 101.786 206.627 101.493 205.32C101.226 203.987 100.773 202.813 100.133 201.8C99.493 200.787 98.6663 199.973 97.653 199.36C96.6663 198.747 95.453 198.44 94.013 198.44C92.573 198.44 91.3463 198.747 90.333 199.36C89.3463 199.973 88.533 200.787 87.893 201.8C87.253 202.813 86.7863 203.987 86.493 205.32C86.2263 206.627 86.093 207.987 86.093 209.4C86.093 210.84 86.2263 212.227 86.493 213.56C86.7863 214.867 87.253 216.04 87.893 217.08C88.533 218.093 89.3463 218.907 90.333 219.52C91.3463 220.133 92.573 220.44 94.013 220.44ZM110.956 223V195.76H113.836V213.56L122.756 203.52H126.396L118.236 212.6L127.276 223H123.836L116.476 214.52L113.836 217.44V223H110.956ZM149.826 223.28C148.84 223.28 147.88 223.213 146.946 223.08C146.013 222.973 145.133 222.827 144.306 222.64C143.48 222.427 142.72 222.213 142.026 222C141.36 221.76 140.786 221.533 140.306 221.32V218.08C140.786 218.32 141.373 218.587 142.066 218.88C142.76 219.147 143.52 219.387 144.346 219.6C145.2 219.813 146.08 220 146.986 220.16C147.92 220.293 148.84 220.36 149.746 220.36C151.88 220.36 153.56 220.013 154.786 219.32C156.013 218.6 156.626 217.587 156.626 216.28C156.626 215.48 156.386 214.8 155.906 214.24C155.453 213.68 154.853 213.187 154.106 212.76C153.36 212.333 152.506 211.947 151.546 211.6C150.586 211.253 149.6 210.907 148.586 210.56C147.573 210.187 146.586 209.787 145.626 209.36C144.666 208.907 143.813 208.387 143.066 207.8C142.32 207.187 141.706 206.467 141.226 205.64C140.773 204.787 140.546 203.787 140.546 202.64C140.546 200.533 141.373 198.827 143.026 197.52C144.706 196.187 147.213 195.52 150.546 195.52C151.613 195.52 152.586 195.6 153.466 195.76C154.373 195.893 155.173 196.08 155.866 196.32C156.586 196.533 157.2 196.773 157.706 197.04C158.213 197.307 158.626 197.56 158.946 197.8V200.72C157.96 200.133 156.786 199.6 155.426 199.12C154.066 198.64 152.52 198.4 150.786 198.4C149.613 198.4 148.586 198.52 147.706 198.76C146.826 198.973 146.093 199.28 145.506 199.68C144.946 200.08 144.52 200.547 144.226 201.08C143.96 201.613 143.826 202.173 143.826 202.76C143.826 203.8 144.226 204.653 145.026 205.32C145.826 205.96 146.826 206.533 148.026 207.04C149.226 207.52 150.52 207.987 151.906 208.44C153.293 208.867 154.586 209.4 155.786 210.04C156.986 210.68 157.986 211.48 158.786 212.44C159.586 213.373 159.986 214.6 159.986 216.12C159.986 216.867 159.853 217.667 159.586 218.52C159.32 219.347 158.813 220.12 158.066 220.84C157.32 221.533 156.28 222.12 154.946 222.6C153.64 223.053 151.933 223.28 149.826 223.28ZM168.292 203.52V215.48C168.292 216.387 168.412 217.16 168.652 217.8C168.892 218.44 169.212 218.96 169.612 219.36C170.012 219.733 170.478 220.013 171.012 220.2C171.572 220.36 172.172 220.44 172.812 220.44C173.585 220.44 174.278 220.307 174.892 220.04C175.532 219.747 176.105 219.373 176.612 218.92C177.145 218.467 177.612 217.96 178.012 217.4C178.412 216.84 178.772 216.267 179.092 215.68V203.52H182.012V223H179.092V219.24C178.745 219.747 178.332 220.24 177.852 220.72C177.398 221.2 176.865 221.627 176.252 222C175.665 222.373 174.998 222.68 174.252 222.92C173.532 223.133 172.732 223.24 171.852 223.24C170.865 223.24 169.958 223.067 169.132 222.72C168.332 222.347 167.638 221.853 167.052 221.24C166.492 220.6 166.052 219.867 165.732 219.04C165.438 218.187 165.292 217.293 165.292 216.36V203.52H168.292ZM198.133 220.56C199.173 220.56 200.08 220.36 200.853 219.96C201.653 219.56 202.32 219.027 202.853 218.36C203.413 217.667 203.826 216.88 204.093 216C204.386 215.12 204.533 214.2 204.533 213.24C204.533 212.28 204.386 211.373 204.093 210.52C203.826 209.64 203.413 208.867 202.853 208.2C202.32 207.507 201.653 206.96 200.853 206.56C200.053 206.16 199.146 205.96 198.133 205.96C197.333 205.96 196.56 206.107 195.813 206.4C195.093 206.693 194.44 207.08 193.853 207.56C193.293 208.013 192.8 208.52 192.373 209.08C191.973 209.64 191.666 210.2 191.453 210.76V215.76C191.64 216.24 191.933 216.76 192.333 217.32C192.76 217.88 193.266 218.4 193.853 218.88C194.44 219.36 195.093 219.76 195.813 220.08C196.56 220.4 197.333 220.56 198.133 220.56ZM188.573 223V195.76H191.453V206.8C192.146 205.84 193.08 205.013 194.253 204.32C195.426 203.627 196.84 203.28 198.493 203.28C199.853 203.28 201.08 203.547 202.173 204.08C203.293 204.587 204.24 205.293 205.013 206.2C205.813 207.107 206.426 208.173 206.853 209.4C207.28 210.6 207.493 211.88 207.493 213.24C207.493 214.627 207.28 215.933 206.853 217.16C206.426 218.36 205.813 219.413 205.013 220.32C204.24 221.227 203.293 221.947 202.173 222.48C201.08 222.987 199.853 223.24 198.493 223.24C196.84 223.24 195.426 222.893 194.253 222.2C193.08 221.48 192.146 220.627 191.453 219.64V223H188.573ZM225.681 217.64C225.681 219.507 224.988 220.907 223.601 221.84C222.214 222.773 220.334 223.24 217.961 223.24C216.601 223.24 215.334 223.093 214.161 222.8C213.014 222.507 212.001 222.2 211.121 221.88V219.24C211.868 219.56 212.868 219.893 214.121 220.24C215.401 220.56 216.694 220.72 218.001 220.72C219.521 220.72 220.694 220.467 221.521 219.96C222.348 219.427 222.761 218.72 222.761 217.84C222.761 217.093 222.468 216.52 221.881 216.12C221.294 215.693 220.561 215.347 219.681 215.08C218.801 214.787 217.841 214.507 216.801 214.24C215.761 213.973 214.801 213.627 213.921 213.2C213.041 212.747 212.308 212.173 211.721 211.48C211.134 210.787 210.841 209.867 210.841 208.72C210.841 207.84 211.041 207.067 211.441 206.4C211.841 205.707 212.388 205.133 213.081 204.68C213.774 204.227 214.574 203.88 215.481 203.64C216.388 203.4 217.334 203.28 218.321 203.28C219.948 203.28 221.281 203.427 222.321 203.72C223.361 203.987 224.161 204.267 224.721 204.56V207.24C224.081 206.867 223.254 206.52 222.241 206.2C221.228 205.88 220.081 205.72 218.801 205.72C218.241 205.72 217.668 205.773 217.081 205.88C216.521 205.96 216.001 206.12 215.521 206.36C215.041 206.6 214.641 206.92 214.321 207.32C214.028 207.693 213.881 208.16 213.881 208.72C213.881 209.44 214.174 210 214.761 210.4C215.348 210.8 216.068 211.147 216.921 211.44C217.801 211.733 218.748 212.013 219.761 212.28C220.801 212.52 221.748 212.853 222.601 213.28C223.481 213.68 224.214 214.227 224.801 214.92C225.388 215.613 225.681 216.52 225.681 217.64ZM238.921 223.24C237.561 223.24 236.281 222.987 235.081 222.48C233.881 221.947 232.841 221.227 231.961 220.32C231.081 219.413 230.375 218.36 229.841 217.16C229.335 215.933 229.081 214.627 229.081 213.24C229.081 211.88 229.335 210.6 229.841 209.4C230.375 208.173 231.081 207.107 231.961 206.2C232.841 205.293 233.881 204.587 235.081 204.08C236.281 203.547 237.561 203.28 238.921 203.28C240.868 203.28 242.575 203.76 244.041 204.72C245.535 205.68 246.668 206.947 247.441 208.52L245.121 209.88C244.535 208.813 243.695 207.893 242.601 207.12C241.535 206.347 240.308 205.96 238.921 205.96C237.908 205.96 236.975 206.16 236.121 206.56C235.295 206.96 234.575 207.507 233.961 208.2C233.375 208.867 232.908 209.64 232.561 210.52C232.241 211.373 232.081 212.28 232.081 213.24C232.081 214.173 232.241 215.093 232.561 216C232.908 216.88 233.375 217.667 233.961 218.36C234.575 219.027 235.295 219.573 236.121 220C236.975 220.4 237.908 220.6 238.921 220.6C239.641 220.6 240.321 220.493 240.961 220.28C241.628 220.04 242.228 219.72 242.761 219.32C243.295 218.92 243.775 218.467 244.201 217.96C244.628 217.427 244.975 216.867 245.241 216.28L247.561 217.64C246.868 219.32 245.748 220.68 244.201 221.72C242.681 222.733 240.921 223.24 238.921 223.24ZM252.323 203.52H255.243V207.16C256.016 206.04 256.99 205.133 258.163 204.44C259.336 203.72 260.643 203.36 262.083 203.36C262.83 203.36 263.536 203.453 264.203 203.64V206.48C263.563 206.32 262.91 206.24 262.243 206.24C260.803 206.24 259.443 206.64 258.163 207.44C256.883 208.24 255.91 209.493 255.243 211.2V223H252.323V203.52ZM268.574 203.52H271.454V223H268.574V203.52ZM268.454 195.76H271.574V201.04H268.454V195.76ZM287.586 220.56C288.626 220.56 289.533 220.36 290.306 219.96C291.106 219.56 291.773 219.027 292.306 218.36C292.866 217.667 293.279 216.88 293.546 216C293.839 215.12 293.986 214.2 293.986 213.24C293.986 212.28 293.839 211.373 293.546 210.52C293.279 209.64 292.866 208.867 292.306 208.2C291.773 207.507 291.106 206.96 290.306 206.56C289.506 206.16 288.599 205.96 287.586 205.96C286.786 205.96 286.013 206.107 285.266 206.4C284.546 206.693 283.893 207.08 283.306 207.56C282.746 208.013 282.253 208.52 281.826 209.08C281.426 209.64 281.119 210.2 280.906 210.76V215.76C281.093 216.24 281.386 216.76 281.786 217.32C282.213 217.88 282.719 218.4 283.306 218.88C283.893 219.36 284.546 219.76 285.266 220.08C286.013 220.4 286.786 220.56 287.586 220.56ZM278.026 223V195.76H280.906V206.8C281.599 205.84 282.533 205.013 283.706 204.32C284.879 203.627 286.293 203.28 287.946 203.28C289.306 203.28 290.533 203.547 291.626 204.08C292.746 204.587 293.693 205.293 294.466 206.2C295.266 207.107 295.879 208.173 296.306 209.4C296.733 210.6 296.946 211.88 296.946 213.24C296.946 214.627 296.733 215.933 296.306 217.16C295.879 218.36 295.266 219.413 294.466 220.32C293.693 221.227 292.746 221.947 291.626 222.48C290.533 222.987 289.306 223.24 287.946 223.24C286.293 223.24 284.879 222.893 283.706 222.2C282.533 221.48 281.599 220.627 280.906 219.64V223H278.026ZM316.614 212.28C316.588 211.4 316.401 210.573 316.054 209.8C315.708 209 315.241 208.32 314.654 207.76C314.068 207.173 313.388 206.707 312.614 206.36C311.841 206.013 311.001 205.84 310.094 205.84C309.161 205.84 308.294 206.013 307.494 206.36C306.694 206.68 306.001 207.133 305.414 207.72C304.828 208.307 304.348 209 303.974 209.8C303.628 210.573 303.428 211.4 303.374 212.28H316.614ZM300.214 213.24C300.214 211.88 300.468 210.6 300.974 209.4C301.508 208.173 302.214 207.107 303.094 206.2C303.974 205.293 305.001 204.587 306.174 204.08C307.374 203.547 308.641 203.28 309.974 203.28C311.334 203.28 312.588 203.533 313.734 204.04C314.908 204.52 315.921 205.2 316.774 206.08C317.654 206.96 318.348 208.013 318.854 209.24C319.361 210.467 319.641 211.813 319.694 213.28V214.76H303.414C303.468 215.587 303.681 216.36 304.054 217.08C304.428 217.8 304.921 218.427 305.534 218.96C306.148 219.493 306.854 219.92 307.654 220.24C308.454 220.56 309.294 220.72 310.174 220.72C311.481 220.72 312.668 220.387 313.734 219.72C314.828 219.027 315.681 218.187 316.294 217.2L318.654 218.36C317.801 219.8 316.641 220.973 315.174 221.88C313.734 222.787 312.054 223.24 310.134 223.24C308.641 223.24 307.281 222.987 306.054 222.48C304.854 221.947 303.814 221.227 302.934 220.32C302.081 219.413 301.414 218.36 300.934 217.16C300.454 215.933 300.214 214.627 300.214 213.24ZM324.667 203.52H327.587V207.16C328.36 206.04 329.333 205.133 330.507 204.44C331.68 203.72 332.987 203.36 334.427 203.36C335.173 203.36 335.88 203.453 336.547 203.64V206.48C335.907 206.32 335.253 206.24 334.587 206.24C333.147 206.24 331.787 206.64 330.507 207.44C329.227 208.24 328.253 209.493 327.587 211.2V223H324.667V203.52ZM354.158 217.64C354.158 219.507 353.464 220.907 352.078 221.84C350.691 222.773 348.811 223.24 346.438 223.24C345.078 223.24 343.811 223.093 342.638 222.8C341.491 222.507 340.478 222.2 339.598 221.88V219.24C340.344 219.56 341.344 219.893 342.598 220.24C343.878 220.56 345.171 220.72 346.478 220.72C347.998 220.72 349.171 220.467 349.998 219.96C350.824 219.427 351.238 218.72 351.238 217.84C351.238 217.093 350.944 216.52 350.358 216.12C349.771 215.693 349.038 215.347 348.158 215.08C347.278 214.787 346.318 214.507 345.278 214.24C344.238 213.973 343.278 213.627 342.398 213.2C341.518 212.747 340.784 212.173 340.198 211.48C339.611 210.787 339.318 209.867 339.318 208.72C339.318 207.84 339.518 207.067 339.918 206.4C340.318 205.707 340.864 205.133 341.558 204.68C342.251 204.227 343.051 203.88 343.958 203.64C344.864 203.4 345.811 203.28 346.798 203.28C348.424 203.28 349.758 203.427 350.798 203.72C351.838 203.987 352.638 204.267 353.198 204.56V207.24C352.558 206.867 351.731 206.52 350.718 206.2C349.704 205.88 348.558 205.72 347.278 205.72C346.718 205.72 346.144 205.773 345.558 205.88C344.998 205.96 344.478 206.12 343.998 206.36C343.518 206.6 343.118 206.92 342.798 207.32C342.504 207.693 342.358 208.16 342.358 208.72C342.358 209.44 342.651 210 343.238 210.4C343.824 210.8 344.544 211.147 345.398 211.44C346.278 211.733 347.224 212.013 348.238 212.28C349.278 212.52 350.224 212.853 351.078 213.28C351.958 213.68 352.691 214.227 353.278 214.92C353.864 215.613 354.158 216.52 354.158 217.64Z" fill="#F5E9C6"/>
<path d="M384 324L544.404 80H757.683H758.277H766V324H384Z" fill="#1B092D"/>
<rect width="383" height="203" rx="20" transform="matrix(-1 0 0 1 766 91)" fill="black"/>
<defs>
<linearGradient id="paint0_linear_58_4" x1="382.5" y1="0" x2="382.5" y2="385" gradientUnits="userSpaceOnUse">
<stop stop-color="#3F146B"/>
<stop offset="1" stop-color="#260C3F"/>
</linearGradient>
</defs>
</svg>
