<svg width="765" height="385" viewBox="0 0 765 385" fill="none" xmlns="http://www.w3.org/2000/svg">
<rect width="765" height="385" fill="url(#paint0_linear_56_3)"/>
<path d="M473.218 178H464.194L479.49 134.48H490.818L506.178 178H497.154L494.146 169.552H476.162L473.218 178ZM485.186 143.504L478.786 161.872H491.586L485.186 143.504ZM516.964 178L505.444 146.128H515.236L522.468 168.592L529.636 146.128H539.428L527.844 178H516.964ZM552.424 178.576C546.536 178.576 541.416 175.568 541.416 168.912C541.416 162.128 546.984 158.992 554.088 158.992L561.256 158.928V157.904C561.256 154.064 558.312 152.592 555.112 152.592C551.848 152.592 548.712 154.704 546.92 156.304L543.016 150.8C546.856 146.768 551.4 145.552 556.776 145.552C563.88 145.552 569.768 149.84 569.768 156.56V178H561.256V175.44C559.016 177.424 556.328 178.576 552.424 178.576ZM555.112 164.816C552.488 164.816 550.248 165.52 550.248 168.272C550.248 170.896 552.424 171.92 554.92 171.92C557.992 171.92 559.784 170.512 561.256 168.464V164.816H555.112ZM576.895 164.176V134.48H585.407V146.128H595.135V153.424H585.407V164.24C585.407 168.272 586.239 170.704 589.759 170.704C590.783 170.704 594.431 170.512 595.135 170.32V178C593.599 178.32 589.823 178.576 588.671 178.576C580.415 178.512 576.895 173.392 576.895 164.176ZM610.174 178.576C604.286 178.576 599.166 175.568 599.166 168.912C599.166 162.128 604.734 158.992 611.838 158.992L619.006 158.928V157.904C619.006 154.064 616.062 152.592 612.862 152.592C609.598 152.592 606.462 154.704 604.67 156.304L600.766 150.8C604.606 146.768 609.15 145.552 614.526 145.552C621.63 145.552 627.518 149.84 627.518 156.56V178H619.006V175.44C616.766 177.424 614.078 178.576 610.174 178.576ZM612.862 164.816C610.238 164.816 607.998 165.52 607.998 168.272C607.998 170.896 610.174 171.92 612.67 171.92C615.742 171.92 617.534 170.512 619.006 168.464V164.816H612.862ZM634.645 146.128H643.157V150.16C645.397 147.408 648.405 145.744 652.181 145.744C653.397 145.744 654.485 145.872 655.573 146.192V154.448C654.549 154.192 653.525 154.064 652.437 154.064C648.533 154.064 645.013 155.856 643.157 158.928V178H634.645V146.128ZM675.504 137.04L684.976 134.48H694.064V178H684.976V142.544L675.504 144.592V137.04Z" fill="white"/>
<path d="M421.522 212V208.96C423.495 207.627 425.389 206.293 427.202 204.96C429.015 203.6 430.615 202.24 432.002 200.88C433.415 199.52 434.535 198.16 435.362 196.8C436.189 195.44 436.602 194.08 436.602 192.72C436.602 191.227 436.082 189.973 435.042 188.96C434.002 187.947 432.455 187.44 430.402 187.44C429.602 187.44 428.815 187.547 428.042 187.76C427.295 187.947 426.602 188.187 425.962 188.48C425.322 188.773 424.735 189.08 424.202 189.4C423.695 189.693 423.269 189.96 422.922 190.2V187.04C424.175 186.267 425.482 185.667 426.842 185.24C428.202 184.787 429.602 184.56 431.042 184.56C432.802 184.56 434.255 184.8 435.402 185.28C436.575 185.76 437.495 186.373 438.162 187.12C438.855 187.867 439.335 188.707 439.602 189.64C439.869 190.573 440.002 191.493 440.002 192.4C440.002 193.6 439.789 194.76 439.362 195.88C438.935 196.973 438.362 198.04 437.642 199.08C436.949 200.093 436.135 201.067 435.202 202C434.269 202.933 433.295 203.813 432.282 204.64C431.269 205.467 430.242 206.24 429.202 206.96C428.162 207.68 427.189 208.347 426.282 208.96H440.362V212H421.522ZM456.63 212.28C454.657 212.28 452.963 211.907 451.55 211.16C450.137 210.413 448.963 209.4 448.03 208.12C447.123 206.84 446.443 205.36 445.99 203.68C445.563 202 445.35 200.24 445.35 198.4C445.35 196.56 445.563 194.813 445.99 193.16C446.443 191.48 447.123 190 448.03 188.72C448.963 187.44 450.137 186.427 451.55 185.68C452.963 184.933 454.657 184.56 456.63 184.56C458.603 184.56 460.297 184.933 461.71 185.68C463.123 186.427 464.283 187.44 465.19 188.72C466.097 190 466.763 191.48 467.19 193.16C467.643 194.813 467.87 196.56 467.87 198.4C467.87 200.24 467.643 202 467.19 203.68C466.763 205.36 466.097 206.84 465.19 208.12C464.283 209.4 463.123 210.413 461.71 211.16C460.297 211.907 458.603 212.28 456.63 212.28ZM456.63 209.44C458.07 209.44 459.283 209.133 460.27 208.52C461.283 207.907 462.11 207.093 462.75 206.08C463.39 205.04 463.843 203.867 464.11 202.56C464.403 201.227 464.55 199.84 464.55 198.4C464.55 196.987 464.403 195.627 464.11 194.32C463.843 192.987 463.39 191.813 462.75 190.8C462.11 189.787 461.283 188.973 460.27 188.36C459.283 187.747 458.07 187.44 456.63 187.44C455.19 187.44 453.963 187.747 452.95 188.36C451.963 188.973 451.15 189.787 450.51 190.8C449.87 191.813 449.403 192.987 449.11 194.32C448.843 195.627 448.71 196.987 448.71 198.4C448.71 199.84 448.843 201.227 449.11 202.56C449.403 203.867 449.87 205.04 450.51 206.08C451.15 207.093 451.963 207.907 452.95 208.52C453.963 209.133 455.19 209.44 456.63 209.44ZM484.013 212.28C482.04 212.28 480.346 211.907 478.933 211.16C477.52 210.413 476.346 209.4 475.413 208.12C474.506 206.84 473.826 205.36 473.373 203.68C472.946 202 472.733 200.24 472.733 198.4C472.733 196.56 472.946 194.813 473.373 193.16C473.826 191.48 474.506 190 475.413 188.72C476.346 187.44 477.52 186.427 478.933 185.68C480.346 184.933 482.04 184.56 484.013 184.56C485.986 184.56 487.68 184.933 489.093 185.68C490.506 186.427 491.666 187.44 492.573 188.72C493.48 190 494.146 191.48 494.573 193.16C495.026 194.813 495.253 196.56 495.253 198.4C495.253 200.24 495.026 202 494.573 203.68C494.146 205.36 493.48 206.84 492.573 208.12C491.666 209.4 490.506 210.413 489.093 211.16C487.68 211.907 485.986 212.28 484.013 212.28ZM484.013 209.44C485.453 209.44 486.666 209.133 487.653 208.52C488.666 207.907 489.493 207.093 490.133 206.08C490.773 205.04 491.226 203.867 491.493 202.56C491.786 201.227 491.933 199.84 491.933 198.4C491.933 196.987 491.786 195.627 491.493 194.32C491.226 192.987 490.773 191.813 490.133 190.8C489.493 189.787 488.666 188.973 487.653 188.36C486.666 187.747 485.453 187.44 484.013 187.44C482.573 187.44 481.346 187.747 480.333 188.36C479.346 188.973 478.533 189.787 477.893 190.8C477.253 191.813 476.786 192.987 476.493 194.32C476.226 195.627 476.093 196.987 476.093 198.4C476.093 199.84 476.226 201.227 476.493 202.56C476.786 203.867 477.253 205.04 477.893 206.08C478.533 207.093 479.346 207.907 480.333 208.52C481.346 209.133 482.573 209.44 484.013 209.44ZM500.956 212V184.76H503.836V202.56L512.756 192.52H516.396L508.236 201.6L517.276 212H513.836L506.476 203.52L503.836 206.44V212H500.956ZM539.826 212.28C538.84 212.28 537.88 212.213 536.946 212.08C536.013 211.973 535.133 211.827 534.306 211.64C533.48 211.427 532.72 211.213 532.026 211C531.36 210.76 530.786 210.533 530.306 210.32V207.08C530.786 207.32 531.373 207.587 532.066 207.88C532.76 208.147 533.52 208.387 534.346 208.6C535.2 208.813 536.08 209 536.986 209.16C537.92 209.293 538.84 209.36 539.746 209.36C541.88 209.36 543.56 209.013 544.786 208.32C546.013 207.6 546.626 206.587 546.626 205.28C546.626 204.48 546.386 203.8 545.906 203.24C545.453 202.68 544.853 202.187 544.106 201.76C543.36 201.333 542.506 200.947 541.546 200.6C540.586 200.253 539.6 199.907 538.586 199.56C537.573 199.187 536.586 198.787 535.626 198.36C534.666 197.907 533.813 197.387 533.066 196.8C532.32 196.187 531.706 195.467 531.226 194.64C530.773 193.787 530.546 192.787 530.546 191.64C530.546 189.533 531.373 187.827 533.026 186.52C534.706 185.187 537.213 184.52 540.546 184.52C541.613 184.52 542.586 184.6 543.466 184.76C544.373 184.893 545.173 185.08 545.866 185.32C546.586 185.533 547.2 185.773 547.706 186.04C548.213 186.307 548.626 186.56 548.946 186.8V189.72C547.96 189.133 546.786 188.6 545.426 188.12C544.066 187.64 542.52 187.4 540.786 187.4C539.613 187.4 538.586 187.52 537.706 187.76C536.826 187.973 536.093 188.28 535.506 188.68C534.946 189.08 534.52 189.547 534.226 190.08C533.96 190.613 533.826 191.173 533.826 191.76C533.826 192.8 534.226 193.653 535.026 194.32C535.826 194.96 536.826 195.533 538.026 196.04C539.226 196.52 540.52 196.987 541.906 197.44C543.293 197.867 544.586 198.4 545.786 199.04C546.986 199.68 547.986 200.48 548.786 201.44C549.586 202.373 549.986 203.6 549.986 205.12C549.986 205.867 549.853 206.667 549.586 207.52C549.32 208.347 548.813 209.12 548.066 209.84C547.32 210.533 546.28 211.12 544.946 211.6C543.64 212.053 541.933 212.28 539.826 212.28ZM558.292 192.52V204.48C558.292 205.387 558.412 206.16 558.652 206.8C558.892 207.44 559.212 207.96 559.612 208.36C560.012 208.733 560.478 209.013 561.012 209.2C561.572 209.36 562.172 209.44 562.812 209.44C563.585 209.44 564.278 209.307 564.892 209.04C565.532 208.747 566.105 208.373 566.612 207.92C567.145 207.467 567.612 206.96 568.012 206.4C568.412 205.84 568.772 205.267 569.092 204.68V192.52H572.012V212H569.092V208.24C568.745 208.747 568.332 209.24 567.852 209.72C567.398 210.2 566.865 210.627 566.252 211C565.665 211.373 564.998 211.68 564.252 211.92C563.532 212.133 562.732 212.24 561.852 212.24C560.865 212.24 559.958 212.067 559.132 211.72C558.332 211.347 557.638 210.853 557.052 210.24C556.492 209.6 556.052 208.867 555.732 208.04C555.438 207.187 555.292 206.293 555.292 205.36V192.52H558.292ZM588.133 209.56C589.173 209.56 590.08 209.36 590.853 208.96C591.653 208.56 592.32 208.027 592.853 207.36C593.413 206.667 593.826 205.88 594.093 205C594.386 204.12 594.533 203.2 594.533 202.24C594.533 201.28 594.386 200.373 594.093 199.52C593.826 198.64 593.413 197.867 592.853 197.2C592.32 196.507 591.653 195.96 590.853 195.56C590.053 195.16 589.146 194.96 588.133 194.96C587.333 194.96 586.56 195.107 585.813 195.4C585.093 195.693 584.44 196.08 583.853 196.56C583.293 197.013 582.8 197.52 582.373 198.08C581.973 198.64 581.666 199.2 581.453 199.76V204.76C581.64 205.24 581.933 205.76 582.333 206.32C582.76 206.88 583.266 207.4 583.853 207.88C584.44 208.36 585.093 208.76 585.813 209.08C586.56 209.4 587.333 209.56 588.133 209.56ZM578.573 212V184.76H581.453V195.8C582.146 194.84 583.08 194.013 584.253 193.32C585.426 192.627 586.84 192.28 588.493 192.28C589.853 192.28 591.08 192.547 592.173 193.08C593.293 193.587 594.24 194.293 595.013 195.2C595.813 196.107 596.426 197.173 596.853 198.4C597.28 199.6 597.493 200.88 597.493 202.24C597.493 203.627 597.28 204.933 596.853 206.16C596.426 207.36 595.813 208.413 595.013 209.32C594.24 210.227 593.293 210.947 592.173 211.48C591.08 211.987 589.853 212.24 588.493 212.24C586.84 212.24 585.426 211.893 584.253 211.2C583.08 210.48 582.146 209.627 581.453 208.64V212H578.573ZM615.681 206.64C615.681 208.507 614.988 209.907 613.601 210.84C612.214 211.773 610.334 212.24 607.961 212.24C606.601 212.24 605.334 212.093 604.161 211.8C603.014 211.507 602.001 211.2 601.121 210.88V208.24C601.868 208.56 602.868 208.893 604.121 209.24C605.401 209.56 606.694 209.72 608.001 209.72C609.521 209.72 610.694 209.467 611.521 208.96C612.348 208.427 612.761 207.72 612.761 206.84C612.761 206.093 612.468 205.52 611.881 205.12C611.294 204.693 610.561 204.347 609.681 204.08C608.801 203.787 607.841 203.507 606.801 203.24C605.761 202.973 604.801 202.627 603.921 202.2C603.041 201.747 602.308 201.173 601.721 200.48C601.134 199.787 600.841 198.867 600.841 197.72C600.841 196.84 601.041 196.067 601.441 195.4C601.841 194.707 602.388 194.133 603.081 193.68C603.774 193.227 604.574 192.88 605.481 192.64C606.388 192.4 607.334 192.28 608.321 192.28C609.948 192.28 611.281 192.427 612.321 192.72C613.361 192.987 614.161 193.267 614.721 193.56V196.24C614.081 195.867 613.254 195.52 612.241 195.2C611.228 194.88 610.081 194.72 608.801 194.72C608.241 194.72 607.668 194.773 607.081 194.88C606.521 194.96 606.001 195.12 605.521 195.36C605.041 195.6 604.641 195.92 604.321 196.32C604.028 196.693 603.881 197.16 603.881 197.72C603.881 198.44 604.174 199 604.761 199.4C605.348 199.8 606.068 200.147 606.921 200.44C607.801 200.733 608.748 201.013 609.761 201.28C610.801 201.52 611.748 201.853 612.601 202.28C613.481 202.68 614.214 203.227 614.801 203.92C615.388 204.613 615.681 205.52 615.681 206.64ZM628.921 212.24C627.561 212.24 626.281 211.987 625.081 211.48C623.881 210.947 622.841 210.227 621.961 209.32C621.081 208.413 620.375 207.36 619.841 206.16C619.335 204.933 619.081 203.627 619.081 202.24C619.081 200.88 619.335 199.6 619.841 198.4C620.375 197.173 621.081 196.107 621.961 195.2C622.841 194.293 623.881 193.587 625.081 193.08C626.281 192.547 627.561 192.28 628.921 192.28C630.868 192.28 632.575 192.76 634.041 193.72C635.535 194.68 636.668 195.947 637.441 197.52L635.121 198.88C634.535 197.813 633.695 196.893 632.601 196.12C631.535 195.347 630.308 194.96 628.921 194.96C627.908 194.96 626.975 195.16 626.121 195.56C625.295 195.96 624.575 196.507 623.961 197.2C623.375 197.867 622.908 198.64 622.561 199.52C622.241 200.373 622.081 201.28 622.081 202.24C622.081 203.173 622.241 204.093 622.561 205C622.908 205.88 623.375 206.667 623.961 207.36C624.575 208.027 625.295 208.573 626.121 209C626.975 209.4 627.908 209.6 628.921 209.6C629.641 209.6 630.321 209.493 630.961 209.28C631.628 209.04 632.228 208.72 632.761 208.32C633.295 207.92 633.775 207.467 634.201 206.96C634.628 206.427 634.975 205.867 635.241 205.28L637.561 206.64C636.868 208.32 635.748 209.68 634.201 210.72C632.681 211.733 630.921 212.24 628.921 212.24ZM642.323 192.52H645.243V196.16C646.016 195.04 646.99 194.133 648.163 193.44C649.336 192.72 650.643 192.36 652.083 192.36C652.83 192.36 653.536 192.453 654.203 192.64V195.48C653.563 195.32 652.91 195.24 652.243 195.24C650.803 195.24 649.443 195.64 648.163 196.44C646.883 197.24 645.91 198.493 645.243 200.2V212H642.323V192.52ZM658.574 192.52H661.454V212H658.574V192.52ZM658.454 184.76H661.574V190.04H658.454V184.76ZM677.586 209.56C678.626 209.56 679.533 209.36 680.306 208.96C681.106 208.56 681.773 208.027 682.306 207.36C682.866 206.667 683.279 205.88 683.546 205C683.839 204.12 683.986 203.2 683.986 202.24C683.986 201.28 683.839 200.373 683.546 199.52C683.279 198.64 682.866 197.867 682.306 197.2C681.773 196.507 681.106 195.96 680.306 195.56C679.506 195.16 678.599 194.96 677.586 194.96C676.786 194.96 676.013 195.107 675.266 195.4C674.546 195.693 673.893 196.08 673.306 196.56C672.746 197.013 672.253 197.52 671.826 198.08C671.426 198.64 671.119 199.2 670.906 199.76V204.76C671.093 205.24 671.386 205.76 671.786 206.32C672.213 206.88 672.719 207.4 673.306 207.88C673.893 208.36 674.546 208.76 675.266 209.08C676.013 209.4 676.786 209.56 677.586 209.56ZM668.026 212V184.76H670.906V195.8C671.599 194.84 672.533 194.013 673.706 193.32C674.879 192.627 676.293 192.28 677.946 192.28C679.306 192.28 680.533 192.547 681.626 193.08C682.746 193.587 683.693 194.293 684.466 195.2C685.266 196.107 685.879 197.173 686.306 198.4C686.733 199.6 686.946 200.88 686.946 202.24C686.946 203.627 686.733 204.933 686.306 206.16C685.879 207.36 685.266 208.413 684.466 209.32C683.693 210.227 682.746 210.947 681.626 211.48C680.533 211.987 679.306 212.24 677.946 212.24C676.293 212.24 674.879 211.893 673.706 211.2C672.533 210.48 671.599 209.627 670.906 208.64V212H668.026ZM706.614 201.28C706.588 200.4 706.401 199.573 706.054 198.8C705.708 198 705.241 197.32 704.654 196.76C704.068 196.173 703.388 195.707 702.614 195.36C701.841 195.013 701.001 194.84 700.094 194.84C699.161 194.84 698.294 195.013 697.494 195.36C696.694 195.68 696.001 196.133 695.414 196.72C694.828 197.307 694.348 198 693.974 198.8C693.628 199.573 693.428 200.4 693.374 201.28H706.614ZM690.214 202.24C690.214 200.88 690.468 199.6 690.974 198.4C691.508 197.173 692.214 196.107 693.094 195.2C693.974 194.293 695.001 193.587 696.174 193.08C697.374 192.547 698.641 192.28 699.974 192.28C701.334 192.28 702.588 192.533 703.734 193.04C704.908 193.52 705.921 194.2 706.774 195.08C707.654 195.96 708.348 197.013 708.854 198.24C709.361 199.467 709.641 200.813 709.694 202.28V203.76H693.414C693.468 204.587 693.681 205.36 694.054 206.08C694.428 206.8 694.921 207.427 695.534 207.96C696.148 208.493 696.854 208.92 697.654 209.24C698.454 209.56 699.294 209.72 700.174 209.72C701.481 209.72 702.668 209.387 703.734 208.72C704.828 208.027 705.681 207.187 706.294 206.2L708.654 207.36C707.801 208.8 706.641 209.973 705.174 210.88C703.734 211.787 702.054 212.24 700.134 212.24C698.641 212.24 697.281 211.987 696.054 211.48C694.854 210.947 693.814 210.227 692.934 209.32C692.081 208.413 691.414 207.36 690.934 206.16C690.454 204.933 690.214 203.627 690.214 202.24ZM714.667 192.52H717.587V196.16C718.36 195.04 719.333 194.133 720.507 193.44C721.68 192.72 722.987 192.36 724.427 192.36C725.173 192.36 725.88 192.453 726.547 192.64V195.48C725.907 195.32 725.253 195.24 724.587 195.24C723.147 195.24 721.787 195.64 720.507 196.44C719.227 197.24 718.253 198.493 717.587 200.2V212H714.667V192.52ZM744.158 206.64C744.158 208.507 743.464 209.907 742.078 210.84C740.691 211.773 738.811 212.24 736.438 212.24C735.078 212.24 733.811 212.093 732.638 211.8C731.491 211.507 730.478 211.2 729.598 210.88V208.24C730.344 208.56 731.344 208.893 732.598 209.24C733.878 209.56 735.171 209.72 736.478 209.72C737.998 209.72 739.171 209.467 739.998 208.96C740.824 208.427 741.238 207.72 741.238 206.84C741.238 206.093 740.944 205.52 740.358 205.12C739.771 204.693 739.038 204.347 738.158 204.08C737.278 203.787 736.318 203.507 735.278 203.24C734.238 202.973 733.278 202.627 732.398 202.2C731.518 201.747 730.784 201.173 730.198 200.48C729.611 199.787 729.318 198.867 729.318 197.72C729.318 196.84 729.518 196.067 729.918 195.4C730.318 194.707 730.864 194.133 731.558 193.68C732.251 193.227 733.051 192.88 733.958 192.64C734.864 192.4 735.811 192.28 736.798 192.28C738.424 192.28 739.758 192.427 740.798 192.72C741.838 192.987 742.638 193.267 743.198 193.56V196.24C742.558 195.867 741.731 195.52 740.718 195.2C739.704 194.88 738.558 194.72 737.278 194.72C736.718 194.72 736.144 194.773 735.558 194.88C734.998 194.96 734.478 195.12 733.998 195.36C733.518 195.6 733.118 195.92 732.798 196.32C732.504 196.693 732.358 197.16 732.358 197.72C732.358 198.44 732.651 199 733.238 199.4C733.824 199.8 734.544 200.147 735.398 200.44C736.278 200.733 737.224 201.013 738.238 201.28C739.278 201.52 740.224 201.853 741.078 202.28C741.958 202.68 742.691 203.227 743.278 203.92C743.864 204.613 744.158 205.52 744.158 206.64Z" fill="#F5E9C6"/>
<path d="M383 315L222.596 71H9.31726H8.72317H1V315H383Z" fill="#1B092D"/>
<rect x="1" y="82" width="383" height="203" rx="20" fill="black"/>
<defs>
<linearGradient id="paint0_linear_56_3" x1="382.5" y1="0" x2="382.5" y2="385" gradientUnits="userSpaceOnUse">
<stop stop-color="#4A167F"/>
<stop offset="1" stop-color="#3B1265"/>
</linearGradient>
</defs>
</svg>
