<svg width="765" height="385" viewBox="0 0 765 385" fill="none" xmlns="http://www.w3.org/2000/svg">
<rect width="765" height="385" fill="url(#paint0_linear_58_7)"/>
<path d="M469.311 163H460.287L475.583 119.48H486.911L502.271 163H493.247L490.239 154.552H472.255L469.311 163ZM481.279 128.504L474.879 146.872H487.679L481.279 128.504ZM513.057 163L501.537 131.128H511.329L518.561 153.592L525.729 131.128H535.521L523.937 163H513.057ZM548.517 163.576C542.629 163.576 537.509 160.568 537.509 153.912C537.509 147.128 543.077 143.992 550.181 143.992L557.349 143.928V142.904C557.349 139.064 554.405 137.592 551.205 137.592C547.941 137.592 544.805 139.704 543.013 141.304L539.109 135.8C542.949 131.768 547.493 130.552 552.869 130.552C559.973 130.552 565.861 134.84 565.861 141.56V163H557.349V160.44C555.109 162.424 552.421 163.576 548.517 163.576ZM551.205 149.816C548.581 149.816 546.341 150.52 546.341 153.272C546.341 155.896 548.517 156.92 551.013 156.92C554.085 156.92 555.877 155.512 557.349 153.464V149.816H551.205ZM572.989 149.176V119.48H581.501V131.128H591.229V138.424H581.501V149.24C581.501 153.272 582.333 155.704 585.853 155.704C586.877 155.704 590.525 155.512 591.229 155.32V163C589.693 163.32 585.917 163.576 584.765 163.576C576.509 163.512 572.989 158.392 572.989 149.176ZM606.267 163.576C600.379 163.576 595.259 160.568 595.259 153.912C595.259 147.128 600.827 143.992 607.931 143.992L615.099 143.928V142.904C615.099 139.064 612.155 137.592 608.955 137.592C605.691 137.592 602.555 139.704 600.763 141.304L596.859 135.8C600.699 131.768 605.243 130.552 610.619 130.552C617.723 130.552 623.611 134.84 623.611 141.56V163H615.099V160.44C612.859 162.424 610.171 163.576 606.267 163.576ZM608.955 149.816C606.331 149.816 604.091 150.52 604.091 153.272C604.091 155.896 606.267 156.92 608.763 156.92C611.835 156.92 613.627 155.512 615.099 153.464V149.816H608.955ZM630.739 131.128H639.251V135.16C641.491 132.408 644.499 130.744 648.275 130.744C649.491 130.744 650.579 130.872 651.667 131.192V139.448C650.643 139.192 649.619 139.064 648.531 139.064C644.627 139.064 641.107 140.856 639.251 143.928V163H630.739V131.128ZM685.549 163.576C680.493 163.576 675.757 162.488 671.597 160.504V151.352C673.965 152.888 679.085 155.384 683.885 155.384C688.045 155.384 692.205 154.36 692.205 150.072C692.205 146.296 689.389 144.632 677.165 144.632V138.104C688.749 138.104 691.501 136.248 691.501 132.664C691.501 129.4 687.981 127.096 684.077 127.096C679.597 127.096 675.309 129.912 672.877 131.448V122.424C676.973 120.12 681.069 118.84 685.933 118.84C697.261 118.84 701.421 125.112 701.421 131.256C701.421 134.84 700.141 138.36 696.045 140.856C700.653 142.968 702.125 146.232 702.125 150.584C702.125 159.096 696.493 163.576 685.549 163.576Z" fill="white"/>
<path d="M421.522 197V193.96C423.495 192.627 425.389 191.293 427.202 189.96C429.015 188.6 430.615 187.24 432.002 185.88C433.415 184.52 434.535 183.16 435.362 181.8C436.189 180.44 436.602 179.08 436.602 177.72C436.602 176.227 436.082 174.973 435.042 173.96C434.002 172.947 432.455 172.44 430.402 172.44C429.602 172.44 428.815 172.547 428.042 172.76C427.295 172.947 426.602 173.187 425.962 173.48C425.322 173.773 424.735 174.08 424.202 174.4C423.695 174.693 423.269 174.96 422.922 175.2V172.04C424.175 171.267 425.482 170.667 426.842 170.24C428.202 169.787 429.602 169.56 431.042 169.56C432.802 169.56 434.255 169.8 435.402 170.28C436.575 170.76 437.495 171.373 438.162 172.12C438.855 172.867 439.335 173.707 439.602 174.64C439.869 175.573 440.002 176.493 440.002 177.4C440.002 178.6 439.789 179.76 439.362 180.88C438.935 181.973 438.362 183.04 437.642 184.08C436.949 185.093 436.135 186.067 435.202 187C434.269 187.933 433.295 188.813 432.282 189.64C431.269 190.467 430.242 191.24 429.202 191.96C428.162 192.68 427.189 193.347 426.282 193.96H440.362V197H421.522ZM456.63 197.28C454.657 197.28 452.963 196.907 451.55 196.16C450.137 195.413 448.963 194.4 448.03 193.12C447.123 191.84 446.443 190.36 445.99 188.68C445.563 187 445.35 185.24 445.35 183.4C445.35 181.56 445.563 179.813 445.99 178.16C446.443 176.48 447.123 175 448.03 173.72C448.963 172.44 450.137 171.427 451.55 170.68C452.963 169.933 454.657 169.56 456.63 169.56C458.603 169.56 460.297 169.933 461.71 170.68C463.123 171.427 464.283 172.44 465.19 173.72C466.097 175 466.763 176.48 467.19 178.16C467.643 179.813 467.87 181.56 467.87 183.4C467.87 185.24 467.643 187 467.19 188.68C466.763 190.36 466.097 191.84 465.19 193.12C464.283 194.4 463.123 195.413 461.71 196.16C460.297 196.907 458.603 197.28 456.63 197.28ZM456.63 194.44C458.07 194.44 459.283 194.133 460.27 193.52C461.283 192.907 462.11 192.093 462.75 191.08C463.39 190.04 463.843 188.867 464.11 187.56C464.403 186.227 464.55 184.84 464.55 183.4C464.55 181.987 464.403 180.627 464.11 179.32C463.843 177.987 463.39 176.813 462.75 175.8C462.11 174.787 461.283 173.973 460.27 173.36C459.283 172.747 458.07 172.44 456.63 172.44C455.19 172.44 453.963 172.747 452.95 173.36C451.963 173.973 451.15 174.787 450.51 175.8C449.87 176.813 449.403 177.987 449.11 179.32C448.843 180.627 448.71 181.987 448.71 183.4C448.71 184.84 448.843 186.227 449.11 187.56C449.403 188.867 449.87 190.04 450.51 191.08C451.15 192.093 451.963 192.907 452.95 193.52C453.963 194.133 455.19 194.44 456.63 194.44ZM484.013 197.28C482.04 197.28 480.346 196.907 478.933 196.16C477.52 195.413 476.346 194.4 475.413 193.12C474.506 191.84 473.826 190.36 473.373 188.68C472.946 187 472.733 185.24 472.733 183.4C472.733 181.56 472.946 179.813 473.373 178.16C473.826 176.48 474.506 175 475.413 173.72C476.346 172.44 477.52 171.427 478.933 170.68C480.346 169.933 482.04 169.56 484.013 169.56C485.986 169.56 487.68 169.933 489.093 170.68C490.506 171.427 491.666 172.44 492.573 173.72C493.48 175 494.146 176.48 494.573 178.16C495.026 179.813 495.253 181.56 495.253 183.4C495.253 185.24 495.026 187 494.573 188.68C494.146 190.36 493.48 191.84 492.573 193.12C491.666 194.4 490.506 195.413 489.093 196.16C487.68 196.907 485.986 197.28 484.013 197.28ZM484.013 194.44C485.453 194.44 486.666 194.133 487.653 193.52C488.666 192.907 489.493 192.093 490.133 191.08C490.773 190.04 491.226 188.867 491.493 187.56C491.786 186.227 491.933 184.84 491.933 183.4C491.933 181.987 491.786 180.627 491.493 179.32C491.226 177.987 490.773 176.813 490.133 175.8C489.493 174.787 488.666 173.973 487.653 173.36C486.666 172.747 485.453 172.44 484.013 172.44C482.573 172.44 481.346 172.747 480.333 173.36C479.346 173.973 478.533 174.787 477.893 175.8C477.253 176.813 476.786 177.987 476.493 179.32C476.226 180.627 476.093 181.987 476.093 183.4C476.093 184.84 476.226 186.227 476.493 187.56C476.786 188.867 477.253 190.04 477.893 191.08C478.533 192.093 479.346 192.907 480.333 193.52C481.346 194.133 482.573 194.44 484.013 194.44ZM500.956 197V169.76H503.836V187.56L512.756 177.52H516.396L508.236 186.6L517.276 197H513.836L506.476 188.52L503.836 191.44V197H500.956ZM539.826 197.28C538.84 197.28 537.88 197.213 536.946 197.08C536.013 196.973 535.133 196.827 534.306 196.64C533.48 196.427 532.72 196.213 532.026 196C531.36 195.76 530.786 195.533 530.306 195.32V192.08C530.786 192.32 531.373 192.587 532.066 192.88C532.76 193.147 533.52 193.387 534.346 193.6C535.2 193.813 536.08 194 536.986 194.16C537.92 194.293 538.84 194.36 539.746 194.36C541.88 194.36 543.56 194.013 544.786 193.32C546.013 192.6 546.626 191.587 546.626 190.28C546.626 189.48 546.386 188.8 545.906 188.24C545.453 187.68 544.853 187.187 544.106 186.76C543.36 186.333 542.506 185.947 541.546 185.6C540.586 185.253 539.6 184.907 538.586 184.56C537.573 184.187 536.586 183.787 535.626 183.36C534.666 182.907 533.813 182.387 533.066 181.8C532.32 181.187 531.706 180.467 531.226 179.64C530.773 178.787 530.546 177.787 530.546 176.64C530.546 174.533 531.373 172.827 533.026 171.52C534.706 170.187 537.213 169.52 540.546 169.52C541.613 169.52 542.586 169.6 543.466 169.76C544.373 169.893 545.173 170.08 545.866 170.32C546.586 170.533 547.2 170.773 547.706 171.04C548.213 171.307 548.626 171.56 548.946 171.8V174.72C547.96 174.133 546.786 173.6 545.426 173.12C544.066 172.64 542.52 172.4 540.786 172.4C539.613 172.4 538.586 172.52 537.706 172.76C536.826 172.973 536.093 173.28 535.506 173.68C534.946 174.08 534.52 174.547 534.226 175.08C533.96 175.613 533.826 176.173 533.826 176.76C533.826 177.8 534.226 178.653 535.026 179.32C535.826 179.96 536.826 180.533 538.026 181.04C539.226 181.52 540.52 181.987 541.906 182.44C543.293 182.867 544.586 183.4 545.786 184.04C546.986 184.68 547.986 185.48 548.786 186.44C549.586 187.373 549.986 188.6 549.986 190.12C549.986 190.867 549.853 191.667 549.586 192.52C549.32 193.347 548.813 194.12 548.066 194.84C547.32 195.533 546.28 196.12 544.946 196.6C543.64 197.053 541.933 197.28 539.826 197.28ZM558.292 177.52V189.48C558.292 190.387 558.412 191.16 558.652 191.8C558.892 192.44 559.212 192.96 559.612 193.36C560.012 193.733 560.478 194.013 561.012 194.2C561.572 194.36 562.172 194.44 562.812 194.44C563.585 194.44 564.278 194.307 564.892 194.04C565.532 193.747 566.105 193.373 566.612 192.92C567.145 192.467 567.612 191.96 568.012 191.4C568.412 190.84 568.772 190.267 569.092 189.68V177.52H572.012V197H569.092V193.24C568.745 193.747 568.332 194.24 567.852 194.72C567.398 195.2 566.865 195.627 566.252 196C565.665 196.373 564.998 196.68 564.252 196.92C563.532 197.133 562.732 197.24 561.852 197.24C560.865 197.24 559.958 197.067 559.132 196.72C558.332 196.347 557.638 195.853 557.052 195.24C556.492 194.6 556.052 193.867 555.732 193.04C555.438 192.187 555.292 191.293 555.292 190.36V177.52H558.292ZM588.133 194.56C589.173 194.56 590.08 194.36 590.853 193.96C591.653 193.56 592.32 193.027 592.853 192.36C593.413 191.667 593.826 190.88 594.093 190C594.386 189.12 594.533 188.2 594.533 187.24C594.533 186.28 594.386 185.373 594.093 184.52C593.826 183.64 593.413 182.867 592.853 182.2C592.32 181.507 591.653 180.96 590.853 180.56C590.053 180.16 589.146 179.96 588.133 179.96C587.333 179.96 586.56 180.107 585.813 180.4C585.093 180.693 584.44 181.08 583.853 181.56C583.293 182.013 582.8 182.52 582.373 183.08C581.973 183.64 581.666 184.2 581.453 184.76V189.76C581.64 190.24 581.933 190.76 582.333 191.32C582.76 191.88 583.266 192.4 583.853 192.88C584.44 193.36 585.093 193.76 585.813 194.08C586.56 194.4 587.333 194.56 588.133 194.56ZM578.573 197V169.76H581.453V180.8C582.146 179.84 583.08 179.013 584.253 178.32C585.426 177.627 586.84 177.28 588.493 177.28C589.853 177.28 591.08 177.547 592.173 178.08C593.293 178.587 594.24 179.293 595.013 180.2C595.813 181.107 596.426 182.173 596.853 183.4C597.28 184.6 597.493 185.88 597.493 187.24C597.493 188.627 597.28 189.933 596.853 191.16C596.426 192.36 595.813 193.413 595.013 194.32C594.24 195.227 593.293 195.947 592.173 196.48C591.08 196.987 589.853 197.24 588.493 197.24C586.84 197.24 585.426 196.893 584.253 196.2C583.08 195.48 582.146 194.627 581.453 193.64V197H578.573ZM615.681 191.64C615.681 193.507 614.988 194.907 613.601 195.84C612.214 196.773 610.334 197.24 607.961 197.24C606.601 197.24 605.334 197.093 604.161 196.8C603.014 196.507 602.001 196.2 601.121 195.88V193.24C601.868 193.56 602.868 193.893 604.121 194.24C605.401 194.56 606.694 194.72 608.001 194.72C609.521 194.72 610.694 194.467 611.521 193.96C612.348 193.427 612.761 192.72 612.761 191.84C612.761 191.093 612.468 190.52 611.881 190.12C611.294 189.693 610.561 189.347 609.681 189.08C608.801 188.787 607.841 188.507 606.801 188.24C605.761 187.973 604.801 187.627 603.921 187.2C603.041 186.747 602.308 186.173 601.721 185.48C601.134 184.787 600.841 183.867 600.841 182.72C600.841 181.84 601.041 181.067 601.441 180.4C601.841 179.707 602.388 179.133 603.081 178.68C603.774 178.227 604.574 177.88 605.481 177.64C606.388 177.4 607.334 177.28 608.321 177.28C609.948 177.28 611.281 177.427 612.321 177.72C613.361 177.987 614.161 178.267 614.721 178.56V181.24C614.081 180.867 613.254 180.52 612.241 180.2C611.228 179.88 610.081 179.72 608.801 179.72C608.241 179.72 607.668 179.773 607.081 179.88C606.521 179.96 606.001 180.12 605.521 180.36C605.041 180.6 604.641 180.92 604.321 181.32C604.028 181.693 603.881 182.16 603.881 182.72C603.881 183.44 604.174 184 604.761 184.4C605.348 184.8 606.068 185.147 606.921 185.44C607.801 185.733 608.748 186.013 609.761 186.28C610.801 186.52 611.748 186.853 612.601 187.28C613.481 187.68 614.214 188.227 614.801 188.92C615.388 189.613 615.681 190.52 615.681 191.64ZM628.921 197.24C627.561 197.24 626.281 196.987 625.081 196.48C623.881 195.947 622.841 195.227 621.961 194.32C621.081 193.413 620.375 192.36 619.841 191.16C619.335 189.933 619.081 188.627 619.081 187.24C619.081 185.88 619.335 184.6 619.841 183.4C620.375 182.173 621.081 181.107 621.961 180.2C622.841 179.293 623.881 178.587 625.081 178.08C626.281 177.547 627.561 177.28 628.921 177.28C630.868 177.28 632.575 177.76 634.041 178.72C635.535 179.68 636.668 180.947 637.441 182.52L635.121 183.88C634.535 182.813 633.695 181.893 632.601 181.12C631.535 180.347 630.308 179.96 628.921 179.96C627.908 179.96 626.975 180.16 626.121 180.56C625.295 180.96 624.575 181.507 623.961 182.2C623.375 182.867 622.908 183.64 622.561 184.52C622.241 185.373 622.081 186.28 622.081 187.24C622.081 188.173 622.241 189.093 622.561 190C622.908 190.88 623.375 191.667 623.961 192.36C624.575 193.027 625.295 193.573 626.121 194C626.975 194.4 627.908 194.6 628.921 194.6C629.641 194.6 630.321 194.493 630.961 194.28C631.628 194.04 632.228 193.72 632.761 193.32C633.295 192.92 633.775 192.467 634.201 191.96C634.628 191.427 634.975 190.867 635.241 190.28L637.561 191.64C636.868 193.32 635.748 194.68 634.201 195.72C632.681 196.733 630.921 197.24 628.921 197.24ZM642.323 177.52H645.243V181.16C646.016 180.04 646.99 179.133 648.163 178.44C649.336 177.72 650.643 177.36 652.083 177.36C652.83 177.36 653.536 177.453 654.203 177.64V180.48C653.563 180.32 652.91 180.24 652.243 180.24C650.803 180.24 649.443 180.64 648.163 181.44C646.883 182.24 645.91 183.493 645.243 185.2V197H642.323V177.52ZM658.574 177.52H661.454V197H658.574V177.52ZM658.454 169.76H661.574V175.04H658.454V169.76ZM677.586 194.56C678.626 194.56 679.533 194.36 680.306 193.96C681.106 193.56 681.773 193.027 682.306 192.36C682.866 191.667 683.279 190.88 683.546 190C683.839 189.12 683.986 188.2 683.986 187.24C683.986 186.28 683.839 185.373 683.546 184.52C683.279 183.64 682.866 182.867 682.306 182.2C681.773 181.507 681.106 180.96 680.306 180.56C679.506 180.16 678.599 179.96 677.586 179.96C676.786 179.96 676.013 180.107 675.266 180.4C674.546 180.693 673.893 181.08 673.306 181.56C672.746 182.013 672.253 182.52 671.826 183.08C671.426 183.64 671.119 184.2 670.906 184.76V189.76C671.093 190.24 671.386 190.76 671.786 191.32C672.213 191.88 672.719 192.4 673.306 192.88C673.893 193.36 674.546 193.76 675.266 194.08C676.013 194.4 676.786 194.56 677.586 194.56ZM668.026 197V169.76H670.906V180.8C671.599 179.84 672.533 179.013 673.706 178.32C674.879 177.627 676.293 177.28 677.946 177.28C679.306 177.28 680.533 177.547 681.626 178.08C682.746 178.587 683.693 179.293 684.466 180.2C685.266 181.107 685.879 182.173 686.306 183.4C686.733 184.6 686.946 185.88 686.946 187.24C686.946 188.627 686.733 189.933 686.306 191.16C685.879 192.36 685.266 193.413 684.466 194.32C683.693 195.227 682.746 195.947 681.626 196.48C680.533 196.987 679.306 197.24 677.946 197.24C676.293 197.24 674.879 196.893 673.706 196.2C672.533 195.48 671.599 194.627 670.906 193.64V197H668.026ZM706.614 186.28C706.588 185.4 706.401 184.573 706.054 183.8C705.708 183 705.241 182.32 704.654 181.76C704.068 181.173 703.388 180.707 702.614 180.36C701.841 180.013 701.001 179.84 700.094 179.84C699.161 179.84 698.294 180.013 697.494 180.36C696.694 180.68 696.001 181.133 695.414 181.72C694.828 182.307 694.348 183 693.974 183.8C693.628 184.573 693.428 185.4 693.374 186.28H706.614ZM690.214 187.24C690.214 185.88 690.468 184.6 690.974 183.4C691.508 182.173 692.214 181.107 693.094 180.2C693.974 179.293 695.001 178.587 696.174 178.08C697.374 177.547 698.641 177.28 699.974 177.28C701.334 177.28 702.588 177.533 703.734 178.04C704.908 178.52 705.921 179.2 706.774 180.08C707.654 180.96 708.348 182.013 708.854 183.24C709.361 184.467 709.641 185.813 709.694 187.28V188.76H693.414C693.468 189.587 693.681 190.36 694.054 191.08C694.428 191.8 694.921 192.427 695.534 192.96C696.148 193.493 696.854 193.92 697.654 194.24C698.454 194.56 699.294 194.72 700.174 194.72C701.481 194.72 702.668 194.387 703.734 193.72C704.828 193.027 705.681 192.187 706.294 191.2L708.654 192.36C707.801 193.8 706.641 194.973 705.174 195.88C703.734 196.787 702.054 197.24 700.134 197.24C698.641 197.24 697.281 196.987 696.054 196.48C694.854 195.947 693.814 195.227 692.934 194.32C692.081 193.413 691.414 192.36 690.934 191.16C690.454 189.933 690.214 188.627 690.214 187.24ZM714.667 177.52H717.587V181.16C718.36 180.04 719.333 179.133 720.507 178.44C721.68 177.72 722.987 177.36 724.427 177.36C725.173 177.36 725.88 177.453 726.547 177.64V180.48C725.907 180.32 725.253 180.24 724.587 180.24C723.147 180.24 721.787 180.64 720.507 181.44C719.227 182.24 718.253 183.493 717.587 185.2V197H714.667V177.52ZM744.158 191.64C744.158 193.507 743.464 194.907 742.078 195.84C740.691 196.773 738.811 197.24 736.438 197.24C735.078 197.24 733.811 197.093 732.638 196.8C731.491 196.507 730.478 196.2 729.598 195.88V193.24C730.344 193.56 731.344 193.893 732.598 194.24C733.878 194.56 735.171 194.72 736.478 194.72C737.998 194.72 739.171 194.467 739.998 193.96C740.824 193.427 741.238 192.72 741.238 191.84C741.238 191.093 740.944 190.52 740.358 190.12C739.771 189.693 739.038 189.347 738.158 189.08C737.278 188.787 736.318 188.507 735.278 188.24C734.238 187.973 733.278 187.627 732.398 187.2C731.518 186.747 730.784 186.173 730.198 185.48C729.611 184.787 729.318 183.867 729.318 182.72C729.318 181.84 729.518 181.067 729.918 180.4C730.318 179.707 730.864 179.133 731.558 178.68C732.251 178.227 733.051 177.88 733.958 177.64C734.864 177.4 735.811 177.28 736.798 177.28C738.424 177.28 739.758 177.427 740.798 177.72C741.838 177.987 742.638 178.267 743.198 178.56V181.24C742.558 180.867 741.731 180.52 740.718 180.2C739.704 179.88 738.558 179.72 737.278 179.72C736.718 179.72 736.144 179.773 735.558 179.88C734.998 179.96 734.478 180.12 733.998 180.36C733.518 180.6 733.118 180.92 732.798 181.32C732.504 181.693 732.358 182.16 732.358 182.72C732.358 183.44 732.651 184 733.238 184.4C733.824 184.8 734.544 185.147 735.398 185.44C736.278 185.733 737.224 186.013 738.238 186.28C739.278 186.52 740.224 186.853 741.078 187.28C741.958 187.68 742.691 188.227 743.278 188.92C743.864 189.613 744.158 190.52 744.158 191.64Z" fill="#F5E9C6"/>
<path d="M383 318L222.596 56H9.31726H8.72317H1V318H383Z" fill="#1B092D"/>
<rect x="1" y="67" width="383" height="203" rx="20" fill="black"/>
<defs>
<linearGradient id="paint0_linear_58_7" x1="382.5" y1="0" x2="382.5" y2="385" gradientUnits="userSpaceOnUse">
<stop stop-color="#270C40"/>
<stop offset="1" stop-color="#1C0A2E"/>
</linearGradient>
</defs>
</svg>
