<svg width="469" height="243" viewBox="0 0 469 243" fill="none" xmlns="http://www.w3.org/2000/svg">
<path d="M0 0H469V243H0V0Z" fill="url(#paint0_radial_10_13)"/>
<path d="M262 211L151.984 44H0V211H262Z" fill="#1B092D"/>
<path d="M0 73C0 61.9543 8.95431 53 20 53H242C253.046 53 262 61.9543 262 73V171C262 182.046 253.046 191 242 191H20C8.95431 191 0 182.046 0 171V73Z" fill="black"/>
<path d="M8.81016 181V153.8H20.2502C25.8902 153.8 29.3702 156.36 29.3702 160.68C29.3702 163.56 27.8902 165.68 25.1702 166.84C28.7302 167.8 30.6902 170.2 30.6902 173.72C30.6902 178.36 27.2502 181 21.4502 181H8.81016ZM20.8102 169.36H14.4902V176.04H20.8102C23.8102 176.04 24.8102 174.4 24.8102 172.64C24.8102 170.96 23.8102 169.36 20.8102 169.36ZM14.4902 165.12H19.4902C22.3302 165.12 23.4902 163.56 23.4902 161.92C23.4902 160.28 22.3702 158.76 19.5302 158.76H14.4902V165.12Z" fill="url(#paint1_linear_10_13)"/>
<path d="M33.1161 171C33.1161 165.4 37.7961 160.72 43.2361 160.72C49.1161 160.72 53.0361 164.56 53.4761 171.08C53.5161 171.68 53.5161 172.68 53.5161 173.28H38.9561C39.4761 175.16 41.3561 176.8 43.7161 176.8C45.7961 176.8 47.5961 175.6 48.4361 174.2L52.6361 176.28C50.8361 179.32 47.8761 181.36 43.6761 181.36C36.9161 181.36 33.1161 176.72 33.1161 171ZM38.8761 169.36H47.7961C47.5961 167.28 45.9961 165.32 43.4761 165.32C40.8761 165.32 39.3161 167.16 38.8761 169.36Z" fill="url(#paint2_linear_10_13)"/>
<path d="M62.1723 181H56.8523V162.32C56.8523 156.6 59.6123 153.44 64.6123 153.44C66.7323 153.44 68.7323 153.76 69.5723 153.96V158.72C68.5723 158.44 67.4523 158.2 65.7323 158.2C63.6923 158.2 62.1323 159.16 62.1323 161.84V164.36H68.2123V168.92H62.1323L62.1723 181Z" fill="url(#paint3_linear_10_13)"/>
<path d="M70.4208 171C70.4208 165.4 75.0608 160.72 80.7808 160.72C86.3808 160.72 91.0608 165.4 91.0608 171C91.0608 176.76 86.3808 181.4 80.7808 181.4C75.0608 181.4 70.4208 176.76 70.4208 171ZM75.9008 171C75.9008 173.68 77.5008 176.64 80.8208 176.64C84.0608 176.64 85.5408 173.68 85.5408 171C85.5408 168.4 84.0608 165.48 80.8208 165.48C77.5008 165.48 75.9008 168.4 75.9008 171Z" fill="url(#paint4_linear_10_13)"/>
<path d="M94.3523 161.08H99.6723V163.6C101.072 161.88 102.952 160.84 105.312 160.84C106.072 160.84 106.752 160.92 107.432 161.12V166.28C106.792 166.12 106.152 166.04 105.472 166.04C103.032 166.04 100.832 167.16 99.6723 169.08V181H94.3523V161.08Z" fill="url(#paint5_linear_10_13)"/>
<path d="M109.054 171C109.054 165.4 113.734 160.72 119.174 160.72C125.054 160.72 128.974 164.56 129.414 171.08C129.454 171.68 129.454 172.68 129.454 173.28H114.894C115.414 175.16 117.294 176.8 119.654 176.8C121.734 176.8 123.534 175.6 124.374 174.2L128.574 176.28C126.774 179.32 123.814 181.36 119.614 181.36C112.854 181.36 109.054 176.72 109.054 171ZM114.814 169.36H123.734C123.534 167.28 121.934 165.32 119.414 165.32C116.814 165.32 115.254 167.16 114.814 169.36Z" fill="url(#paint6_linear_10_13)"/>
<path d="M189 217L306.574 38H469V217H189Z" fill="#1B092D"/>
<path d="M469 67C469 55.9543 460.046 47 449 47H208C196.954 47 188 55.9543 188 67V174C188 185.046 196.954 194 208 194H449C460.046 194 469 185.046 469 174V67Z" fill="black"/>
<path d="M370.054 184H364.414L373.974 156.8H381.054L390.654 184H385.014L383.134 178.72H371.894L370.054 184ZM377.534 162.44L373.534 173.92H381.534L377.534 162.44Z" fill="url(#paint7_linear_10_13)"/>
<path d="M398.336 184H393.016V165.32C393.016 159.6 395.776 156.44 400.776 156.44C402.896 156.44 404.896 156.76 405.736 156.96V161.72C404.736 161.44 403.616 161.2 401.896 161.2C399.856 161.2 398.296 162.16 398.296 164.84V167.36H404.376V171.92H398.296L398.336 184Z" fill="url(#paint8_linear_10_13)"/>
<path d="M407.665 175.36V156.8H412.985V164.08H419.065V168.64H412.985V175.4C412.985 177.92 413.505 179.44 415.705 179.44C416.345 179.44 418.625 179.32 419.065 179.2V184C418.105 184.2 415.745 184.36 415.025 184.36C409.865 184.32 407.665 181.12 407.665 175.36Z" fill="url(#paint9_linear_10_13)"/>
<path d="M421.233 174C421.233 168.4 425.913 163.72 431.353 163.72C437.233 163.72 441.153 167.56 441.593 174.08C441.633 174.68 441.633 175.68 441.633 176.28H427.073C427.593 178.16 429.473 179.8 431.833 179.8C433.913 179.8 435.713 178.6 436.553 177.2L440.753 179.28C438.953 182.32 435.993 184.36 431.793 184.36C425.033 184.36 421.233 179.72 421.233 174ZM426.993 172.36H435.913C435.713 170.28 434.113 168.32 431.593 168.32C428.993 168.32 427.433 170.16 426.993 172.36Z" fill="url(#paint10_linear_10_13)"/>
<path d="M444.97 164.08H450.29V166.6C451.69 164.88 453.57 163.84 455.93 163.84C456.69 163.84 457.37 163.92 458.05 164.12V169.28C457.41 169.12 456.77 169.04 456.09 169.04C453.65 169.04 451.45 170.16 450.29 172.08V184H444.97V164.08Z" fill="url(#paint11_linear_10_13)"/>
<defs>
<radialGradient id="paint0_radial_10_13" cx="0" cy="0" r="1" gradientUnits="userSpaceOnUse" gradientTransform="translate(234.5 121.5) rotate(90) scale(121.5 234.5)">
<stop offset="0.759615" stop-color="#4A167F"/>
<stop offset="1" stop-color="#3B1265"/>
</radialGradient>
<linearGradient id="paint1_linear_10_13" x1="303" y1="175.5" x2="520" y2="175.5" gradientUnits="userSpaceOnUse">
<stop stop-color="#F5E9C6"/>
<stop offset="1" stop-color="white"/>
</linearGradient>
<linearGradient id="paint2_linear_10_13" x1="303" y1="175.5" x2="520" y2="175.5" gradientUnits="userSpaceOnUse">
<stop stop-color="#F5E9C6"/>
<stop offset="1" stop-color="white"/>
</linearGradient>
<linearGradient id="paint3_linear_10_13" x1="303" y1="175.5" x2="520" y2="175.5" gradientUnits="userSpaceOnUse">
<stop stop-color="#F5E9C6"/>
<stop offset="1" stop-color="white"/>
</linearGradient>
<linearGradient id="paint4_linear_10_13" x1="303" y1="175.5" x2="520" y2="175.5" gradientUnits="userSpaceOnUse">
<stop stop-color="#F5E9C6"/>
<stop offset="1" stop-color="white"/>
</linearGradient>
<linearGradient id="paint5_linear_10_13" x1="303" y1="175.5" x2="520" y2="175.5" gradientUnits="userSpaceOnUse">
<stop stop-color="#F5E9C6"/>
<stop offset="1" stop-color="white"/>
</linearGradient>
<linearGradient id="paint6_linear_10_13" x1="303" y1="175.5" x2="520" y2="175.5" gradientUnits="userSpaceOnUse">
<stop stop-color="#F5E9C6"/>
<stop offset="1" stop-color="white"/>
</linearGradient>
<linearGradient id="paint7_linear_10_13" x1="303" y1="175.5" x2="520" y2="175.5" gradientUnits="userSpaceOnUse">
<stop stop-color="#F5E9C6"/>
<stop offset="1" stop-color="white"/>
</linearGradient>
<linearGradient id="paint8_linear_10_13" x1="303" y1="175.5" x2="520" y2="175.5" gradientUnits="userSpaceOnUse">
<stop stop-color="#F5E9C6"/>
<stop offset="1" stop-color="white"/>
</linearGradient>
<linearGradient id="paint9_linear_10_13" x1="303" y1="175.5" x2="520" y2="175.5" gradientUnits="userSpaceOnUse">
<stop stop-color="#F5E9C6"/>
<stop offset="1" stop-color="white"/>
</linearGradient>
<linearGradient id="paint10_linear_10_13" x1="303" y1="175.5" x2="520" y2="175.5" gradientUnits="userSpaceOnUse">
<stop stop-color="#F5E9C6"/>
<stop offset="1" stop-color="white"/>
</linearGradient>
<linearGradient id="paint11_linear_10_13" x1="303" y1="175.5" x2="520" y2="175.5" gradientUnits="userSpaceOnUse">
<stop stop-color="#F5E9C6"/>
<stop offset="1" stop-color="white"/>
</linearGradient>
</defs>
</svg>
