<svg width="499" height="380" viewBox="0 350 499 380" fill="none" xmlns="http://www.w3.org/2000/svg">
<path d="M23.4776 433.483L21.7006 432.565L23.4776 433.483ZM192.779 696.825L192.073 694.954L192.779 696.825ZM422.719 731.864C423.405 732.73 424.663 732.877 425.529 732.191C426.395 731.506 426.542 730.248 425.857 729.382L424.288 730.623L422.719 731.864ZM409.302 711.707C408.481 710.967 407.217 711.032 406.477 711.853C405.737 712.673 405.803 713.938 406.623 714.677L407.962 713.192L409.302 711.707ZM387.863 700.462C388.797 701.052 390.032 700.773 390.622 699.839C391.212 698.905 390.932 697.67 389.999 697.08L388.931 698.771L387.863 700.462ZM368.52 685.905C367.501 685.477 366.329 685.955 365.901 686.974C365.473 687.992 365.952 689.164 366.97 689.592L367.745 687.748L368.52 685.905ZM344.559 682.17C345.631 682.437 346.716 681.785 346.984 680.713C347.251 679.642 346.599 678.556 345.527 678.289L345.043 680.229L344.559 682.17ZM321.754 674.087C320.656 673.967 319.669 674.76 319.55 675.859C319.43 676.957 320.223 677.944 321.321 678.063L321.538 676.075L321.754 674.087ZM297.711 676.93C298.815 676.92 299.702 676.016 299.692 674.911C299.681 673.807 298.777 672.92 297.673 672.93L297.692 674.93L297.711 676.93ZM273.606 674.407C272.508 674.529 271.717 675.518 271.838 676.615C271.96 677.713 272.949 678.505 274.047 678.383L273.826 676.395L273.606 674.407ZM250.541 682.047C251.624 681.831 252.328 680.778 252.112 679.695C251.896 678.611 250.843 677.908 249.76 678.123L250.15 680.085L250.541 682.047ZM226.443 683.681C225.379 683.975 224.754 685.076 225.048 686.141C225.342 687.206 226.444 687.83 227.508 687.536L226.976 685.608L226.443 683.681ZM204.828 694.596C205.872 694.236 206.426 693.097 206.066 692.053C205.705 691.009 204.567 690.455 203.522 690.815L204.175 692.706L204.828 694.596ZM180.555 698.64C179.487 698.922 178.85 700.016 179.131 701.084C179.412 702.152 180.506 702.79 181.574 702.508L181.065 700.574L180.555 698.64ZM156.86 706.218C157.964 706.175 158.824 705.246 158.781 704.142C158.738 703.038 157.809 702.178 156.705 702.221L156.783 704.22L156.86 706.218ZM132.665 700.507C131.578 700.309 130.537 701.031 130.34 702.117C130.142 703.204 130.863 704.245 131.95 704.442L132.308 702.475L132.665 700.507ZM107.991 697.488C109.016 697.9 110.18 697.403 110.592 696.378C111.004 695.353 110.506 694.188 109.481 693.776L108.736 695.632L107.991 697.488ZM87.9391 682.737C87.004 682.149 85.7694 682.43 85.1814 683.365C84.5934 684.301 84.8748 685.535 85.8098 686.123L86.8745 684.43L87.9391 682.737ZM65.8766 671.223C66.7076 671.951 67.9711 671.867 68.6989 671.036C69.4266 670.205 69.343 668.942 68.512 668.214L67.1943 669.718L65.8766 671.223ZM51.4379 650.945C50.7176 650.107 49.4549 650.012 48.6174 650.733C47.78 651.453 47.685 652.716 48.4052 653.553L49.9215 652.249L51.4379 650.945ZM33.4825 633.703C34.0882 634.627 35.328 634.884 36.2517 634.279C37.1753 633.673 37.4331 632.433 36.8273 631.51L35.1549 632.606L33.4825 633.703ZM24.7687 610.376C24.281 609.385 23.0822 608.977 22.0911 609.465C21.1001 609.952 20.6921 611.151 21.1799 612.142L22.9743 611.259L24.7687 610.376ZM11.5788 589.255C11.9443 590.297 13.0856 590.846 14.1279 590.48C15.1702 590.115 15.7189 588.974 15.3534 587.931L13.4661 588.593L11.5788 589.255ZM8.68846 564.521C8.45033 563.442 7.38292 562.761 6.30432 562.999C5.22573 563.237 4.54439 564.305 4.78251 565.383L6.73548 564.952L8.68846 564.521ZM0.912288 540.869C1.01757 541.969 1.99428 542.775 3.09382 542.67C4.19336 542.564 4.99936 541.588 4.89407 540.488L2.90318 540.679L0.912288 540.869ZM4.08249 516.181C4.11476 515.077 3.24588 514.156 2.14178 514.123C1.03768 514.091 0.11647 514.96 0.0841938 516.064L2.08334 516.123L4.08249 516.181ZM2.38326 491.349C2.21091 492.44 2.95566 493.464 4.0467 493.637C5.13774 493.809 6.16192 493.064 6.33427 491.973L4.35877 491.661L2.38326 491.349ZM11.6654 468.255C11.9766 467.195 11.3697 466.084 10.3099 465.773C9.25009 465.462 8.13866 466.069 7.82747 467.128L9.74645 467.692L11.6654 468.255ZM16.3418 443.793C15.8977 444.805 16.3575 445.984 17.3689 446.428C18.3803 446.873 19.5602 446.413 20.0042 445.401L18.173 444.597L16.3418 443.793ZM31.0812 424.177C31.6679 423.241 31.3848 422.007 30.4489 421.42C29.5131 420.834 28.2788 421.117 27.6921 422.053L29.3866 423.115L31.0812 424.177ZM42.0772 402.945C41.3395 403.767 41.4081 405.032 42.2302 405.77C43.0524 406.507 44.3169 406.439 45.0545 405.616L43.5658 404.281L42.0772 402.945ZM62.0277 389.644C62.8916 388.956 63.0339 387.698 62.3456 386.834C61.6573 385.97 60.399 385.827 59.5351 386.516L60.7814 388.08L62.0277 389.644ZM79.3272 373.064C78.3715 373.618 78.0455 374.841 78.5991 375.797C79.1528 376.753 80.3764 377.079 81.3322 376.525L80.3297 374.795L79.3272 373.064ZM102.319 366.087C103.335 365.654 103.808 364.48 103.376 363.463C102.943 362.447 101.768 361.974 100.752 362.406L101.535 364.247L102.319 366.087ZM123.122 354.193C122.068 354.525 121.483 355.648 121.815 356.701C122.147 357.755 123.27 358.34 124.324 358.008L123.723 356.1L123.122 354.193ZM147.001 351.838C148.077 351.586 148.745 350.511 148.494 349.435C148.243 348.36 147.167 347.691 146.092 347.942L146.547 349.89L147.001 351.838ZM169.42 343.239C168.331 343.427 167.602 344.462 167.79 345.55C167.978 346.639 169.013 347.369 170.101 347.18L169.761 345.21L169.42 343.239ZM424.288 730.623L425.857 729.382C420.882 723.094 415.366 717.175 409.302 711.707L407.962 713.192L406.623 714.677C412.517 719.991 417.88 725.747 422.719 731.864L424.288 730.623ZM388.931 698.771L389.999 697.08C383.321 692.864 376.163 689.116 368.52 685.905L367.745 687.748L366.97 689.592C374.41 692.718 381.372 696.364 387.863 700.462L388.931 698.771ZM345.043 680.229L345.527 678.289C337.98 676.406 330.056 674.99 321.754 674.087L321.538 676.075L321.321 678.063C329.448 678.948 337.193 680.332 344.559 682.17L345.043 680.229ZM297.692 674.93L297.673 672.93C289.931 673.004 281.909 673.487 273.606 674.407L273.826 676.395L274.047 678.383C282.222 677.477 290.109 677.002 297.711 676.93L297.692 674.93ZM250.15 680.085L249.76 678.123C242.196 679.629 234.424 681.476 226.443 683.681L226.976 685.608L227.508 687.536C235.4 685.356 243.077 683.532 250.541 682.047L250.15 680.085ZM204.175 692.706L203.522 690.815C199.749 692.118 195.932 693.497 192.073 694.954L192.779 696.825L193.486 698.696C197.31 697.253 201.091 695.886 204.828 694.596L204.175 692.706ZM192.779 696.825L192.073 694.954C188.231 696.405 184.389 697.631 180.555 698.64L181.065 700.574L181.574 702.508C185.543 701.463 189.516 700.195 193.486 698.696L192.779 696.825ZM156.783 704.22L156.705 702.221C148.584 702.537 140.549 701.938 132.665 700.507L132.308 702.475L131.95 704.442C140.113 705.924 148.439 706.545 156.86 706.218L156.783 704.22ZM108.736 695.632L109.481 693.776C102.074 690.802 94.872 687.096 87.9391 682.737L86.8745 684.43L85.8098 686.123C92.9346 690.603 100.349 694.42 107.991 697.488L108.736 695.632ZM67.1943 669.718L68.512 668.214C62.5046 662.952 56.7952 657.174 51.4379 650.945L49.9215 652.249L48.4052 653.553C53.8809 659.92 59.7225 665.833 65.8766 671.223L67.1943 669.718ZM35.1549 632.606L36.8273 631.51C32.4232 624.794 28.3882 617.73 24.7687 610.376L22.9743 611.259L21.1799 612.142C24.8712 619.642 28.9875 626.849 33.4825 633.703L35.1549 632.606ZM13.4661 588.593L15.3534 587.931C12.6866 580.326 10.4511 572.505 8.68846 564.521L6.73548 564.952L4.78251 565.383C6.5801 573.526 8.85965 581.501 11.5788 589.255L13.4661 588.593ZM2.90318 540.679L4.89407 540.488C4.12665 532.474 3.84353 524.355 4.08249 516.181L2.08334 516.123L0.0841938 516.064C-0.159717 524.408 0.129333 532.693 0.912288 540.869L2.90318 540.679ZM4.35877 491.661L6.33427 491.973C7.58412 484.061 9.34995 476.141 11.6654 468.255L9.74645 467.692L7.82747 467.128C5.46282 475.182 3.65955 483.27 2.38326 491.349L4.35877 491.661ZM18.173 444.597L20.0042 445.401C21.6223 441.716 23.3713 438.048 25.2547 434.401L23.4776 433.483L21.7006 432.565C19.7787 436.287 17.9936 440.031 16.3418 443.793L18.173 444.597ZM23.4776 433.483L25.2547 434.401C27.0842 430.858 29.0282 427.452 31.0812 424.177L29.3866 423.115L27.6921 422.053C25.5796 425.422 23.5807 428.925 21.7006 432.565L23.4776 433.483ZM43.5658 404.281L45.0545 405.616C50.2869 399.785 55.9607 394.478 62.0277 389.644L60.7814 388.08L59.5351 386.516C53.3021 391.482 47.4648 396.94 42.0772 402.945L43.5658 404.281ZM80.3297 374.795L81.3322 376.525C88.0093 372.657 95.02 369.194 102.319 366.087L101.535 364.247L100.752 362.406C93.3173 365.572 86.1588 369.107 79.3272 373.064L80.3297 374.795ZM123.723 356.1L124.324 358.008C131.683 355.69 139.255 353.646 147.001 351.838L146.547 349.89L146.092 347.942C138.259 349.771 130.588 351.841 123.122 354.193L123.723 356.1ZM169.761 345.21L170.101 347.18C177.774 345.854 185.567 344.705 193.447 343.698L193.193 341.714L192.94 339.73C185.01 340.744 177.158 341.901 169.42 343.239L169.761 345.21Z" fill="url(#paint0_linear_11_56)"/>
<defs>
<linearGradient id="paint0_linear_11_56" x1="215.784" y1="2.82532" x2="215.784" y2="1387.42" gradientUnits="userSpaceOnUse">
<stop stop-color="#F5E9C6"/>
<stop offset="1" stop-color="white"/>
</linearGradient>
</defs>
</svg>