<svg width="499" height="360" viewBox="0 0 499 360" fill="none" xmlns="http://www.w3.org/2000/svg">
<path d="M384.998 1.47895L383.651 -9.53674e-07L380.693 2.69274L382.04 4.17169L383.519 2.82532L384.998 1.47895ZM496.214 216.904L498.212 216.824L496.214 216.904ZM102.319 366.087C103.335 365.654 103.808 364.48 103.376 363.463C102.943 362.447 101.768 361.974 100.752 362.406L101.535 364.247L102.319 366.087ZM123.122 354.193C122.068 354.525 121.483 355.648 121.815 356.701C122.147 357.755 123.27 358.34 124.324 358.008L123.723 356.1L123.122 354.193ZM147.001 351.838C148.077 351.586 148.745 350.511 148.494 349.435C148.243 348.36 147.167 347.691 146.092 347.942L146.547 349.89L147.001 351.838ZM169.42 343.239C168.331 343.427 167.602 344.462 167.79 345.55C167.978 346.639 169.013 347.369 170.101 347.18L169.761 345.21L169.42 343.239ZM193.447 343.698C194.543 343.558 195.317 342.556 195.177 341.46C195.037 340.365 194.035 339.59 192.94 339.73L193.193 341.714L193.447 343.698ZM216.544 337.117C215.445 337.222 214.638 338.199 214.743 339.298C214.848 340.398 215.825 341.204 216.924 341.099L216.734 339.108L216.544 337.117ZM240.468 339.133C241.57 339.052 242.398 338.093 242.317 336.992C242.236 335.89 241.278 335.062 240.176 335.143L240.322 337.138L240.468 339.133ZM263.832 333.578C262.73 333.645 261.89 334.593 261.957 335.695C262.023 336.798 262.971 337.637 264.074 337.571L263.953 335.574L263.832 333.578ZM287.713 336.203C288.816 336.14 289.659 335.196 289.597 334.093C289.534 332.99 288.589 332.147 287.487 332.209L287.6 334.206L287.713 336.203ZM311.115 330.823C310.012 330.892 309.174 331.841 309.243 332.943C309.312 334.046 310.261 334.884 311.363 334.815L311.239 332.819L311.115 330.823ZM334.996 333.176C336.097 333.09 336.92 332.127 336.833 331.026C336.747 329.925 335.784 329.102 334.683 329.188L334.84 331.182L334.996 333.176ZM358.2 327.03C357.102 327.148 356.307 328.134 356.426 329.233C356.544 330.331 357.53 331.125 358.628 331.007L358.414 329.019L358.2 327.03ZM382.251 327.948C383.342 327.779 384.09 326.757 383.921 325.666C383.752 324.574 382.73 323.826 381.639 323.995L381.945 325.972L382.251 327.948ZM404.738 319.635C403.661 319.88 402.987 320.953 403.233 322.03C403.479 323.106 404.551 323.78 405.628 323.534L405.183 321.584L404.738 319.635ZM428.612 317.056C429.657 316.696 430.211 315.557 429.85 314.513C429.49 313.469 428.351 312.915 427.307 313.275L427.96 315.166L428.612 317.056ZM448.69 304.01C447.719 304.536 447.359 305.75 447.885 306.721C448.412 307.692 449.626 308.053 450.597 307.526L449.643 305.768L448.69 304.01ZM470.336 293.72C471.155 292.977 471.216 291.713 470.474 290.894C469.732 290.076 468.467 290.015 467.649 290.757L468.993 292.238L470.336 293.72ZM482.2 273.033C481.636 273.983 481.948 275.21 482.898 275.774C483.848 276.339 485.075 276.026 485.639 275.077L483.92 274.055L482.2 273.033ZM494.838 252.707C495.115 251.638 494.472 250.546 493.403 250.27C492.334 249.993 491.242 250.635 490.965 251.704L492.902 252.206L494.838 252.707ZM494.216 228.887C494.169 229.99 495.026 230.923 496.13 230.969C497.233 231.016 498.166 230.159 498.212 229.055L496.214 228.971L494.216 228.887ZM497.158 204.426C497.018 203.331 496.016 202.556 494.92 202.697C493.824 202.837 493.05 203.839 493.19 204.935L495.174 204.681L497.158 204.426ZM488.361 181.109C488.65 182.175 489.748 182.805 490.814 182.516C491.88 182.226 492.51 181.128 492.221 180.062L490.291 180.585L488.361 181.109ZM484.491 156.54C484.096 155.508 482.94 154.992 481.909 155.386C480.877 155.781 480.36 156.937 480.755 157.969L482.623 157.254L484.491 156.54ZM471.126 135.51C471.598 136.509 472.791 136.935 473.789 136.463C474.788 135.991 475.215 134.799 474.743 133.801L472.935 134.655L471.126 135.51ZM463.494 111.805C462.963 110.837 461.747 110.482 460.779 111.013C459.81 111.545 459.456 112.761 459.987 113.729L461.741 112.767L463.494 111.805ZM447.671 92.5736C448.249 93.5146 449.481 93.8085 450.422 93.23C451.363 92.6516 451.657 91.4198 451.078 90.4788L449.375 91.5262L447.671 92.5736ZM437.7 69.7298C437.082 68.814 435.839 68.5721 434.923 69.1896C434.007 69.8072 433.766 71.0502 434.383 71.966L436.041 70.8479L437.7 69.7298ZM420.3 51.9087C420.952 52.8009 422.203 52.9963 423.095 52.3452C423.987 51.694 424.183 50.4428 423.532 49.5506L421.916 50.7296L420.3 51.9087ZM408.637 29.8754C407.955 29.0065 406.697 28.8549 405.828 29.5368C404.959 30.2187 404.808 31.476 405.49 32.3449L407.063 31.1101L408.637 29.8754ZM390.008 13.3352C390.722 14.1781 391.984 14.2826 392.827 13.5687C393.67 12.8547 393.775 11.5927 393.061 10.7499L391.535 12.0426L390.008 13.3352ZM80.3297 374.795L81.3322 376.525C88.0093 372.657 95.02 369.194 102.319 366.087L101.535 364.247L100.752 362.406C93.3173 365.572 86.1588 369.107 79.3272 373.064L80.3297 374.795ZM123.723 356.1L124.324 358.008C131.683 355.69 139.255 353.646 147.001 351.838L146.547 349.89L146.092 347.942C138.259 349.771 130.588 351.841 123.122 354.193L123.723 356.1ZM169.761 345.21L170.101 347.18C177.774 345.854 185.567 344.705 193.447 343.698L193.193 341.714L192.94 339.73C185.01 340.744 177.158 341.901 169.42 343.239L169.761 345.21ZM216.734 339.108L216.924 341.099C224.735 340.354 232.593 339.71 240.468 339.133L240.322 337.138L240.176 335.143C232.278 335.722 224.39 336.369 216.544 337.117L216.734 339.108ZM263.953 335.574L264.074 337.571C271.982 337.092 279.871 336.648 287.713 336.203L287.6 334.206L287.487 332.209C279.647 332.654 271.749 333.099 263.832 333.578L263.953 335.574ZM311.239 332.819L311.363 334.815C319.34 334.319 327.231 333.785 334.996 333.176L334.84 331.182L334.683 329.188C326.946 329.795 319.079 330.327 311.115 330.823L311.239 332.819ZM358.414 329.019L358.628 331.007C366.705 330.137 374.595 329.134 382.251 327.948L381.945 325.972L381.639 323.995C374.055 325.17 366.227 326.166 358.2 327.03L358.414 329.019ZM405.183 321.584L405.628 323.534C413.667 321.699 421.352 319.563 428.612 317.056L427.96 315.166L427.307 313.275C420.205 315.728 412.661 317.825 404.738 319.635L405.183 321.584ZM449.643 305.768L450.597 307.526C457.882 303.576 464.502 299.013 470.336 293.72L468.993 292.238L467.649 290.757C462.083 295.807 455.734 300.191 448.69 304.01L449.643 305.768ZM483.92 274.055L485.639 275.077C489.599 268.412 492.695 260.985 494.838 252.707L492.902 252.206L490.965 251.704C488.912 259.635 485.958 266.709 482.2 273.033L483.92 274.055ZM496.214 228.971L498.212 229.055C498.378 225.128 498.38 221.053 498.212 216.824L496.214 216.904L494.215 216.983C494.379 221.109 494.377 225.074 494.216 228.887L496.214 228.971ZM496.214 216.904L498.212 216.824C498.049 212.73 497.692 208.593 497.158 204.426L495.174 204.681L493.19 204.935C493.711 208.994 494.058 213.014 494.215 216.983L496.214 216.904ZM490.291 180.585L492.221 180.062C490.097 172.233 487.485 164.368 484.491 156.54L482.623 157.254L480.755 157.969C483.707 165.689 486.276 173.425 488.361 181.109L490.291 180.585ZM472.935 134.655L474.743 133.801C471.223 126.353 467.441 119 463.494 111.805L461.741 112.767L459.987 113.729C463.9 120.861 467.645 128.143 471.126 135.51L472.935 134.655ZM449.375 91.5262L451.078 90.4788C446.66 83.2911 442.163 76.3495 437.7 69.7298L436.041 70.8479L434.383 71.966C438.818 78.5439 443.284 85.4382 447.671 92.5736L449.375 91.5262ZM421.916 50.7296L423.532 49.5506C418.262 42.3308 413.227 35.7248 408.637 29.8754L407.063 31.1101L405.49 32.3449C410.055 38.1616 415.062 44.7303 420.3 51.9087L421.916 50.7296ZM391.535 12.0426L393.061 10.7499C390.543 7.77735 388.531 5.46339 387.146 3.89075C386.454 3.10442 385.918 2.50338 385.555 2.09798C385.374 1.89527 385.235 1.74148 385.142 1.63787C385.095 1.58607 385.059 1.54682 385.035 1.52028C385.023 1.50701 385.014 1.49691 385.008 1.49002C385.005 1.48657 385.002 1.48392 385.001 1.48208C385 1.48115 384.999 1.48043 384.999 1.47991C384.998 1.47965 384.998 1.47944 384.998 1.47928C384.998 1.4792 384.998 1.47911 384.998 1.47907C384.998 1.479 384.998 1.47895 383.519 2.82532C382.04 4.17169 382.04 4.17166 382.04 4.17164C382.04 4.17165 382.04 4.17164 382.04 4.17166C382.04 4.1717 382.04 4.17179 382.04 4.17193C382.04 4.17221 382.041 4.17269 382.041 4.17338C382.043 4.17474 382.045 4.17691 382.047 4.17987C382.053 4.1858 382.061 4.19492 382.072 4.20721C382.094 4.2318 382.128 4.26908 382.173 4.31889C382.263 4.41851 382.398 4.56826 382.576 4.76683C382.932 5.16399 383.459 5.75645 384.144 6.53389C385.513 8.0888 387.508 10.3835 390.008 13.3352L391.535 12.0426Z" fill="url(#paint0_linear_11_56)"/>
<defs>
<linearGradient id="paint0_linear_11_56" x1="215.784" y1="2.82532" x2="215.784" y2="1387.42" gradientUnits="userSpaceOnUse">
<stop stop-color="#F5E9C6"/>
<stop offset="1" stop-color="white"/>
</linearGradient>
</defs>
</svg>