<svg width="499" height="360" viewBox="0 718 499 360" fill="none" xmlns="http://www.w3.org/2000/svg">
<path d="M445.477 900.654L447.122 901.791C447.199 901.679 447.265 901.559 447.318 901.434L445.477 900.654ZM323.134 1074.19C322.506 1075.1 322.733 1076.34 323.642 1076.97C324.551 1077.6 325.797 1077.37 326.424 1076.46L324.779 1075.33L323.134 1074.19ZM333.968 1065.55C334.596 1064.64 334.368 1063.39 333.46 1062.76C332.551 1062.14 331.305 1062.36 330.677 1063.27L332.323 1064.41L333.968 1065.55ZM345.764 1041.44C345.137 1042.35 345.364 1043.59 346.273 1044.22C347.182 1044.85 348.427 1044.62 349.055 1043.71L347.41 1042.57L345.764 1041.44ZM364.142 1021.88C364.77 1020.97 364.543 1019.72 363.634 1019.1C362.725 1018.47 361.48 1018.69 360.852 1019.6L362.497 1020.74L364.142 1021.88ZM375.939 997.77C375.311 998.678 375.539 999.924 376.447 1000.55C377.356 1001.18 378.602 1000.95 379.23 1000.04L377.584 998.907L375.939 997.77ZM394.317 978.21C394.945 977.301 394.717 976.055 393.808 975.427C392.9 974.799 391.654 975.027 391.026 975.936L392.671 977.073L394.317 978.21ZM406.113 954.102C405.485 955.011 405.713 956.256 406.622 956.884C407.53 957.512 408.776 957.284 409.404 956.376L407.759 955.239L406.113 954.102ZM424.491 934.542C425.119 933.633 424.892 932.387 423.983 931.759C423.074 931.132 421.828 931.359 421.2 932.268L422.846 933.405L424.491 934.542ZM436.288 910.434C435.66 911.343 435.887 912.588 436.796 913.216C437.705 913.844 438.95 913.617 439.578 912.708L437.933 911.571L436.288 910.434ZM451.613 890.117C451.967 889.07 451.404 887.935 450.358 887.582C449.311 887.229 448.176 887.791 447.823 888.838L449.718 889.477L451.613 890.117ZM453.743 865.98C453.542 867.066 454.259 868.11 455.346 868.311C456.432 868.512 457.475 867.794 457.676 866.708L455.71 866.344L453.743 865.98ZM460.454 842.698C460.507 841.595 459.656 840.658 458.553 840.605C457.449 840.551 456.512 841.403 456.459 842.506L458.457 842.602L460.454 842.698ZM456.027 818.873C456.12 819.974 457.088 820.79 458.189 820.697C459.289 820.604 460.106 819.636 460.013 818.535L458.02 818.704L456.027 818.873ZM456.362 794.642C456.122 793.564 455.053 792.885 453.975 793.125C452.897 793.365 452.218 794.434 452.458 795.512L454.41 795.077L456.362 794.642ZM445.727 772.874C446.116 773.908 447.27 774.43 448.303 774.041C449.337 773.652 449.86 772.499 449.471 771.465L447.599 772.169L445.727 772.874ZM439.297 749.515C438.759 748.55 437.54 748.206 436.576 748.744C435.612 749.283 435.267 750.502 435.806 751.466L437.552 750.49L439.297 749.515ZM422.719 731.864C423.405 732.73 424.663 732.877 425.529 732.191C426.395 731.506 426.542 730.248 425.857 729.382L424.288 730.623L422.719 731.864ZM409.302 711.707C408.481 710.967 407.217 711.032 406.477 711.853C405.737 712.673 405.803 713.938 406.623 714.677L407.962 713.192L409.302 711.707ZM324.779 1075.33L326.424 1076.46L333.968 1065.55L332.323 1064.41L330.677 1063.27L323.134 1074.19L324.779 1075.33ZM347.41 1042.57L349.055 1043.71L364.142 1021.88L362.497 1020.74L360.852 1019.6L345.764 1041.44L347.41 1042.57ZM377.584 998.907L379.23 1000.04L394.317 978.21L392.671 977.073L391.026 975.936L375.939 997.77L377.584 998.907ZM407.759 955.239L409.404 956.376L424.491 934.542L422.846 933.405L421.2 932.268L406.113 954.102L407.759 955.239ZM437.933 911.571L439.578 912.708L447.122 901.791L445.477 900.654L443.831 899.517L436.288 910.434L437.933 911.571ZM445.477 900.654L447.318 901.434C448.887 897.729 450.319 893.953 451.613 890.117L449.718 889.477L447.823 888.838C446.561 892.581 445.164 896.263 443.635 899.874L445.477 900.654ZM455.71 866.344L457.676 866.708C459.138 858.817 460.065 850.784 460.454 842.698L458.457 842.602L456.459 842.506C456.079 850.414 455.171 858.268 453.743 865.98L455.71 866.344ZM458.02 818.704L460.013 818.535C459.332 810.509 458.117 802.516 456.362 794.642L454.41 795.077L452.458 795.512C454.173 803.208 455.361 811.023 456.027 818.873L458.02 818.704ZM447.599 772.169L449.471 771.465C446.629 763.915 443.24 756.569 439.297 749.515L437.552 750.49L435.806 751.466C439.648 758.34 442.953 765.504 445.727 772.874L447.599 772.169ZM424.288 730.623L425.857 729.382C420.882 723.094 415.366 717.175 409.302 711.707L407.962 713.192L406.623 714.677C412.517 719.991 417.88 725.747 422.719 731.864L424.288 730.623Z" fill="url(#paint0_linear_11_56)"/>
<defs>
<linearGradient id="paint0_linear_11_56" x1="215.784" y1="2.82532" x2="215.784" y2="1387.42" gradientUnits="userSpaceOnUse">
<stop stop-color="#F5E9C6"/>
<stop offset="1" stop-color="white"/>
</linearGradient>
</defs>
</svg>