<svg width="119" height="37" viewBox="0 0 119 37" fill="none" xmlns="http://www.w3.org/2000/svg">
<path d="M2.16512 15.0212C1.68913 15.1102 1.13757 14.6745 0.954339 14.2355C0.787927 13.8116 0.762806 13.3323 0.738522 12.8689C0.685066 11.2375 0.678707 9.58754 0.866596 7.9755C0.927227 7.60381 1.13417 7.27253 1.53362 7.25159C1.75732 7.23987 1.97006 7.32485 2.09195 7.51073C2.19619 7.66548 2.23904 7.87153 2.23311 8.0641C2.20939 8.8344 2.2336 9.60218 2.25782 10.37C2.28204 11.1378 2.28944 11.8904 2.31365 12.6582C2.3161 13.0105 2.31938 13.3789 2.35378 13.7295C2.37478 13.8246 2.47316 13.8675 2.54042 13.9281C2.9112 14.2771 2.67307 14.9305 2.16512 15.0212ZM5.09883 8.7791C5.00122 9.05659 4.75394 9.22977 4.48232 9.244C4.37047 9.24986 4.24097 9.22461 4.12577 9.16656C3.91052 9.03364 3.80126 8.78301 3.69366 8.56435C3.37256 7.9403 3.14496 6.65444 3.59834 6.134C3.71863 5.9835 3.89104 5.91038 4.08277 5.90033C4.2106 5.89363 4.3401 5.91889 4.45613 5.99292C4.78658 6.18388 4.88657 6.56317 4.72839 6.90792C4.77542 7.19385 4.82161 7.4638 4.88378 7.73292C4.96612 8.08109 5.20907 8.43686 5.09883 8.7791ZM10.7419 11.896C10.5878 12.9295 10.2545 14.2127 8.99225 14.2789C8.84845 14.2864 8.70381 14.278 8.55833 14.2535C7.05646 14.0278 6.03266 11.9185 5.96316 10.5923C5.94139 10.1769 6.26353 9.90368 6.59907 9.8861C7.03048 9.86349 7.40963 10.3723 7.4314 10.7878C7.43224 10.8038 7.41877 10.8525 7.41961 10.8685C7.644 11.4816 8.09621 12.4673 8.72013 12.755C8.76973 12.7845 8.91856 12.8728 8.97996 12.8215C9.13472 12.7173 9.23407 12.1673 9.28794 11.9722C9.41338 11.3088 9.44213 10.6343 9.43891 9.96158C9.44826 9.52849 9.56862 9.07357 10.0959 9.04594C10.2557 9.03756 10.4348 9.09227 10.5844 9.19658C10.6845 9.27144 10.7232 9.39759 10.7921 9.49011C11.0233 9.92661 10.7967 11.4125 10.7419 11.896ZM17.6464 13.1684C17.3023 13.9395 15.7355 14.31 15.0165 14.3477C14.0099 14.4004 12.8915 14.1546 12.2551 13.3228C11.8423 12.7837 11.6911 12.0386 11.6879 11.3658C11.518 11.1824 11.4702 10.8805 11.5711 10.667C11.6132 10.5526 11.6881 10.4525 11.7638 10.3685C12.0534 8.86324 12.9972 7.61213 14.627 7.52672C14.9785 7.5083 15.3174 7.55462 15.6285 7.68252C17.0025 8.21934 16.9222 10.0501 15.8018 10.99C15.1256 11.5381 14.177 11.7801 13.2822 11.827C13.3225 11.9851 13.3645 12.1752 13.4519 12.3148C13.7327 12.7807 14.4761 12.902 15.1472 12.8668C15.6265 12.8417 16.1176 12.7358 16.555 12.5207C16.5861 12.503 16.7081 12.3845 16.7392 12.3668C16.8014 12.3315 16.8956 12.2945 16.9915 12.2895C17.1513 12.2811 17.3463 12.335 17.464 12.441C17.665 12.6067 17.7457 12.9229 17.6464 13.1684ZM14.0127 9.25724C13.6569 9.50019 13.4558 9.94332 13.3498 10.3655C13.9536 10.2697 15.2386 10.0261 15.1967 9.22723C15.1951 9.19527 15.206 9.09857 15.1732 9.08426C15.1228 9.03884 14.8983 9.03459 14.8335 9.02196C14.5451 9.02105 14.244 9.0849 14.0127 9.25724ZM24.687 13.3282C24.4759 13.5796 24.2631 13.799 23.9275 13.8166C23.6239 13.8325 23.3431 13.671 23.1682 13.3917C23.0455 13.1899 23.0313 12.9183 23.0498 12.6609C23.0972 11.4248 23.3347 9.84216 23.6234 8.62539C23.7127 8.18812 23.9129 7.72901 24.4402 7.70137C24.6479 7.69049 24.8447 7.77631 24.9674 7.97816C25.038 8.10264 25.0935 8.24393 25.0691 8.3894C24.9411 9.00494 24.9107 9.64742 24.8323 10.2924C25.1579 9.77866 25.4658 9.2338 25.9259 8.84118C26.1412 8.66968 26.4229 8.54276 26.6946 8.52852C27.5574 8.4833 27.9861 9.32602 28.2306 10.0182C28.6555 9.2589 29.0929 8.43487 29.8011 7.88505C30.0938 7.66143 30.4849 7.48071 30.8541 7.49341C31.6589 7.56339 32.0051 8.36236 32.153 9.04356C32.2588 9.53469 32.3336 10.0435 32.4394 10.5346C32.5293 11.0266 32.6343 11.5017 32.6922 11.9954C32.6956 12.0593 32.73 12.1056 32.7334 12.1695C32.8216 12.6295 32.4885 12.9994 32.105 13.0195C31.9932 13.0254 31.8637 13.0001 31.7485 12.9421C30.9253 12.5206 30.6786 10.2584 30.5181 9.33752C29.9714 9.91092 29.6239 10.6181 29.226 11.2798C28.9905 11.6767 28.6792 12.1576 28.1679 12.1844C27.7844 12.2045 27.4044 11.9841 27.1934 11.6267C26.9488 11.2389 26.8286 10.7806 26.6454 10.3416C25.9093 11.2774 25.4071 12.3932 24.687 13.3282ZM37.0017 10.9364C36.6408 11.6923 35.9148 12.8199 35.004 12.8676C33.8376 12.9287 33.4519 11.6832 33.3386 10.7438C33.2681 10.0105 33.3406 9.25369 33.625 8.56586C33.9666 7.74686 34.6371 6.78245 35.6117 6.73137C36.1869 6.70123 36.7478 7.00829 36.9234 7.60792C36.9637 7.76603 36.925 7.9443 36.9973 8.10073C37.0755 8.06459 37.1546 8.04442 37.2344 8.04024C37.4422 8.02935 37.6709 8.1135 37.8222 8.24976C37.9744 8.40201 38.05 8.62235 38.1089 8.82755C38.3172 9.74591 38.4145 10.6861 38.6061 11.5893C38.6077 11.6213 38.6624 11.7466 38.6632 11.7626C38.7666 12.2058 38.4301 12.5118 38.0626 12.531C37.8389 12.5428 37.6094 12.4426 37.453 12.2105C37.2244 11.8219 37.1202 11.3628 37.0017 10.9364ZM34.9239 10.116C34.8969 10.518 34.9036 10.9502 35.0523 11.343C35.2525 11.1883 35.4022 10.9882 35.5192 10.7738C35.8758 10.2424 36.1341 9.66805 36.3756 9.07861L36.3596 9.07945C36.0527 9.03144 35.7946 8.69249 35.7627 8.38974C35.2572 8.8328 34.9686 9.44074 34.9239 10.116ZM44.4361 13.3506C44.7808 13.8132 44.425 14.3606 43.8977 14.3882C43.8018 14.3932 43.7043 14.3663 43.6067 14.3394C42.855 14.0583 42.5931 11.813 42.526 11.1436C42.171 11.7069 41.6049 12.2172 40.9179 12.2532C40.1349 12.2943 39.5758 11.7147 39.3624 11.0049C39.1716 10.4221 39.1844 9.74853 39.3292 9.14813C39.5404 8.28789 40.3666 6.9308 41.3572 6.87888C41.6768 6.86213 42.0341 6.95556 42.3301 7.10026C42.3941 6.79249 42.4421 6.48556 42.4733 6.16349C42.4994 5.74554 42.5096 5.32844 42.5518 4.90966C42.556 4.68513 42.5435 4.44546 42.6461 4.26384C42.7765 4.00065 43.0095 3.86027 43.2651 3.84687C43.5687 3.83096 43.8823 4.00679 44.0126 4.35244C44.0706 4.54167 44.0335 4.75189 44.0276 4.94447C44.0105 6.45143 43.9773 7.95923 44.0081 9.46368C44.0331 10.5519 44.0741 11.6392 44.258 12.703C44.2798 12.8141 44.3512 13.2589 44.4361 13.3506ZM40.835 10.367C40.8569 10.478 40.8795 10.605 40.9333 10.7143C41.4968 10.4605 41.9008 8.99733 42.0616 8.39609C41.9312 8.35486 41.8001 8.29765 41.6714 8.28837C41.6075 8.29172 41.578 8.34132 41.5486 8.39093C41.2777 8.72557 41.0413 9.10646 40.9033 9.53027C40.8209 9.79094 40.804 10.0802 40.835 10.367ZM51.3969 11.3996C51.0528 12.1707 49.4861 12.5412 48.767 12.5789C47.7604 12.6316 46.642 12.3858 46.0056 11.554C45.5928 11.0149 45.4416 10.2698 45.4384 9.59701C45.2686 9.41365 45.2207 9.11174 45.3217 8.89816C45.3638 8.7838 45.4386 8.68375 45.5143 8.59967C45.8039 7.09445 46.7478 5.84334 48.3775 5.75793C48.729 5.7395 49.0679 5.78583 49.3791 5.91372C50.753 6.45055 50.6727 8.28126 49.5524 9.22119C48.8761 9.76933 47.9275 10.0113 47.0327 10.0582C47.0731 10.2163 47.1151 10.4064 47.2025 10.546C47.4833 11.0119 48.2266 11.1332 48.8977 11.098C49.3771 11.0729 49.8682 10.9671 50.3055 10.7519C50.3366 10.7342 50.4586 10.6157 50.4897 10.598C50.552 10.5627 50.6462 10.5257 50.742 10.5207C50.9018 10.5123 51.0969 10.5662 51.2146 10.6722C51.4156 10.8379 51.4962 11.1541 51.3969 11.3996ZM47.7633 7.48845C47.4075 7.7314 47.2064 8.17453 47.1003 8.59666C47.7042 8.50093 48.9892 8.25734 48.9473 7.45844C48.9456 7.42648 48.9566 7.32978 48.9238 7.31547C48.8733 7.27005 48.6488 7.26579 48.5841 7.25317C48.2956 7.25226 47.9945 7.31611 47.7633 7.48845ZM60.1059 11.9045C59.9923 12.1829 59.7434 12.3241 59.4877 12.3375C59.28 12.3484 59.0681 12.2794 58.9143 12.0952C58.6755 11.8193 58.6226 11.4215 58.5562 11.0725C58.405 10.3274 58.2866 9.59659 58.1834 8.84897C57.8167 8.8842 57.4341 8.92028 57.0641 8.8916C56.9522 8.89746 56.853 8.83858 56.7538 8.77969C56.3872 8.51051 56.4361 7.91513 56.8415 7.70162C56.9979 7.62934 57.1905 7.63526 57.3494 7.61091C57.5723 7.58321 57.7951 7.55551 58.0172 7.51183C57.9097 6.68432 57.8493 5.83832 57.8209 4.99064C57.8134 4.84684 57.821 4.68622 57.7815 4.5441C57.726 4.40281 57.7656 4.24051 57.8388 4.1085C57.9557 3.89409 58.1584 3.78733 58.3661 3.77645C58.8934 3.74881 59.0792 4.23576 59.1026 4.68315C59.2277 5.54178 59.368 6.38359 59.509 7.24138C59.5561 7.22289 59.6041 7.22038 59.6512 7.20189C60.0321 7.13386 60.4282 7.04901 60.8125 7.04489C60.9732 7.0525 61.122 7.14083 61.2397 7.24681C61.5087 7.48906 61.4834 7.92298 61.2244 8.17689C61.1184 8.2946 60.9443 8.33577 60.8022 8.37526C60.4523 8.42564 60.1041 8.50797 59.7551 8.57433C59.8954 9.41614 60.0348 10.242 60.1591 11.0846C60.1893 11.3554 60.2044 11.643 60.1059 11.9045ZM67.8996 11.1116C67.802 11.389 67.569 11.5294 67.3134 11.5428C67.1216 11.5529 66.9097 11.4839 66.7584 11.3476C66.5246 11.1676 66.396 10.8539 66.333 10.5688C66.2633 10.1559 66.1762 8.79858 65.8878 8.49326C65.7289 8.51761 65.4429 8.86906 65.3385 9.01872C64.9659 9.55096 64.6925 10.1421 64.3375 10.7054C64.2331 10.8551 64.1288 11.0048 63.9909 11.1241C63.837 11.2444 63.6637 11.3015 63.488 11.3107C62.8009 11.3467 62.5942 10.7647 62.4698 10.2265C62.1842 8.75144 62.0895 7.25034 62.1387 5.7417C62.1379 5.4213 62.1768 4.32977 62.3543 4.04809C62.4435 3.91525 62.4814 3.721 62.5874 3.60329C62.7076 3.45279 62.8801 3.37966 63.0718 3.36961C63.5688 3.37561 63.8361 3.89033 63.619 4.3343C63.6047 4.36709 63.6106 4.47894 63.6123 4.51089C63.5887 4.67235 63.5819 4.84894 63.5743 5.00956C63.6035 6.17764 63.6974 7.35834 63.8224 8.52139C64.2944 7.74362 64.8479 6.99363 65.8226 6.94255C67.6441 6.84709 67.8386 9.33632 67.9073 10.6465C67.9156 10.8063 67.94 10.9652 67.8996 11.1116ZM74.5058 10.1885C74.1617 10.9596 72.595 11.3301 71.876 11.3678C70.8693 11.4206 69.7509 11.1748 69.1145 10.3429C68.7017 9.80378 68.5505 9.05868 68.5473 8.38592C68.3775 8.20256 68.3296 7.90065 68.4306 7.68707C68.4727 7.57272 68.5475 7.47266 68.6232 7.38858C68.9129 5.88336 69.8567 4.63225 71.4864 4.54684C71.838 4.52842 72.1768 4.57475 72.488 4.70264C73.8619 5.23946 73.7816 7.07018 72.6613 8.0101C71.9851 8.55824 71.0364 8.80022 70.1417 8.84711C70.182 9.00522 70.224 9.19528 70.3114 9.3349C70.5922 9.80084 71.3355 9.9221 72.0066 9.88693C72.486 9.86181 72.9771 9.75596 73.4144 9.54078C73.4456 9.52313 73.5675 9.40458 73.5986 9.38693C73.6609 9.35162 73.7551 9.31464 73.8509 9.30962C74.0107 9.30124 74.2058 9.35511 74.3235 9.46109C74.5245 9.6268 74.6051 9.94302 74.5058 10.1885ZM70.8722 6.27736C70.5164 6.52031 70.3153 6.96344 70.2093 7.38557C70.8131 7.28984 72.0981 7.04625 72.0562 6.24735C72.0545 6.21539 72.0655 6.11869 72.0327 6.10439C71.9823 6.05896 71.7577 6.05471 71.693 6.04208C71.4045 6.04117 71.1035 6.10502 70.8722 6.27736ZM82.0376 13.9115C81.924 14.1898 81.6599 14.3478 81.4043 14.3612C81.1966 14.3721 80.9838 14.2871 80.83 14.1029C80.6064 13.8102 80.5854 13.4108 80.5351 13.0609C80.3747 11.8357 80.2943 10.6062 80.1987 9.39352C80.1114 8.34064 80.0074 7.27262 80.0009 6.23154C80.0102 5.79845 80.3139 5.47812 80.6654 5.4597C81.0808 5.43793 81.2885 5.73146 81.3414 6.12924C81.3708 6.38405 81.3993 6.62289 81.4278 6.86172C81.7047 6.03009 82.1893 5.18758 82.8983 4.65374C83.1304 4.49737 83.3954 4.35531 83.6821 4.32426C83.9681 4.27723 84.291 4.3244 84.5542 4.4548C84.9502 4.67438 85.2747 5.05792 85.4251 5.48263C85.7008 6.15712 85.8058 6.9367 85.6677 7.66492C85.5001 8.74718 84.7068 10.1186 83.5857 10.4337C83.1594 10.5522 82.7111 10.5596 82.278 10.5503C82.2274 11.4181 82.1927 12.2851 82.1421 13.153C82.1235 13.4103 82.1377 13.6819 82.0376 13.9115ZM83.6532 5.91195C82.7246 6.53741 82.4779 8.24867 82.386 9.24684C82.7055 9.2301 83.0705 9.1629 83.3153 8.94179C84.1421 8.20951 84.398 6.97843 83.929 5.97761C83.9113 5.94649 83.8735 5.83632 83.8407 5.82201C83.792 5.80855 83.6835 5.87832 83.6532 5.91195ZM88.8824 9.37102C88.7133 9.81247 88.3978 10.2135 87.8865 10.2403C86.6722 10.304 86.4616 8.12 86.418 7.28914C86.3812 6.5861 86.3344 5.08249 87.357 5.0289C87.5328 5.01969 87.7127 5.09037 87.8489 5.24345C87.9843 5.38055 88.0448 5.61771 87.9909 5.8128C87.9648 5.92632 87.906 6.02554 87.8302 6.10961C87.8151 6.12643 87.7832 6.1281 87.7848 6.16006C87.7326 6.69152 87.8098 7.24824 87.9182 7.78731C88.1647 6.98931 88.3752 6.1131 88.9354 5.49093C89.0716 5.33959 89.2752 5.24881 89.4636 5.17485C89.5729 5.12105 89.6679 5.10005 89.7638 5.09503C90.4509 5.05902 90.8535 6.01526 90.1377 6.42128C90.1066 6.43893 90.0326 6.55496 90.0023 6.58859C89.4698 7.43362 89.2829 8.4528 88.8824 9.37102ZM96.2557 6.98185C96.141 8.46189 94.5227 9.98867 93.0687 10.0649C92.4455 10.0975 91.7913 9.84342 91.4425 9.30094C91.1642 8.88293 91.0886 8.35816 91.0787 7.86201C91.0746 7.17327 91.2135 6.46103 91.5172 5.83628C91.8193 5.17957 92.5074 4.24628 93.2037 4.38603C93.2684 4.39866 93.5232 4.36928 93.5712 4.36677C94.7376 4.30564 95.7264 4.83061 96.1542 5.96177C96.2676 6.29228 96.286 6.6438 96.2557 6.98185ZM92.7142 8.49728C92.7814 8.55784 93.0202 8.52931 93.1313 8.50747C93.8108 8.32766 94.3895 7.75258 94.7251 7.12615C94.9582 6.68135 94.8322 6.11116 94.3722 5.89494C94.0426 5.71995 93.6591 5.74005 93.2866 5.66344C93.1798 5.76517 92.9299 6.19483 92.8727 6.32601C92.6599 6.84986 92.5454 7.41663 92.5747 7.97587C92.5814 8.10369 92.6141 8.42242 92.7142 8.49728ZM101.33 8.35014C100.631 8.75532 99.8586 9.00406 99.0597 9.04593C97.9093 9.10622 96.9549 8.62752 96.8408 7.36776C96.7737 6.69836 97.0085 5.98109 97.3635 5.41773C97.7336 4.83757 98.7009 4.03384 99.4519 3.99449C99.6915 3.98193 99.9202 4.06607 100.104 4.21664C100.172 4.2772 100.463 4.64644 100.531 4.72298C100.652 4.8769 100.649 5.13339 100.594 5.3125C100.511 5.55719 100.294 5.69674 100.038 5.71014C99.9586 5.71432 99.8618 5.70337 99.7803 5.6756C99.6659 5.63353 99.5818 5.55783 99.4978 5.48212C98.8956 5.91423 98.4312 6.53138 98.4395 7.3C98.442 7.34793 98.4462 7.42783 98.463 7.44297C98.5639 7.53381 98.8843 7.53304 99.0121 7.52634C99.4771 7.53401 99.938 7.4618 100.379 7.31052C100.536 7.25422 100.692 7.18193 100.866 7.12479C101.228 7.00966 101.611 7.29398 101.664 7.69176C101.695 7.96255 101.563 8.20976 101.33 8.35014ZM108.21 8.42221C107.865 9.19328 106.299 9.56378 105.58 9.60146C104.573 9.65422 103.455 9.40841 102.818 8.57658C102.405 8.03745 102.254 7.29234 102.251 6.61958C102.081 6.43622 102.033 6.13431 102.134 5.92074C102.176 5.80638 102.251 5.70632 102.327 5.62224C102.617 4.11702 103.56 2.86591 105.19 2.7805C105.542 2.76208 105.881 2.80841 106.192 2.9363C107.566 3.47313 107.485 5.30384 106.365 6.24376C105.689 6.7919 104.74 7.03388 103.845 7.08078C103.886 7.23888 103.928 7.42894 104.015 7.56856C104.296 8.0345 105.039 8.15576 105.71 8.1206C106.19 8.09547 106.681 7.98962 107.118 7.77444C107.149 7.75679 107.271 7.63824 107.302 7.62059C107.365 7.58528 107.459 7.5483 107.555 7.54328C107.714 7.53491 107.91 7.58877 108.027 7.69476C108.228 7.86047 108.309 8.17668 108.21 8.42221ZM104.576 4.51102C104.22 4.75397 104.019 5.19711 103.913 5.61923C104.517 5.5235 105.802 5.27992 105.76 4.48101C105.758 4.44906 105.769 4.35235 105.736 4.33805C105.686 4.29262 105.461 4.28837 105.397 4.27574C105.108 4.27484 104.807 4.33868 104.576 4.51102ZM112.201 9.33459C111.694 9.76167 110.635 10.0255 109.932 10.0623C109.756 10.0715 109.578 10.0488 109.415 9.99327C108.861 9.81402 108.712 9.11685 109.192 8.78731C109.3 8.71753 109.458 8.66122 109.602 8.66967C109.86 8.7042 110.808 8.44624 111.06 8.35296C110.649 7.84578 110.114 7.42519 109.672 6.93566C109.349 6.58407 109.055 6.18288 108.919 5.72538C108.786 5.33179 108.797 4.93066 108.921 4.53965C109.144 3.90311 109.792 3.11613 110.495 3.07929C110.75 3.06589 111.042 3.13071 111.242 3.28044C111.26 3.31156 111.39 3.33681 111.422 3.35112C111.749 3.46219 111.865 3.84064 111.753 4.1669C111.684 4.37881 111.421 4.55282 111.214 4.56371C111.038 4.57292 110.842 4.50308 110.663 4.44838C110.447 4.61988 110.286 4.90072 110.316 5.17151C110.351 5.53817 111.161 6.31285 111.415 6.57192C111.871 7.02865 112.393 7.49802 112.569 8.11362C112.705 8.57113 112.569 9.02689 112.201 9.33459ZM116.601 9.10398C116.094 9.53107 115.035 9.79489 114.332 9.83173C114.156 9.84094 113.979 9.8182 113.815 9.76266C113.261 9.58342 113.113 8.88624 113.592 8.5567C113.7 8.48693 113.858 8.43062 114.002 8.43906C114.261 8.4736 115.208 8.21564 115.46 8.12235C115.049 7.61517 114.514 7.19458 114.072 6.70505C113.749 6.35347 113.456 5.95227 113.319 5.49477C113.187 5.10118 113.198 4.70006 113.321 4.30905C113.544 3.6725 114.192 2.88553 114.895 2.84868C115.151 2.83528 115.442 2.9001 115.643 3.04983C115.66 3.08095 115.79 3.10621 115.823 3.12051C116.149 3.23159 116.265 3.61004 116.154 3.9363C116.085 4.1482 115.821 4.32222 115.614 4.3331C115.438 4.34231 115.242 4.27247 115.063 4.21777C114.848 4.38928 114.686 4.67011 114.716 4.9409C114.752 5.30756 115.561 6.08225 115.815 6.34132C116.272 6.79805 116.793 7.26741 116.969 7.88302C117.105 8.34052 116.969 8.79628 116.601 9.10398ZM4.88492 32.9835C4.37858 33.4106 3.31893 33.6744 2.6159 33.7112C2.44014 33.7204 2.2627 33.6977 2.09957 33.6421C1.54543 33.4629 1.39674 32.7657 1.87615 32.4362C1.98465 32.3664 2.14192 32.3101 2.28656 32.3185C2.54472 32.3531 3.49252 32.0951 3.74398 32.0018C3.33287 31.4947 2.79813 31.0741 2.3559 30.5845C2.03306 30.233 1.73966 29.8318 1.60353 29.3743C1.47075 28.9807 1.48177 28.5795 1.60548 28.1885C1.82847 27.552 2.47617 26.765 3.1792 26.7282C3.43485 26.7148 3.72665 26.7796 3.92676 26.9293C3.94441 26.9604 4.07391 26.9857 4.1067 27C4.43296 27.1111 4.54893 27.4895 4.43785 27.8158C4.36885 28.0277 4.10559 28.2017 3.89788 28.2126C3.72212 28.2218 3.5262 28.152 3.34709 28.0973C3.13177 28.2688 2.97024 28.5496 3.00046 28.8204C3.0357 29.187 3.84535 29.9617 4.09926 30.2208C4.55578 30.6775 5.07706 31.1469 5.25352 31.7625C5.38965 32.22 5.25332 32.6758 4.88492 32.9835ZM10.7478 31.3143C10.3044 32.3309 9.62884 33.8083 8.35059 33.8753C7.31202 33.9297 6.54444 33.0407 6.19312 32.1459C5.89477 31.3444 5.86469 30.4647 5.9002 29.6137C5.9205 29.0839 6.01664 27.8612 6.4784 27.5006C6.6012 27.398 6.74249 27.3425 6.88629 27.335C7.30172 27.3132 7.69099 27.7094 7.52354 28.1828C7.49744 28.2963 7.38895 28.3661 7.36285 28.4796C7.18696 29.0977 7.20531 29.7536 7.25478 30.3919C7.29588 30.8704 7.37061 31.3792 7.5858 31.8165C7.7102 32.0503 8.00277 32.4355 8.29037 32.4205C8.45015 32.4121 8.69157 32.1271 8.78157 32.0102C9.48314 31.0281 9.88286 29.7895 10.1581 28.6215C10.2768 28.1346 10.4115 27.6469 11.0026 27.6159C11.5778 27.5858 11.8258 28.0374 11.8989 28.5143C12.0047 29.0054 12.0475 29.5159 12.1063 30.0255C12.1448 30.456 12.2314 30.8841 12.2868 31.3298C12.3338 31.6157 12.3354 31.9521 12.189 32.2161C12.0855 32.3818 11.882 32.4726 11.6903 32.4826C11.4346 32.496 11.1723 32.3816 11.063 32.131C10.9369 31.8652 10.8268 31.5986 10.7478 31.3143ZM15.1353 35.4424C15.0217 35.7207 14.7576 35.8787 14.502 35.8921C14.2942 35.903 14.0815 35.818 13.9276 35.6338C13.704 35.3411 13.6831 34.9417 13.6327 34.5918C13.4724 33.3666 13.3919 32.1371 13.2963 30.9244C13.2091 29.8715 13.105 28.8035 13.0986 27.7624C13.1079 27.3294 13.4116 27.009 13.7631 26.9906C14.1785 26.9688 14.3861 27.2624 14.439 27.6601C14.4684 27.915 14.497 28.1538 14.5255 28.3926C14.8023 27.561 15.2869 26.7185 15.9959 26.1846C16.2281 26.0283 16.493 25.8862 16.7798 25.8552C17.0657 25.8081 17.3886 25.8553 17.6518 25.9857C18.0478 26.2053 18.3724 26.5888 18.5228 27.0135C18.7985 27.688 18.9034 28.4676 18.7653 29.1958C18.5977 30.2781 17.8044 31.6495 16.6834 31.9646C16.257 32.0831 15.8088 32.0905 15.3757 32.0812C15.325 32.949 15.2904 33.816 15.2397 34.6839C15.2212 34.9412 15.2354 35.2128 15.1353 35.4424ZM16.7508 27.4429C15.8223 28.0683 15.5755 29.7796 15.4836 30.7777C15.8032 30.761 16.1682 30.6938 16.4129 30.4727C17.2397 29.7404 17.4957 28.5093 17.0266 27.5085C17.009 27.4774 16.9712 27.3672 16.9384 27.3529C16.8896 27.3395 16.7811 27.4092 16.7508 27.4429ZM25.5944 30.7766C25.2503 31.5477 23.6836 31.9182 22.9645 31.9558C21.9579 32.0086 20.8395 31.7628 20.2031 30.931C19.7903 30.3918 19.6391 29.6467 19.6359 28.974C19.4661 28.7906 19.4182 28.4887 19.5192 28.2751C19.5613 28.1608 19.6361 28.0607 19.7118 27.9766C20.0014 26.4714 20.9453 25.2203 22.575 25.1349C22.9265 25.1165 23.2654 25.1628 23.5766 25.2907C24.9505 25.8275 24.8702 27.6582 23.7499 28.5981C23.0736 29.1463 22.125 29.3883 21.2302 29.4352C21.2706 29.5933 21.3126 29.7833 21.4 29.9229C21.6808 30.3889 22.4241 30.5101 23.0952 30.475C23.5746 30.4499 24.0657 30.344 24.503 30.1288C24.5341 30.1112 24.6561 29.9926 24.6872 29.975C24.7495 29.9397 24.8437 29.9027 24.9395 29.8977C25.0993 29.8893 25.2944 29.9431 25.4121 30.0491C25.6131 30.2148 25.6937 30.5311 25.5944 30.7766ZM21.9608 26.8654C21.605 27.1084 21.4039 27.5515 21.2978 27.9736C21.9017 27.8779 23.1867 27.6343 23.1448 26.8354C23.1431 26.8034 23.1541 26.7067 23.1213 26.6924C23.0708 26.647 22.8463 26.6427 22.7816 26.6301C22.4931 26.6292 22.192 26.6931 21.9608 26.8654ZM28.5647 30.5568C28.3956 30.9983 28.0802 31.3993 27.5689 31.4261C26.3545 31.4898 26.144 29.3058 26.1004 28.475C26.0636 27.7719 26.0168 26.2683 27.0394 26.2147C27.2152 26.2055 27.3951 26.2762 27.5313 26.4293C27.6667 26.5664 27.7272 26.8035 27.6733 26.9986C27.6472 27.1121 27.5883 27.2114 27.5126 27.2954C27.4975 27.3122 27.4655 27.3139 27.4672 27.3459C27.4149 27.8773 27.4922 28.4341 27.6005 28.9731C27.8471 28.1751 28.0575 27.2989 28.6178 26.6767C28.754 26.5254 28.9575 26.4346 29.1459 26.3607C29.2553 26.3069 29.3503 26.2859 29.4462 26.2808C30.1332 26.2448 30.5358 27.2011 29.8201 27.6071C29.789 27.6247 29.7149 27.7408 29.6847 27.7744C29.1522 28.6194 28.9652 29.6386 28.5647 30.5568ZM39.0256 31.1942C38.5192 31.6213 37.4596 31.8851 36.7565 31.922C36.5808 31.9312 36.4034 31.9084 36.2402 31.8529C35.6861 31.6737 35.5374 30.9765 36.0168 30.6469C36.1253 30.5772 36.2826 30.5209 36.4272 30.5293C36.6854 30.5638 37.6332 30.3059 37.8846 30.2126C37.4735 29.7054 36.9388 29.2848 36.4965 28.7953C36.1737 28.4437 35.8803 28.0425 35.7442 27.585C35.6114 27.1914 35.6224 26.7903 35.7461 26.3993C35.9691 25.7627 36.6168 24.9758 37.3199 24.9389C37.5755 24.9255 37.8673 24.9903 38.0674 25.1401C38.0851 25.1712 38.2146 25.1965 38.2473 25.2108C38.5736 25.3218 38.6896 25.7003 38.5785 26.0265C38.5095 26.2384 38.2462 26.4125 38.0385 26.4233C37.8628 26.4326 37.6668 26.3627 37.4877 26.308C37.2724 26.4795 37.1109 26.7604 37.1411 27.0311C37.1763 27.3978 37.986 28.1725 38.2399 28.4316C38.6964 28.8883 39.2177 29.3577 39.3942 29.9733C39.5303 30.4308 39.394 30.8865 39.0256 31.1942ZM41.2384 23.7722C41.5167 24.1903 41.2247 24.7343 40.7454 24.7594C40.4578 24.7745 40.1921 24.5961 40.0055 24.3976C39.6137 23.9535 39.8838 23.2985 40.4506 23.1086C40.8282 22.9766 41.1813 23.2946 41.2342 23.6924C41.2351 23.7083 41.2208 23.7411 41.2384 23.7722ZM42.3067 30.093C42.7296 30.5195 42.478 31.2216 41.8708 31.2534C41.743 31.2601 41.5975 31.2357 41.4823 31.1776C40.9526 30.8529 40.5541 30.281 40.3634 29.6982C40.1163 28.9581 39.8787 27.1761 40.3094 26.5286C40.444 26.3453 40.6467 26.2386 40.8704 26.2269C41.11 26.2143 41.3556 26.3136 41.4951 26.5306C41.633 26.7156 41.5976 26.9578 41.6253 27.1807C41.674 27.803 41.8821 29.6346 42.3067 30.093ZM44.7278 30.3026C44.5167 30.554 44.3039 30.7734 43.9684 30.791C43.6648 30.8069 43.3839 30.6454 43.2091 30.3661C43.0864 30.1643 43.0721 29.8927 43.0907 29.6353C43.138 28.3992 43.3755 26.8166 43.6643 25.5998C43.7535 25.1625 43.9537 24.7034 44.481 24.6758C44.6887 24.6649 44.8855 24.7507 45.0082 24.9526C45.0788 25.077 45.1343 25.2183 45.1099 25.3638C44.9819 25.9794 44.9515 26.6218 44.8732 27.2668C45.1987 26.7531 45.5066 26.2082 45.9667 25.8156C46.182 25.6441 46.4638 25.5172 46.7354 25.5029C47.5982 25.4577 48.0269 26.3004 48.2715 26.9926C48.6963 26.2333 49.1338 25.4093 49.842 24.8595C50.1347 24.6358 50.5258 24.4551 50.8949 24.4678C51.6997 24.5378 52.046 25.3368 52.1938 26.018C52.2997 26.5091 52.3744 27.0179 52.4803 27.509C52.5701 28.001 52.6751 28.4761 52.7331 28.9698C52.7364 29.0337 52.7709 29.08 52.7742 29.1439C52.8624 29.6039 52.5293 29.9738 52.1459 29.9939C52.034 29.9998 51.9045 29.9745 51.7893 29.9165C50.9661 29.495 50.7194 27.2328 50.559 26.3119C50.0122 26.8853 49.6648 27.5925 49.2669 28.2542C49.0313 28.6511 48.72 29.132 48.2088 29.1588C47.8253 29.1789 47.4452 28.9585 47.2342 28.6011C46.9896 28.2133 46.8694 27.755 46.6862 27.316C45.9502 28.2518 45.4479 29.3676 44.7278 30.3026ZM55.5798 33.3228C55.4662 33.6011 55.2021 33.7591 54.9464 33.7725C54.7387 33.7834 54.526 33.6984 54.3721 33.5142C54.1485 33.2215 54.1276 32.8221 54.0772 32.4722C53.9169 31.247 53.8364 30.0175 53.7408 28.8048C53.6536 27.7519 53.5495 26.6839 53.543 25.6428C53.5524 25.2098 53.856 24.8894 54.2076 24.871C54.623 24.8492 54.8306 25.1428 54.8835 25.5405C54.9129 25.7954 54.9414 26.0342 54.97 26.273C55.2468 25.4414 55.7314 24.5989 56.4404 24.065C56.6726 23.9087 56.9375 23.7666 57.2243 23.7356C57.5102 23.6885 57.8331 23.7357 58.0963 23.8661C58.4923 24.0857 58.8169 24.4692 58.9673 24.8939C59.243 25.5684 59.3479 26.348 59.2098 27.0762C59.0422 28.1585 58.2489 29.5299 57.1279 29.845C56.7015 29.9635 56.2533 29.9709 55.8202 29.9616C55.7695 30.8294 55.7349 31.6964 55.6842 32.5643C55.6657 32.8216 55.6799 33.0932 55.5798 33.3228ZM57.1953 25.3233C56.2668 25.9487 56.02 27.66 55.9281 28.6581C56.2477 28.6414 56.6127 28.5742 56.8574 28.3531C57.6842 27.6208 57.9402 26.3897 57.4711 25.3889C57.4535 25.3578 57.4157 25.2476 57.3829 25.2333C57.3341 25.2198 57.2256 25.2896 57.1953 25.3233ZM62.4021 31.1067C62.2785 31.1933 62.1364 31.2328 62.0086 31.2395C60.938 31.2956 60.5919 29.5833 60.5021 28.7869C60.2553 26.8292 60.1355 24.8487 60.2251 22.8893C60.2411 22.5841 60.274 22.294 60.2909 22.0047C60.3229 21.6986 60.6106 21.3791 60.9301 21.3624C61.2178 21.3473 61.4994 21.5248 61.6272 21.8225C61.7549 22.1202 61.7574 22.4726 61.8061 22.7905C61.8674 23.348 61.8958 23.8913 61.9403 24.4337C62.0585 25.7733 62.0961 27.1012 62.2303 28.44C62.2714 28.9185 62.3125 29.397 62.3856 29.8739C62.3873 29.9058 62.4192 29.9041 62.436 29.9193C62.5025 29.9639 62.5697 30.0244 62.621 30.0858C62.8934 30.392 62.7419 30.8646 62.4021 31.1067ZM69.4561 28.4779C69.112 29.249 67.5452 29.6195 66.8262 29.6571C65.8196 29.7099 64.7012 29.4641 64.0648 28.6323C63.652 28.0931 63.5008 27.348 63.4976 26.6753C63.3278 26.4919 63.2799 26.19 63.3809 25.9764C63.4229 25.8621 63.4978 25.762 63.5735 25.6779C63.8631 24.1727 64.8069 22.9216 66.4367 22.8362C66.7882 22.8178 67.1271 22.8641 67.4382 22.992C68.8122 23.5288 68.7319 25.3595 67.6116 26.2994C66.9353 26.8476 65.9867 27.0896 65.0919 27.1365C65.1323 27.2946 65.1743 27.4846 65.2617 27.6242C65.5425 28.0902 66.2858 28.2115 66.9569 28.1763C67.4362 28.1512 67.9274 28.0453 68.3647 27.8301C68.3958 27.8125 68.5178 27.6939 68.5489 27.6763C68.6111 27.641 68.7053 27.604 68.8012 27.599C68.961 27.5906 69.1561 27.6445 69.2738 27.7504C69.4747 27.9162 69.5554 28.2324 69.4561 28.4779ZM65.8224 24.5667C65.4667 24.8097 65.2656 25.2528 65.1595 25.6749C65.7633 25.5792 67.0484 25.3356 67.0065 24.5367C67.0048 24.5047 67.0158 24.408 66.983 24.3937C66.9325 24.3483 66.708 24.3441 66.6432 24.3314C66.3548 24.3305 66.0537 24.3944 65.8224 24.5667ZM78.6039 29.7128C78.6416 30.1274 78.3573 30.5108 77.9579 30.5318C77.5744 30.5519 77.186 30.1717 77.0246 29.8437C76.5168 29.0211 76.3077 27.7824 76.1784 26.8438L75.4914 26.8798C75.2996 26.8899 75.0911 26.8848 74.9263 26.7973C74.5294 26.5618 74.4993 25.9865 74.8861 25.7259C75.056 25.6049 75.2797 25.5932 75.5026 25.5655C75.6775 25.5403 75.8684 25.5142 76.0585 25.4722C75.9898 24.162 76.0314 22.5096 76.479 21.2685C76.7197 20.663 77.057 20.0686 77.792 20.03C78.6548 19.9848 79.2433 20.8192 79.3483 21.5988C79.3835 21.9654 79.0614 22.2386 78.7258 22.2562C78.566 22.2646 78.4029 22.2091 78.2844 22.0871C78.1994 21.9954 78.1608 21.8693 78.0607 21.7944C77.6981 22.8228 77.6717 24.154 77.7127 25.2413C78.1903 25.1843 78.684 25.1264 79.1953 25.0996C79.5947 25.0786 79.9537 25.5084 79.8771 25.8809C79.8241 26.092 79.6928 26.3392 79.4885 26.414C79.0495 26.5972 78.5718 26.6543 78.1101 26.7106L77.8225 26.7256C77.8594 27.1242 77.9283 27.5212 77.9812 27.919C78.0677 28.347 78.1693 28.7583 78.303 29.1678C78.3198 29.183 78.387 29.2435 78.4198 29.2578C78.5375 29.3638 78.5955 29.553 78.6039 29.7128ZM85.7291 25.5582C85.6144 27.0383 83.9961 28.5651 82.5421 28.6413C81.9189 28.6739 81.2647 28.4198 80.9159 27.8773C80.6376 27.4593 80.5621 26.9345 80.5521 26.4384C80.548 25.7497 80.6869 25.0374 80.9907 24.4127C81.2927 23.7559 81.9808 22.8227 82.6771 22.9624C82.7418 22.975 82.9966 22.9457 83.0446 22.9431C84.211 22.882 85.1998 23.407 85.6276 24.5381C85.741 24.8687 85.7595 25.2202 85.7291 25.5582ZM82.1876 27.0737C82.2548 27.1342 82.4937 27.1057 82.6047 27.0838C83.2842 26.904 83.8629 26.329 84.1986 25.7025C84.4316 25.2577 84.3056 24.6875 83.8456 24.4713C83.516 24.2963 83.1326 24.3164 82.76 24.2398C82.6532 24.3415 82.4034 24.7712 82.3461 24.9024C82.1333 25.4262 82.0188 25.993 82.0481 26.5522C82.0548 26.6801 82.0875 26.9988 82.1876 27.0737ZM88.8258 27.3987C88.6567 27.8401 88.3412 28.2412 87.8299 28.268C86.6156 28.3316 86.405 26.1477 86.3615 25.3168C86.3246 24.6138 86.2779 23.1102 87.3005 23.0566C87.4762 23.0474 87.6562 23.118 87.7924 23.2711C87.9277 23.4082 87.9882 23.6454 87.9344 23.8405C87.9083 23.954 87.8494 24.0532 87.7737 24.1373C87.7585 24.1541 87.7266 24.1558 87.7282 24.1877C87.676 24.7192 87.7532 25.2759 87.8616 25.815C88.1082 25.017 88.3186 24.1408 88.8788 23.5186C89.0151 23.3673 89.2186 23.2765 89.407 23.2025C89.5163 23.1487 89.6113 23.1277 89.7072 23.1227C90.3943 23.0867 90.7969 24.0429 90.0811 24.4489C90.05 24.4666 89.976 24.5826 89.9457 24.6163C89.4132 25.4613 89.2263 26.4805 88.8258 27.3987ZM100.584 29.5543C100.299 29.6173 99.959 29.555 99.6958 29.4246C99.2687 29.2226 99.0005 28.692 98.9283 28.2311C98.878 27.8813 99.1791 27.513 99.5306 27.4946C99.8191 27.4955 99.9679 27.5838 100.139 27.7831C100.219 27.4905 100.251 27.1844 100.283 26.8783C100.349 25.9937 100.334 25.0972 100.224 24.2218C99.9206 24.8465 99.6337 25.4864 99.2299 26.0363C98.8261 26.5862 98.3055 27.0461 97.6024 27.0829C95.9886 27.1675 95.789 24.8868 95.7287 23.7364C95.7203 23.5766 95.712 23.4168 95.7355 23.2554C95.7777 22.8366 96.2378 22.444 96.6532 22.4222C97.2284 22.3921 97.5402 23.1448 97.049 23.555C97.0885 24.0016 97.2547 25.3387 97.5599 25.6592C97.7491 25.6012 98.1091 25.1337 98.2286 24.9673C98.6416 24.2887 98.9218 23.521 99.3181 22.8273C99.583 22.3808 99.7892 22.0336 100.364 22.0034C101.547 21.9414 101.824 23.5612 101.903 24.4543C101.995 25.2986 101.992 26.1479 101.907 26.9855C101.828 27.9189 101.657 29.2417 100.584 29.5543ZM107.886 24.397C107.771 25.8771 106.153 27.4038 104.699 27.48C104.076 27.5127 103.422 27.2586 103.073 26.7161C102.795 26.2981 102.719 25.7733 102.709 25.2772C102.705 24.5884 102.844 23.8762 103.148 23.2514C103.45 22.5947 104.138 21.6614 104.834 21.8012C104.899 21.8138 105.154 21.7845 105.202 21.7819C106.368 21.7208 107.357 22.2458 107.785 23.3769C107.898 23.7075 107.917 24.059 107.886 24.397ZM104.345 25.9125C104.412 25.973 104.651 25.9445 104.762 25.9226C105.441 25.7428 106.02 25.1678 106.356 24.5413C106.589 24.0965 106.463 23.5263 106.003 23.3101C105.673 23.1351 105.29 23.1552 104.917 23.0786C104.81 23.1803 104.56 23.61 104.503 23.7412C104.29 24.265 104.176 24.8318 104.205 25.391C104.212 25.5189 104.245 25.8376 104.345 25.9125ZM113.466 25.9311C113.023 26.9477 112.347 28.4251 111.069 28.4921C110.03 28.5465 109.263 27.6574 108.912 26.7626C108.613 25.9611 108.583 25.0815 108.619 24.2305C108.639 23.7007 108.735 22.478 109.197 22.1173C109.32 22.0147 109.461 21.9593 109.605 21.9517C110.02 21.93 110.409 22.3261 110.242 22.7995C110.216 22.9131 110.107 22.9828 110.081 23.0964C109.905 23.7144 109.924 24.3704 109.973 25.0086C110.014 25.4871 110.089 25.9959 110.304 26.4333C110.429 26.6671 110.721 27.0523 111.009 27.0372C111.169 27.0288 111.41 26.7438 111.5 26.627C112.202 25.6449 112.601 24.4063 112.877 23.2383C112.995 22.7514 113.13 22.2637 113.721 22.2327C114.296 22.2025 114.544 22.6542 114.617 23.131C114.723 23.6221 114.766 24.1326 114.825 24.6422C114.863 25.0728 114.95 25.5009 115.005 25.9466C115.052 26.2325 115.054 26.5689 114.907 26.8329C114.804 26.9985 114.6 27.0893 114.409 27.0994C114.153 27.1128 113.891 26.9983 113.781 26.7477C113.655 26.482 113.545 26.2153 113.466 25.9311Z" fill="white"/>
</svg>
